<svg width="21" height="20" viewBox="0 0 21 20" fill="none" xmlns="http://www.w3.org/2000/svg">
<path d="M20.3052 8.04136H19.4997V7.99986H10.4998V11.9998H16.1512C15.3267 14.3283 13.1113 15.9997 10.4998 15.9997C7.18639 15.9997 4.49993 13.3133 4.49993 9.99983C4.49993 6.68639 7.18639 3.99993 10.4998 3.99993C12.0293 3.99993 13.4208 4.57692 14.4803 5.5194L17.3087 2.69095C15.5227 1.02648 13.1338 0 10.4998 0C4.97742 0 0.5 4.47742 0.5 9.99983C0.5 15.5222 4.97742 19.9997 10.4998 19.9997C16.0222 19.9997 20.4997 15.5222 20.4997 9.99983C20.4997 9.32934 20.4307 8.67485 20.3052 8.04136Z" fill="#FFC107"/>
<path d="M1.65723 5.34541L4.94267 7.75487C5.83166 5.55391 7.98462 3.99993 10.5041 3.99993C12.0336 3.99993 13.425 4.57692 14.4845 5.51941L17.313 2.69095C15.527 1.02648 13.138 0 10.5041 0C6.66314 0 3.3322 2.16846 1.65723 5.34541Z" fill="#FF3D00"/>
<path d="M10.4961 19.9992C13.0791 19.9992 15.426 19.0107 17.2005 17.4033L14.1055 14.7843C13.1016 15.5448 11.8536 15.9993 10.4961 15.9993C7.89514 15.9993 5.68668 14.3408 4.85469 12.0264L1.59375 14.5388C3.24872 17.7773 6.60966 19.9992 10.4961 19.9992Z" fill="#4CAF50"/>
<path d="M20.3053 8.03955H19.4998V7.99805H10.5V11.998H16.1514C15.7554 13.1165 15.0359 14.0809 14.1079 14.7834C14.1084 14.7829 14.1089 14.7829 14.1094 14.7824L17.2044 17.4014C16.9854 17.6004 20.4998 14.9979 20.4998 9.99801C20.4998 9.32752 20.4308 8.67304 20.3053 8.03955Z" fill="#1976D2"/>
</svg>
