<svg width="564" height="433" viewBox="0 0 564 433" fill="none" xmlns="http://www.w3.org/2000/svg"><g opacity=".2" clip-path="url(#a)"><path d="M547.329 144.822c66.141 41.511 72.725 128.261 14.742 193.772-58.013 65.546-158.615 85.022-224.755 43.511-66.139-41.512-72.724-128.261-14.711-193.807 57.983-65.512 158.584-84.988 224.724-43.476Z" fill="#B0C3FF"/><path d="M417.414 404.853c-28.96 0-57.005-7.073-80.63-21.901-29.696-18.637-48.702-47.332-53.517-80.797-5.577-38.769 8.487-80.51 38.589-114.521 58.202-65.759 159.586-85.346 226.006-43.659 29.699 18.639 48.707 47.337 53.522 80.807 5.576 38.761-8.48 80.486-38.563 114.475-37.511 42.38-92.953 65.596-145.407 65.596Zm49.771-280.805c-51.873 0-106.709 22.971-143.829 64.912-29.712 33.57-43.602 74.723-38.109 112.909 4.731 32.875 23.411 61.068 52.6 79.388 65.625 41.188 165.874 21.753 223.474-43.326 29.694-33.549 43.574-74.686 38.081-112.865-4.731-32.878-23.412-61.075-52.604-79.396-23.32-14.636-51.019-21.622-79.613-21.622Z" fill="#111"/><path d="M496.092 199.62c-19.317-12.124-48.76-6.452-65.736 12.726-16.943 19.144-14.984 44.525 4.333 56.648 19.353 12.147 48.762 6.453 65.706-12.69 16.975-19.178 15.05-44.538-4.303-56.684Z" fill="#fff"/><path d="M458.123 276.354c-8.605 0-16.942-2.104-23.965-6.512-8.862-5.562-14.534-14.135-15.975-24.141-1.66-11.54 2.504-23.939 11.424-34.018 17.249-19.487 47.31-25.278 67.017-12.912 8.869 5.567 14.545 14.137 15.984 24.132 1.66 11.541-2.519 23.958-11.463 34.064-11.09 12.53-27.489 19.387-43.022 19.387Zm14.524-82.108c-14.971 0-30.813 6.642-41.541 18.764-8.53 9.638-12.519 21.449-10.943 32.406 1.355 9.414 6.702 17.487 15.057 22.731 18.916 11.87 47.817 6.261 64.425-12.506 8.555-9.666 12.558-21.494 10.982-32.453-1.354-9.404-6.703-17.473-15.066-22.722-6.712-4.21-14.682-6.22-22.914-6.22Z" fill="#111"/><path d="m590.737 192.804 13.349 28.076c20.845 43.84 11.861 100.002-28.665 145.789-58.014 65.546-158.616 85.022-224.755 43.511-19.912-12.497-34.425-29.094-43.404-47.978l-13.349-28.075c8.978 18.884 23.492 35.481 43.403 47.978 66.141 41.511 166.742 22.035 224.756-43.511 40.524-45.788 49.51-101.95 28.665-145.79Z" fill="#3658C1"/><path d="M430.763 432.928c-28.961.001-57.005-7.072-80.63-21.9-19.365-12.154-34.501-28.889-43.775-48.396l-13.35-28.075a1.002 1.002 0 0 1 1.808-.86c9.11 19.163 23.991 35.609 43.032 47.56 65.625 41.188 165.874 21.753 223.474-43.326 39.047-44.116 49.972-99.561 28.512-144.696a1.002 1.002 0 0 1 1.808-.86l13.349 28.076c21.811 45.872 10.768 102.154-28.821 146.882-37.511 42.38-92.953 65.592-145.407 65.595Zm-127.002-80.416 4.404 9.26c9.109 19.163 23.99 35.609 43.031 47.561 65.626 41.187 165.874 21.753 223.474-43.327 39.047-44.116 49.972-99.561 28.512-144.697l-4.26-8.959c10.847 41.549-2.098 88.488-36.102 126.907-37.51 42.381-92.953 65.593-145.406 65.595-28.96.001-57.005-7.073-80.63-21.901-13.116-8.232-24.293-18.565-33.023-30.439Z" fill="#111"/><path d="M416.036 290.07c-37.836-23.746-93.03-16.742-131.398 14.363 5.14 31.027 22.85 58.95 52.677 77.671 28.42 17.837 63.201 24.383 98.233 20.885 26.488-40.461 19.198-88.622-19.512-112.919Z" fill="#fff"/><path d="M417.182 404.917c-29.801 0-57.307-7.472-80.398-21.966-28.897-18.136-47.766-45.963-53.132-78.354a.997.997 0 0 1 .356-.94c39.332-31.887 95.082-37.957 132.559-14.433 17.887 11.226 29.624 27.602 33.946 47.358 4.798 21.933-.22 45.712-14.127 66.956a1.005 1.005 0 0 1-.737.448c-6.239.622-12.402.931-18.467.931Zm-131.46-100.073c5.399 31.572 23.893 58.692 52.126 76.412 27.294 17.132 60.872 24.314 97.123 20.784 13.414-20.689 18.239-43.765 13.586-65.032-4.204-19.22-15.634-35.157-33.054-46.09-36.632-22.992-91.12-17.118-129.781 13.926Z" fill="#111"/></g><g clip-path="url(#b)"><path d="m332.731 235.349-13.632 25.488c-9.647 18.037-23.839 34.016-42.464 46.542-69.653 46.847-174.888 27.64-235.036-42.824-44.082-51.643-51.757-116.476-25.333-165.88l13.632-25.487C3.474 122.592 11.15 187.425 55.231 239.068c60.148 70.464 165.383 89.67 235.036 42.824 18.625-12.527 32.817-28.506 42.464-46.543Z" fill="#CDD5EF"/><path d="M188.903 333.932c-53.846 0-110.011-24.146-148.066-68.727-42.864-50.217-52.854-115.768-25.453-167L28.98 72.782l.035-.065a1 1 0 1 1 1.765.945c-27.01 50.5-17.114 115.171 25.212 164.758 59.753 70.001 164.598 89.131 233.717 42.643 18.07-12.153 32.249-27.692 42.139-46.184a1 1 0 1 1 1.765.945l-13.632 25.487c-10.047 18.783-24.443 34.563-42.788 46.901-25.868 17.395-56.682 25.72-88.29 25.72ZM20.168 93.502l-3.02 5.646C-9.861 149.648.035 214.32 42.36 263.905c59.752 70.001 164.596 89.132 233.717 42.644 18.07-12.154 32.249-27.692 42.139-46.184l2.995-5.599c-8.425 10.664-18.588 20.022-30.387 27.956-69.934 47.036-175.962 27.745-236.355-43.005C17.215 196.072 4.79 140.846 20.168 93.503Z" fill="#111"/><path d="M332.735 235.238c38.424-71.846 1.781-166.345-81.844-211.069C167.265-20.555 68.325 1.432 29.901 73.277c-38.425 71.846-1.782 166.345 81.844 211.069 83.625 44.724 182.566 22.737 220.99-49.108Z" fill="#fff"/><path d="M202.536 308.445c-53.846 0-110.012-24.146-148.066-68.728-30.9-36.199-45.31-81.146-39.536-123.316 5.09-37.175 25.291-69.351 56.885-90.6 69.937-47.036 175.965-27.743 236.356 43.007 30.891 36.19 45.297 81.138 39.521 123.318-5.09 37.179-25.287 69.353-56.873 90.596-25.865 17.397-56.68 25.723-88.287 25.723ZM72.936 27.461C41.823 48.387 21.928 80.07 16.918 116.672c-5.696 41.606 8.545 85.98 39.075 121.746 37.666 44.126 93.264 68.038 146.523 68.042 31.228.002 61.645-8.216 87.194-25.399 31.104-20.919 50.995-52.6 56.006-89.207 5.697-41.616-8.539-85.992-39.062-121.749-59.753-70-164.599-89.131-233.718-42.644Z" fill="#111"/><path d="M121.866 88.025c-20.342 13.682-22.622 41.503-5.012 62.133 17.576 20.59 48.367 26.169 68.709 12.487 20.381-13.708 22.625-41.504 5.049-62.095-17.611-20.63-48.365-26.233-68.746-12.525Z" fill="#EBF0FF"/><path d="M159.894 171.12c-15.942 0-32.554-7.134-43.803-20.312-9.164-10.737-13.436-24.085-11.719-36.622 1.517-11.08 7.531-20.665 16.936-26.99 20.745-13.953 52.175-8.252 70.063 12.706 9.153 10.723 13.419 24.054 11.705 36.575-1.518 11.078-7.539 20.666-16.957 27-7.685 5.168-16.84 7.643-26.225 7.643Zm-37.47-82.265c-8.925 6.002-14.632 15.095-16.069 25.603-1.64 11.972 2.464 24.747 11.259 35.051 17.234 20.188 47.464 25.708 67.39 12.306 8.937-6.011 14.651-15.107 16.09-25.611 1.637-11.956-2.461-24.715-11.244-35.004-17.251-20.21-47.498-25.747-67.426-12.345Z" fill="#111"/><path d="M290.267 281.892c29.925-20.127 48.392-49.168 54.967-81.333-40.006-35.25-99.545-42.669-140.321-15.244-39.846 26.8-48.435 77.912-23.193 121.007 38.485 4.384 77.134-3.303 108.547-24.43Z" fill="#EBF0FF"/><path d="M202.298 308.499c-6.835 0-13.743-.392-20.693-1.184a1.006 1.006 0 0 1-.751-.488c-25.938-44.287-16.056-95.739 23.5-122.342 19.779-13.304 45.038-19.003 71.12-16.045 25.77 2.922 50.779 14.062 70.422 31.367a.997.997 0 0 1 .318.951c-6.833 33.427-26.503 62.535-55.39 81.962-25.099 16.883-55.955 25.779-88.526 25.779Zm-19.968-3.116c39.414 4.381 77.532-4.248 107.379-24.322 28.695-19.3 47.506-46.999 54.428-80.134-19.271-16.82-43.711-27.644-68.888-30.499-25.61-2.904-50.39 2.678-69.779 15.717-38.523 25.91-48.214 75.989-23.14 119.238Z" fill="#111"/></g><defs><clipPath id="a"><path fill="#fff" d="M282 122h334v311H282z"/></clipPath><clipPath id="b"><path fill="#fff" d="M0 0h349v334H0z"/></clipPath></defs></svg>