<svg width="16" height="16" viewBox="0 0 16 16" fill="none" xmlns="http://www.w3.org/2000/svg">
<g id="Frame">
<path id="Vector" d="M14.4999 7.99299C14.5004 8.17115 14.4532 8.34621 14.3633 8.50004C14.2735 8.65388 14.1441 8.78091 13.9887 8.86799L3.49429 14.8686C3.34351 14.9541 3.17325 14.9993 2.99992 14.9999C2.84007 14.9995 2.68263 14.9609 2.5408 14.8872C2.39896 14.8135 2.27687 14.7068 2.18474 14.5762C2.09262 14.4456 2.03315 14.2948 2.01132 14.1364C1.98949 13.9781 2.00594 13.8168 2.05929 13.6661L3.76867 8.66924C3.78551 8.6198 3.81741 8.57688 3.8599 8.5465C3.90238 8.51612 3.95331 8.49981 4.00554 8.49986H8.49992C8.56846 8.50001 8.6363 8.48607 8.69923 8.45889C8.76216 8.43172 8.81883 8.3919 8.86572 8.3419C8.91261 8.29191 8.94872 8.2328 8.9718 8.16827C8.99489 8.10373 9.00446 8.03513 8.99992 7.96674C8.98858 7.83816 8.92909 7.71862 8.83336 7.63205C8.73763 7.54547 8.61273 7.49826 8.48367 7.49986H4.00992C3.95777 7.49995 3.90689 7.48374 3.86442 7.45348C3.82194 7.42322 3.78999 7.38043 3.77304 7.33111L2.05804 2.33111C1.99126 2.13952 1.98433 1.93214 2.03819 1.73652C2.09205 1.5409 2.20413 1.36629 2.35957 1.23587C2.51501 1.10546 2.70644 1.02542 2.90845 1.00637C3.11045 0.987323 3.31347 1.03018 3.49054 1.12924L13.9905 7.12236C14.145 7.20932 14.2735 7.33576 14.363 7.48874C14.4525 7.64172 14.4998 7.81575 14.4999 7.99299Z" fill="#606060"/>
</g>
</svg>
