<svg xmlns="http://www.w3.org/2000/svg" width="32" height="32" viewBox="0 0 32 32" fill="none">
  <path d="M16.6665 19.3337C16.6665 20.8003 17.8665 22.0003 19.3332 22.0003H25.9998C27.4665 22.0003 28.6665 20.8003 28.6665 19.3337C28.6665 17.867 27.4665 16.667 25.9998 16.667H19.3332C17.8665 16.667 16.6665 17.867 16.6665 19.3337Z" fill="#F5BC00"/>
  <path d="M16.6665 23.333V25.9997C16.6665 27.4663 17.8665 28.6663 19.3332 28.6663C20.7998 28.6663 21.9998 27.4663 21.9998 25.9997C21.9998 24.533 20.7998 23.333 19.3332 23.333H16.6665Z" fill="#F5BC00"/>
  <path d="M12.6667 16.667C11.2 16.667 10 17.867 10 19.3337V26.0003C10 27.467 11.2 28.667 12.6667 28.667C14.1333 28.667 15.3333 27.467 15.3333 26.0003V19.3337C15.3333 17.867 14.1333 16.667 12.6667 16.667Z" fill="#F55376"/>
  <path d="M8.66683 16.667H6.00016C4.5335 16.667 3.3335 17.867 3.3335 19.3337C3.3335 20.8003 4.5335 22.0003 6.00016 22.0003C7.46683 22.0003 8.66683 20.8003 8.66683 19.3337V16.667Z" fill="#F55376"/>
  <path d="M15.3335 12.6667C15.3335 11.2 14.1335 10 12.6668 10H6.00016C4.5335 10 3.3335 11.2 3.3335 12.6667C3.3335 14.1333 4.5335 15.3333 6.00016 15.3333H12.6668C14.1335 15.3333 15.3335 14.1333 15.3335 12.6667Z" fill="#00B3D7"/>
  <path d="M15.3333 8.66634V5.99967C15.3333 4.53301 14.1333 3.33301 12.6667 3.33301C11.2 3.33301 10 4.53301 10 5.99967C10 7.46634 11.2 8.66634 12.6667 8.66634H15.3333Z" fill="#00B3D7"/>
  <path d="M19.3332 15.333C20.7998 15.333 21.9998 14.133 21.9998 12.6663V5.99967C21.9998 4.53301 20.7998 3.33301 19.3332 3.33301C17.8665 3.33301 16.6665 4.53301 16.6665 5.99967V12.6663C16.6665 14.133 17.8665 15.333 19.3332 15.333Z" fill="#00B569"/>
  <path d="M23.3335 15.3333H26.0002C27.4668 15.3333 28.6668 14.1333 28.6668 12.6667C28.6668 11.2 27.4668 10 26.0002 10C24.5335 10 23.3335 11.2 23.3335 12.6667V15.3333Z" fill="#00B569"/>
</svg>