<svg width="232" height="258" viewBox="0 0 232 258" fill="none" xmlns="http://www.w3.org/2000/svg"><g clip-path="url(#a)" stroke="#000" stroke-width="2"><path d="m130.967 228.943-.302-.19-.354.044c-4.687.586-9.463.891-14.31.891-63.099 0-114.25-51.151-114.25-114.249C1.751 52.342 52.902 1.19 116.001 1.19c63.097 0 114.248 51.152 114.248 114.249 0 39.4-19.944 74.142-50.291 94.682l-.38.257-.053.455-5.283 45.286-43.275-27.176Z" fill="#3658C1"/><path d="M57.005 136.642c-4.943-2.217-7.153-8.023-4.936-12.967 2.218-4.944 8.023-7.152 12.967-4.936v.001l54.933 24.642.834.374.447-.796 41.178-73.263c2.654-4.723 8.635-6.4 13.359-3.746 4.723 2.655 6.399 8.636 3.745 13.36l.85.477-.85-.478-46.016 81.872a9.81 9.81 0 0 1-12.568 4.145v-.001l-63.943-28.684Z" fill="#fff"/></g><defs><clipPath id="a"><path fill="#fff" d="M.751 0h230.497v258H.751z"/></clipPath></defs></svg>