<svg width="268" height="258" viewBox="0 0 268 258" fill="none" xmlns="http://www.w3.org/2000/svg"><g clip-path="url(#a)"><path d="m249.639 197.802-16.058 21.793c-13.041 17.697-32.984 30.532-58.384 35.478-63.447 12.357-136.923-29.189-164.112-92.804-16.303-38.145-12.258-75.562 7.277-102.072L34.42 38.403c-19.535 26.51-23.58 63.928-7.277 102.073 27.19 63.615 100.665 105.161 164.113 92.805 25.4-4.946 45.343-17.781 58.383-35.479Z" fill="url(#b)"/><path d="M152.364 257.988c-57.581 0-117.924-39.167-141.968-95.424C2.487 144.061-.922 124.78.537 106.808c1.414-17.414 7.37-33.686 17.222-47.057l16.058-21.793a.75.75 0 1 1 1.206.891C25.336 51.996 19.481 68.001 18.09 85.137c-1.44 17.729 1.93 36.763 9.743 55.043 27.013 63.202 100.26 104.638 163.28 92.364 24.417-4.755 44.433-16.906 57.889-35.141l.034-.047a.75.75 0 1 1 1.206.891l-.042.057-16.017 21.736c-13.683 18.569-34.031 30.938-58.844 35.77-7.542 1.47-15.238 2.178-22.975 2.178ZM25.519 51.748l-6.555 8.894C9.277 73.788 3.422 89.794 2.031 106.929c-1.439 17.73 1.93 36.764 9.743 55.044 27.013 63.203 100.264 104.639 163.28 92.364 24.438-4.76 44.468-16.927 57.923-35.188l6.486-8.802c-12.763 11.891-29.111 19.979-48.065 23.67-63.678 12.405-137.668-29.429-164.943-93.245-7.909-18.505-11.318-37.784-9.859-55.757.957-11.796 3.998-23.067 8.923-33.268Z" fill="#111"/><path d="M249.675 197.719c35.069-47.593 15.3-121.822-44.155-165.795C146.066-12.048 69.439-9.114 34.37 38.48-.7 86.073 19.07 160.302 78.524 204.275c59.455 43.972 136.082 41.037 171.151-6.556Z" fill="#3658C1"/><path d="M168.422 236.196c-57.581.003-117.923-39.168-141.967-95.424-13.66-31.959-13.485-65.437.48-91.849C39.831 24.528 63.173 7.93 92.658 2.188c63.676-12.404 137.668 29.43 164.944 93.246 13.66 31.961 13.486 65.439-.478 91.85-12.898 24.395-36.239 40.993-65.726 46.734-7.543 1.469-15.239 2.177-22.977 2.178ZM115.671 1.509c-7.658 0-15.26.7-22.726 2.153C63.913 9.316 40.941 25.64 28.26 49.627c-13.751 26.008-13.906 59.014-.426 90.554 23.812 55.714 83.562 94.513 140.554 94.517 7.658.001 15.26-.7 22.726-2.153 29.032-5.654 52.006-21.977 64.687-45.964 13.751-26.008 13.905-59.014.424-90.555-23.811-55.716-83.56-94.517-140.553-94.517Z" fill="#111"/><path d="M141.893 150.348c-4.326.842-8.689-.163-13.079-3.013-4.394-2.854-8.14-7.904-11.236-15.149-2.317-5.422-3.923-11.851-4.821-19.279-.892-7.429-.075-13.443 2.463-18.043 2.529-4.606 6.246-7.386 11.139-8.339 4.557-.887 9.064.103 13.528 2.975s8.072 7.527 10.829 13.977c2.464 5.764 4.026 12.195 4.685 19.298.665 7.103.23 12.69-1.298 16.76-1.06 2.861-2.422 5.076-4.102 6.635-2.159 2.158-4.865 3.546-8.108 4.178Zm-29.87-115.545c-16.909 3.293-30.448 9.683-40.636 19.176-10.182 9.491-16.102 21.895-17.761 37.21-1.656 15.307.947 30.981 7.8 47.015 6.243 14.606 15.346 27.467 27.305 38.583 11.969 11.114 26.138 18.523 42.518 22.226 16.379 3.702 33.958 3.725 52.743.067 19.404-3.779 34.245-10.75 44.519-20.908 8.972-8.859 13.832-19.635 14.574-32.325l-18.183 3.541c-2.733 8.751-8.186 15.982-16.349 21.685-8.172 5.698-19.057 9.873-32.66 12.523-14.117 2.749-27.624 2.921-40.518.52-12.896-2.406-24.481-7.954-34.762-16.642-10.281-8.688-17.992-19.053-23.14-31.099-5.29-12.377-7.665-24.819-7.118-37.32.54-12.5 4.833-22.946 12.868-31.34 8.035-8.394 19.763-14.092 35.19-17.097 18.153-3.535 34.317-1.57 48.481 5.903 14.171 7.472 24.255 18.223 30.255 32.261 3.34 7.814 4.777 15.728 4.314 23.729-.463 8.001-2.671 14.738-6.628 20.2-2.908 4.158-5.728 6.499-8.461 7.031-.909.177-1.845-.031-2.811-.617-.959-.586-1.74-1.591-2.35-3.019-.487-1.138-1.161-3.73-2.025-7.762l-13.334-63.88-22.542 4.39 1.928 9.913c-8.156-6.813-17.297-9.24-27.431-7.267-14.228 2.77-23.017 11.777-26.37 27.02-2.778 12.533-1.306 25.503 4.426 38.913 4.632 10.839 11.462 18.923 20.49 24.239 9.024 5.323 18.259 7.059 27.704 5.22 8.767-1.707 15.119-6.466 19.057-14.276 2.158 3.038 4.793 5.154 7.886 6.343 3.099 1.189 7.006 1.321 11.731.401 17.534-3.414 28.732-13.625 33.606-30.648 3.911-13.496 2.761-27.515-3.459-42.07-5.218-12.208-12.977-22.89-23.267-32.043-10.297-9.15-22.217-15.439-35.76-18.857-13.549-3.423-27.487-3.733-41.83-.94Z" fill="#fff"/><path d="M156.885 202.544c-8.925 0-17.546-.933-25.802-2.8-16.428-3.713-30.849-11.252-42.862-22.407-11.984-11.14-21.231-24.207-27.484-38.839-6.875-16.085-9.519-32.029-7.856-47.391C54.55 75.678 60.606 63 70.877 53.427c10.244-9.544 24.04-16.06 41.003-19.362 14.389-2.803 28.572-2.484 42.158.95 13.594 3.43 25.73 9.831 36.074 19.022 10.329 9.186 18.221 20.057 23.459 32.31 6.258 14.643 7.432 28.968 3.49 42.574-4.934 17.23-16.435 27.72-34.183 31.176-4.845.943-8.93.796-12.143-.437-2.887-1.111-5.408-3.008-7.507-5.649-4.068 7.372-10.463 11.95-19.026 13.618-9.591 1.867-19.087.082-28.227-5.31-9.123-5.372-16.12-13.646-20.799-24.59-5.766-13.49-7.27-26.736-4.467-39.371 3.406-15.49 12.476-24.774 26.957-27.594 9.653-1.88 18.543.19 26.451 6.153l-1.541-7.918a.752.752 0 0 1 .592-.881l22.543-4.39a.747.747 0 0 1 .877.582l13.333 63.879c.852 3.973 1.518 6.539 1.981 7.621.545 1.275 1.235 2.174 2.052 2.674.808.49 1.554.66 2.277.521 2.523-.492 5.212-2.755 7.99-6.726 3.858-5.325 6.04-11.987 6.493-19.812.454-7.852-.977-15.721-4.255-23.39-5.902-13.808-15.966-24.538-29.914-31.893-13.941-7.355-30.087-9.314-47.99-5.83-15.197 2.959-26.903 8.639-34.792 16.88-7.87 8.222-12.13 18.601-12.66 30.85-.54 12.326 1.835 24.772 7.058 36.993 5.079 11.882 12.794 22.252 22.934 30.821 10.132 8.564 21.712 14.108 34.417 16.478 12.744 2.372 26.282 2.198 40.237-.518 13.431-2.616 24.324-6.789 32.374-12.403 7.989-5.581 13.393-12.745 16.062-21.293a.754.754 0 0 1 .573-.513l18.183-3.541a.744.744 0 0 1 .636.172.757.757 0 0 1 .255.61c-.751 12.82-5.729 23.861-14.797 32.816-10.335 10.218-25.442 17.32-44.901 21.109-9.337 1.82-18.442 2.729-27.249 2.729Zm-25.78-168.865c-6.248 0-12.572.62-18.939 1.86-16.685 3.25-30.233 9.638-40.269 18.99-9.998 9.32-15.895 21.681-17.527 36.74-1.633 15.103.973 30.795 7.745 46.639 6.17 14.437 15.296 27.333 27.125 38.329 11.817 10.972 26.006 18.389 42.173 22.043 16.2 3.662 33.842 3.683 52.435.063 19.164-3.733 34.014-10.698 44.136-20.705 8.567-8.46 13.371-18.841 14.287-30.867l-16.79 3.269c-2.816 8.684-8.366 15.966-16.5 21.649-8.224 5.735-19.308 9.989-32.944 12.644-14.14 2.753-27.866 2.928-40.797.521-12.963-2.419-24.775-8.073-35.109-16.806-10.32-8.722-18.174-19.279-23.345-31.378-5.313-12.43-7.728-25.097-7.179-37.65.547-12.623 4.946-23.331 13.077-31.825 8.107-8.469 20.08-14.294 35.586-17.314 18.248-3.553 34.725-1.544 48.974 5.975 14.261 7.52 24.554 18.498 30.594 32.63 3.37 7.884 4.841 15.982 4.373 24.068-.469 8.117-2.748 15.047-6.769 20.598-3.044 4.351-5.965 6.75-8.925 7.327-1.09.211-2.214-.027-3.341-.711-1.09-.667-1.982-1.799-2.652-3.366-.507-1.187-1.184-3.771-2.069-7.9l-13.182-63.158-21.082 4.105 1.785 9.175a.748.748 0 0 1-1.216.72c-7.94-6.633-16.961-9.024-26.807-7.107-13.841 2.696-22.515 11.593-25.78 26.445-2.733 12.323-1.258 25.261 4.382 38.457 4.549 10.644 11.339 18.68 20.181 23.886 8.815 5.201 17.961 6.928 27.18 5.131 8.487-1.653 14.722-6.322 18.532-13.878a.75.75 0 0 1 1.279-.097c2.061 2.9 4.598 4.946 7.545 6.078 2.947 1.131 6.755 1.254 11.319.365 17.15-3.339 28.263-13.473 33.029-30.118 3.845-13.267 2.691-27.252-3.427-41.567-5.149-12.048-12.913-22.739-23.076-31.777-10.161-9.03-22.086-15.318-35.444-18.69a91.916 91.916 0 0 0-22.568-2.793Zm7.839 117.705c-3.5 0-7.032-1.143-10.538-3.418-4.501-2.924-8.376-8.133-11.518-15.484-2.332-5.459-3.973-12.014-4.875-19.484-.908-7.559-.05-13.783 2.55-18.497 2.629-4.786 6.549-7.718 11.652-8.712 4.73-.923 9.467.114 14.076 3.08 4.572 2.942 8.311 7.757 11.113 14.313 2.485 5.815 4.08 12.383 4.742 19.525.672 7.179.22 12.931-1.342 17.094-1.101 2.969-2.546 5.298-4.294 6.922-2.232 2.229-5.09 3.703-8.474 4.362a16.14 16.14 0 0 1-3.092.299Zm-9.397-64.417a15.96 15.96 0 0 0-3.047.296c-4.645.905-8.221 3.584-10.626 7.963-2.445 4.434-3.244 10.352-2.374 17.592.885 7.329 2.489 13.746 4.766 19.073 3.022 7.071 6.708 12.057 10.955 14.814 4.204 2.729 8.421 3.706 12.529 2.905 3.087-.601 5.684-1.937 7.721-3.97 1.594-1.481 2.909-3.615 3.928-6.365 1.483-3.952 1.905-9.478 1.255-16.428-.648-6.987-2.205-13.404-4.629-19.074-2.682-6.274-6.229-10.864-10.544-13.641-3.275-2.106-6.604-3.165-9.934-3.165Z" fill="#111"/></g><defs><linearGradient id="b" x1="40.85" y1="26.57" x2="163.897" y2="238.172" gradientUnits="userSpaceOnUse"><stop offset=".097" stop-color="#3658C1"/><stop offset="1" stop-color="#111"/></linearGradient><clipPath id="a"><path fill="#fff" d="M0 0h268v258H0z"/></clipPath></defs></svg>