<svg
                xmlns="http://www.w3.org/2000/svg"
                width="11"
                height="10"
                viewBox="0 0 11 10"
                fill="none"
              >
                <path
                  d="M8.53352 7.5914C8.56256 7.62043 8.58559 7.6549 8.6013 7.69284C8.61702 7.73077 8.6251 7.77143 8.6251 7.81249C8.6251 7.85355 8.61702 7.89421 8.6013 7.93215C8.58559 7.97008 8.56256 8.00455 8.53352 8.03358C8.50449 8.06262 8.47002 8.08565 8.43209 8.10136C8.39415 8.11708 8.35349 8.12516 8.31243 8.12516C8.27137 8.12516 8.23071 8.11708 8.19277 8.10136C8.15484 8.08565 8.12037 8.06262 8.09134 8.03358L5.49993 5.44179L2.90852 8.03358C2.84989 8.09222 2.77036 8.12516 2.68743 8.12516C2.6045 8.12516 2.52497 8.09222 2.46634 8.03358C2.4077 7.97495 2.37476 7.89542 2.37476 7.81249C2.37476 7.72956 2.4077 7.65003 2.46634 7.5914L5.05813 4.99999L2.46634 2.40858C2.4077 2.34995 2.37476 2.27042 2.37476 2.18749C2.37476 2.10456 2.4077 2.02503 2.46634 1.9664C2.52497 1.90776 2.6045 1.87482 2.68743 1.87482C2.77036 1.87482 2.84989 1.90776 2.90852 1.9664L5.49993 4.55819L8.09134 1.9664C8.14997 1.90776 8.2295 1.87482 8.31243 1.87482C8.39536 1.87482 8.47489 1.90776 8.53352 1.9664C8.59216 2.02503 8.6251 2.10456 8.6251 2.18749C8.6251 2.27042 8.59216 2.34995 8.53352 2.40858L5.94173 4.99999L8.53352 7.5914Z"
                  fill="white"
                />
              </svg>