<svg width="352" height="168" viewBox="0 0 352 168" fill="none" xmlns="http://www.w3.org/2000/svg"><g filter="url(#a)" clip-path="url(#b)"><path d="M0 12.889C0 5.77 5.77 0 12.889 0H303.11C310.229 0 316 5.77 316 12.889V168H0V12.889Z" fill="#fff"/><rect x="24" y="59" width="86" height="54" rx="9.667" fill="#F5F5F5"/><g filter="url(#c)"><rect x="24" y="123" width="86" height="74" rx="10.732" fill="#FADB00"/><path d="M109.991 196.401H24.343V123.6h85.648v72.801Z" fill="#FADB00"/><path d="M24.343 140.729V196.4H90.72l-66.377-55.671Zm39.612-6.423a7.494 7.494 0 1 0 0 14.988 7.494 7.494 0 0 0 0-14.988Z" fill="#F5BC00"/><path d="M109.99 196.401v-17.959l-25.694-21.551-47.107 39.51h72.801Z" fill="#F5BC00"/><rect x="96" y="116" width="21" height="21" rx="10.5" fill="#212121"/><path d="m111.266 124.14-6 6a.378.378 0 0 1-.531 0l-2.625-2.625a.376.376 0 0 1 0-.531.375.375 0 0 1 .531 0l2.359 2.361 5.735-5.736a.375.375 0 0 1 .531.531Z" fill="#fff"/></g><path d="M25.278 41V29.364h4.262c.826 0 1.51.136 2.05.409.543.269.948.634 1.217 1.096.269.459.403.976.403 1.551 0 .485-.089.894-.267 1.228-.178.33-.416.594-.716.795a3.14 3.14 0 0 1-.977.432v.114a2.32 2.32 0 0 1 1.13.375c.372.227.679.55.921.971.243.42.364.932.364 1.534 0 .595-.14 1.13-.42 1.603-.277.47-.705.842-1.285 1.119-.58.273-1.32.409-2.221.409h-4.46Zm1.756-1.506h2.534c.841 0 1.443-.163 1.807-.488.364-.326.546-.733.546-1.222 0-.367-.093-.704-.279-1.011a1.989 1.989 0 0 0-.795-.733c-.341-.182-.747-.273-1.216-.273h-2.597v3.727Zm0-5.096h2.352c.394 0 .748-.076 1.063-.228a1.86 1.86 0 0 0 .755-.636c.19-.276.285-.602.285-.977 0-.481-.169-.885-.506-1.21-.337-.326-.854-.489-1.551-.489h-2.398v3.54ZM41.14 37.38v-5.108h1.705V41h-1.67v-1.511h-.092c-.2.466-.522.854-.965 1.164-.44.307-.987.46-1.643.46-.56 0-1.056-.123-1.488-.369-.428-.25-.765-.619-1.012-1.108-.242-.488-.363-1.092-.363-1.812v-5.551h1.699v5.346c0 .595.164 1.069.494 1.42.33.353.758.53 1.284.53.318 0 .634-.08.949-.24.318-.159.581-.4.79-.721.212-.322.316-.731.312-1.227Zm7.646 7.074c-.693 0-1.29-.091-1.79-.273-.495-.182-.9-.422-1.215-.722a3.03 3.03 0 0 1-.705-.983l1.46-.602c.103.167.24.343.41.528.174.19.409.35.704.483.3.133.684.2 1.154.2.644 0 1.176-.158 1.596-.472.42-.311.63-.807.63-1.489v-1.716h-.107c-.102.186-.25.392-.443.62a2.4 2.4 0 0 1-.784.59c-.334.167-.767.25-1.301.25-.69 0-1.311-.16-1.864-.483-.55-.325-.985-.805-1.307-1.437-.318-.636-.477-1.419-.477-2.347 0-.928.157-1.723.471-2.386.319-.663.754-1.17 1.307-1.523a3.399 3.399 0 0 1 1.88-.534c.542 0 .98.091 1.313.273.334.178.593.386.779.625.19.238.335.449.437.63h.125v-1.414h1.665v8.92c0 .75-.174 1.366-.523 1.847-.348.48-.82.837-1.415 1.068-.59.231-1.257.347-2 .347Zm-.016-4.995c.488 0 .901-.113 1.238-.34.341-.232.599-.561.773-.99.178-.431.267-.948.267-1.55 0-.588-.087-1.105-.261-1.552-.175-.447-.43-.795-.767-1.045-.338-.254-.754-.38-1.25-.38-.512 0-.938.132-1.279.397-.34.261-.598.617-.773 1.068-.17.45-.255.955-.255 1.512 0 .572.087 1.073.261 1.505.174.432.432.77.773 1.012.344.242.769.363 1.273.363ZM59.372 41V29.364h4.148c.901 0 1.65.155 2.244.465.599.311 1.046.741 1.341 1.29.296.546.443 1.176.443 1.892 0 .712-.15 1.34-.449 1.881-.295.538-.742.956-1.34 1.256-.595.299-1.343.449-2.245.449h-3.142v-1.512h2.983c.568 0 1.03-.081 1.387-.244.36-.163.623-.4.79-.71.166-.31.25-.684.25-1.12 0-.439-.086-.82-.256-1.142a1.651 1.651 0 0 0-.79-.738c-.356-.175-.824-.262-1.404-.262h-2.204V41h-1.756Zm5.745-5.25L67.99 41h-2l-2.818-5.25h1.944Zm8.083 5.426c-.86 0-1.6-.184-2.221-.551a3.738 3.738 0 0 1-1.432-1.563c-.334-.674-.5-1.463-.5-2.369 0-.894.166-1.682.5-2.363a3.882 3.882 0 0 1 1.409-1.597c.606-.383 1.314-.574 2.125-.574.492 0 .97.081 1.432.244.462.163.877.419 1.244.767.367.349.657.802.87 1.358.212.553.318 1.226.318 2.017v.603h-6.938v-1.273h5.273c0-.447-.091-.843-.273-1.188a2.062 2.062 0 0 0-.767-.823c-.326-.201-.708-.301-1.148-.301-.477 0-.894.117-1.25.352a2.365 2.365 0 0 0-.818.909c-.19.371-.284.775-.284 1.21v.994c0 .584.102 1.08.307 1.489.208.41.498.722.87.938.37.212.804.318 1.3.318a2.7 2.7 0 0 0 .881-.137 1.91 1.91 0 0 0 .688-.42 1.84 1.84 0 0 0 .443-.688l1.608.29c-.13.474-.36.888-.694 1.245a3.36 3.36 0 0 1-1.244.823c-.496.194-1.062.29-1.699.29Zm5.63 3.097v-12h1.659v1.414h.142a4.67 4.67 0 0 1 .426-.63c.185-.239.443-.447.772-.625.33-.182.766-.273 1.307-.273.705 0 1.334.178 1.887.534.553.356.987.87 1.3 1.54.319.67.478 1.477.478 2.42 0 .944-.157 1.752-.472 2.427-.314.67-.746 1.187-1.295 1.55-.55.36-1.176.54-1.88.54-.53 0-.965-.089-1.302-.267a2.462 2.462 0 0 1-.784-.625 4.724 4.724 0 0 1-.437-.636h-.103v4.63H78.83Zm1.664-7.637c0 .614.09 1.152.267 1.614.178.462.436.824.773 1.085.337.258.75.387 1.239.387.507 0 .931-.135 1.273-.404.34-.273.598-.642.772-1.108.178-.466.267-.99.267-1.574a4.34 4.34 0 0 0-.261-1.55c-.17-.46-.428-.82-.773-1.086-.34-.265-.767-.398-1.278-.398-.493 0-.91.127-1.25.381-.337.254-.593.608-.767 1.063-.175.454-.262.984-.262 1.59Zm11.887 4.54c-.819 0-1.532-.187-2.142-.562a3.793 3.793 0 0 1-1.42-1.574c-.338-.675-.507-1.462-.507-2.364 0-.905.17-1.697.506-2.375a3.786 3.786 0 0 1 1.42-1.58c.61-.374 1.325-.562 2.143-.562.818 0 1.532.188 2.142.563.61.375 1.083.901 1.42 1.58.337.677.506 1.469.506 2.374 0 .902-.169 1.69-.506 2.364a3.793 3.793 0 0 1-1.42 1.574c-.61.375-1.324.562-2.142.562Zm.005-1.426c.53 0 .97-.14 1.319-.42.348-.28.606-.654.772-1.12.17-.466.256-.979.256-1.54 0-.556-.085-1.068-.256-1.534a2.5 2.5 0 0 0-.773-1.13c-.348-.284-.787-.426-1.318-.426-.534 0-.977.142-1.33.426a2.54 2.54 0 0 0-.778 1.13c-.166.466-.25.978-.25 1.534 0 .561.084 1.074.25 1.54.17.466.43.84.779 1.12.352.28.795.42 1.33.42Zm5.96 1.25v-8.727h1.641v1.386h.091c.159-.47.44-.839.841-1.108a2.404 2.404 0 0 1 1.375-.409 7.242 7.242 0 0 1 .722.04v1.625a3.1 3.1 0 0 0-.364-.063 3.466 3.466 0 0 0-.523-.04 2.22 2.22 0 0 0-1.074.256 1.903 1.903 0 0 0-1.011 1.71V41h-1.699Zm10.729-8.727v1.363h-4.767v-1.363h4.767Zm-3.488-2.091h1.699v8.256c0 .329.049.577.147.744a.775.775 0 0 0 .381.335c.159.057.331.085.517.085.136 0 .256-.01.358-.028.102-.02.182-.034.239-.046l.306 1.404a2.823 2.823 0 0 1-.42.113 3.335 3.335 0 0 1-.682.069 2.989 2.989 0 0 1-1.25-.239 2.141 2.141 0 0 1-.937-.773c-.239-.348-.358-.786-.358-1.312v-8.608Z" fill="#000"/><g filter="url(#d)"><rect x="122" y="59" width="218" height="54" rx="10.732" fill="#fff"/><rect x="325" y="52" width="21" height="21" rx="10.5" fill="#212121"/><path d="m340.266 60.14-6 6a.382.382 0 0 1-.266.11.37.37 0 0 1-.265-.11l-2.625-2.625a.377.377 0 0 1 0-.53.375.375 0 0 1 .531 0l2.359 2.36 5.735-5.736a.375.375 0 1 1 .531.531Z" fill="#fff"/><path d="M130.639 75v-5.818h2.074c.451 0 .825.078 1.122.233.299.155.523.37.671.645.147.272.221.588.221.946 0 .356-.075.67-.224.94a1.51 1.51 0 0 1-.671.628c-.297.15-.671.224-1.122.224h-1.571v-.755h1.492c.284 0 .515-.041.693-.123a.81.81 0 0 0 .395-.355 1.17 1.17 0 0 0 .125-.56c0-.219-.043-.41-.128-.57a.824.824 0 0 0-.395-.37c-.178-.087-.412-.13-.702-.13h-1.102V75h-.878Zm2.872-2.625L134.949 75h-1l-1.409-2.625h.971ZM135.795 75v-5.818h3.648v.755h-2.77v1.773h2.58v.753h-2.58v1.781h2.804V75h-3.682Zm4.821 0v-5.818h2.074c.452 0 .827.082 1.125.247.297.165.52.39.667.676.148.284.222.604.222.96 0 .358-.075.68-.225.966a1.62 1.62 0 0 1-.67.676c-.297.165-.671.248-1.122.248h-1.426v-.745h1.346c.286 0 .518-.049.696-.147a.926.926 0 0 0 .392-.41c.084-.172.125-.368.125-.588 0-.22-.041-.414-.125-.585a.895.895 0 0 0-.395-.4c-.178-.097-.412-.145-.704-.145h-1.102V75h-.878Zm10.171-2.91c0 .622-.114 1.156-.341 1.603a2.5 2.5 0 0 1-.935 1.029 2.54 2.54 0 0 1-1.343.358 2.57 2.57 0 0 1-1.35-.358 2.51 2.51 0 0 1-.932-1.032c-.227-.447-.341-.98-.341-1.6 0-.62.114-1.153.341-1.599a2.49 2.49 0 0 1 .932-1.028c.396-.24.846-.36 1.35-.36.502 0 .949.12 1.343.36.396.239.708.582.935 1.029.227.445.341.978.341 1.599Zm-.869 0c0-.473-.077-.871-.23-1.195a1.68 1.68 0 0 0-.626-.739 1.621 1.621 0 0 0-.894-.253c-.336 0-.635.085-.898.253a1.704 1.704 0 0 0-.625.739c-.152.324-.227.722-.227 1.196 0 .473.075.873.227 1.199.153.324.362.57.625.738.263.167.562.25.898.25.333 0 .631-.083.894-.25.266-.168.474-.414.626-.738.153-.326.23-.726.23-1.2Zm1.963 2.91v-5.818h2.074c.451 0 .825.078 1.122.233.3.155.523.37.671.645.148.272.221.588.221.946 0 .356-.074.67-.224.94a1.512 1.512 0 0 1-.67.628c-.298.15-.672.224-1.123.224h-1.571v-.755h1.492c.284 0 .515-.041.693-.123.18-.081.312-.2.395-.355a1.17 1.17 0 0 0 .125-.56c0-.219-.043-.41-.128-.57a.824.824 0 0 0-.395-.37c-.178-.087-.412-.13-.701-.13h-1.103V75h-.878Zm2.873-2.625L156.191 75h-1l-1.409-2.625h.972Zm1.997-2.438v-.755h4.503v.755h-1.816V75h-.875v-5.063h-1.812ZM162.249 75v-5.818h3.647v.755h-2.77v1.773h2.58v.753h-2.58v1.781h2.804V75h-3.681Zm6.703 0h-1.883v-5.818h1.943c.57 0 1.06.116 1.469.35.409.23.722.563.94.996.22.432.33.95.33 1.554 0 .606-.111 1.127-.333 1.563-.219.436-.538.77-.954 1.006-.417.233-.921.349-1.512.349Zm-1.005-.767h.957c.443 0 .812-.083 1.105-.25.294-.169.513-.412.659-.73.146-.32.219-.71.219-1.17 0-.457-.073-.844-.219-1.162a1.546 1.546 0 0 0-.645-.725c-.286-.165-.641-.247-1.065-.247h-1.011v4.284Zm7.013.767v-5.818h2.13c.413 0 .755.068 1.026.204a1.4 1.4 0 0 1 .608.549c.134.229.201.487.201.775 0 .243-.044.447-.133.614a1.097 1.097 0 0 1-.358.398c-.148.098-.311.17-.489.216v.056c.193.01.382.072.566.188.185.114.339.275.46.486.121.21.182.465.182.767 0 .297-.07.564-.211.8a1.43 1.43 0 0 1-.642.56c-.289.137-.66.205-1.11.205h-2.23Zm.877-.753h1.267c.421 0 .722-.081.904-.244a.785.785 0 0 0 .273-.611.957.957 0 0 0-.14-.506.99.99 0 0 0-.397-.366 1.276 1.276 0 0 0-.608-.136h-1.299v1.863Zm0-2.548h1.176c.197 0 .375-.038.532-.114a.931.931 0 0 0 .378-.318.848.848 0 0 0 .142-.489.81.81 0 0 0-.253-.605c-.169-.163-.427-.244-.776-.244h-1.199v1.77Zm3.908-2.517h.997l1.52 2.645h.063l1.519-2.645h.998l-2.111 3.534V75h-.875v-2.284l-2.111-3.534Z" fill="#606060"/><rect x="130" y="85" width="20" height="20" rx="10" fill="#AD6FFF"/><path d="M137.234 92.39h1.172v3.912c0 .361-.081.675-.243.942a1.613 1.613 0 0 1-.672.616c-.286.145-.62.217-.999.217a2.32 2.32 0 0 1-.921-.178 1.472 1.472 0 0 1-.652-.548c-.161-.247-.24-.556-.238-.929h1.181a.83.83 0 0 0 .09.38.616.616 0 0 0 .238.242.758.758 0 0 0 .362.082.693.693 0 0 0 .37-.093.602.602 0 0 0 .233-.28 1.15 1.15 0 0 0 .079-.451V92.39Zm3.12 5.61h-1.271l1.937-5.61h1.528l1.935 5.61h-1.272l-1.405-4.328h-.044L140.354 98Zm-.079-2.205h3.002v.926h-3.002v-.926Z" fill="#fff"/><path d="M160.351 90.273h1.312v6.187c0 .56-.11 1.039-.332 1.436a2.218 2.218 0 0 1-.925.912c-.397.208-.863.311-1.397.311-.492 0-.934-.09-1.326-.268a2.178 2.178 0 0 1-.924-.78c-.225-.344-.337-.761-.337-1.253h1.308c0 .242.056.45.166.627.114.176.269.314.465.413.199.096.426.145.682.145.278 0 .514-.058.707-.175.196-.12.345-.294.447-.524.103-.23.154-.511.154-.844v-6.187Zm5.884 8.86c-.614 0-1.149-.141-1.607-.423a2.847 2.847 0 0 1-1.065-1.18c-.253-.506-.379-1.097-.379-1.773 0-.679.126-1.273.379-1.781a2.841 2.841 0 0 1 1.065-1.185c.458-.281.993-.422 1.607-.422.613 0 1.149.14 1.606.422.458.281.813.676 1.066 1.185.252.508.379 1.102.379 1.781 0 .676-.127 1.267-.379 1.773a2.845 2.845 0 0 1-1.066 1.18c-.457.282-.993.422-1.606.422Zm.004-1.07c.398 0 .727-.106.989-.316.261-.21.454-.49.579-.84a3.33 3.33 0 0 0 .192-1.154c0-.418-.064-.801-.192-1.15a1.876 1.876 0 0 0-.579-.849c-.262-.213-.591-.32-.989-.32-.401 0-.733.107-.997.32a1.9 1.9 0 0 0-.584.848c-.125.35-.187.733-.187 1.15 0 .421.062.806.187 1.156.128.35.322.629.584.84.264.21.596.314.997.314Zm9.374-4.01-1.155.204a1.364 1.364 0 0 0-.23-.422 1.13 1.13 0 0 0-.418-.328 1.51 1.51 0 0 0-.66-.128c-.361 0-.662.081-.904.243-.241.16-.362.365-.362.618 0 .219.081.395.243.529.162.133.423.242.784.328l1.04.238c.602.14 1.051.354 1.347.644.295.29.443.666.443 1.129 0 .392-.114.741-.341 1.048-.225.304-.538.543-.942.716-.4.174-.865.26-1.393.26-.733 0-1.331-.156-1.794-.469-.463-.315-.748-.762-.853-1.342l1.232-.188c.077.322.234.564.473.73.239.161.55.242.933.242.418 0 .752-.087 1.002-.26.25-.176.375-.39.375-.643a.668.668 0 0 0-.231-.516c-.15-.14-.382-.244-.694-.315l-1.108-.243c-.611-.14-1.063-.361-1.355-.665-.29-.304-.435-.689-.435-1.155 0-.386.108-.724.324-1.014a2.12 2.12 0 0 1 .895-.677 3.267 3.267 0 0 1 1.308-.248c.707 0 1.264.154 1.671.46.406.305.674.712.805 1.224Zm4.35 5.08c-.645 0-1.201-.139-1.666-.414a2.794 2.794 0 0 1-1.074-1.172c-.25-.506-.375-1.098-.375-1.777 0-.67.125-1.261.375-1.773a2.91 2.91 0 0 1 1.056-1.197c.455-.287.986-.43 1.594-.43.37 0 .727.06 1.074.183.347.122.658.314.933.575.276.261.493.6.652 1.018.159.415.239.92.239 1.513v.452h-5.203v-.955h3.954c0-.335-.068-.632-.204-.89a1.552 1.552 0 0 0-.575-.618 1.612 1.612 0 0 0-.861-.226c-.358 0-.671.088-.938.264a1.76 1.76 0 0 0-.613.682 1.969 1.969 0 0 0-.213.908v.745c0 .438.076.81.23 1.117.156.307.373.541.652.703.278.159.603.239.975.239.242 0 .462-.034.661-.103a1.37 1.37 0 0 0 .848-.831l1.206.218c-.097.355-.27.666-.52.933-.247.264-.558.47-.933.618a3.492 3.492 0 0 1-1.274.217Zm4.222 2.322v-9h1.244v1.06h.107c.073-.136.18-.293.319-.472.139-.18.333-.336.58-.47.247-.135.574-.204.98-.204.528 0 1 .134 1.415.4.414.268.74.653.975 1.156.239.503.358 1.108.358 1.815 0 .707-.118 1.314-.353 1.82-.236.502-.56.89-.972 1.163-.412.27-.882.405-1.41.405-.398 0-.723-.067-.976-.2a1.847 1.847 0 0 1-.588-.47 3.487 3.487 0 0 1-.328-.477h-.077v3.474h-1.274Zm1.248-5.728c0 .46.067.864.201 1.21.133.347.326.618.579.814.253.194.563.29.929.29.381 0 .699-.1.955-.302a1.89 1.89 0 0 0 .579-.831c.134-.35.2-.743.2-1.18 0-.432-.065-.82-.196-1.164a1.778 1.778 0 0 0-.579-.814c-.256-.199-.575-.298-.959-.298-.369 0-.682.095-.937.285-.253.19-.445.456-.576.797a3.34 3.34 0 0 0-.196 1.193Zm7.432-.613V99h-1.274v-8.727h1.257v3.247h.081a1.88 1.88 0 0 1 .703-.84c.315-.207.727-.31 1.236-.31.449 0 .841.092 1.176.276.338.185.599.46.784.827.188.364.281.818.281 1.364V99h-1.274v-4.01c0-.48-.123-.852-.371-1.116-.247-.267-.59-.401-1.031-.401-.301 0-.571.064-.809.192a1.387 1.387 0 0 0-.559.562c-.133.245-.2.54-.2.887Zm9.96 3.886h-1.398l3.141-8.727h1.521L209.23 99h-1.398l-2.467-7.142h-.068L202.825 99Zm.234-3.418h4.534v1.108h-4.534v-1.108Zm9.674 3.546c-.529 0-1-.135-1.415-.405-.412-.273-.736-.66-.972-1.163-.233-.506-.349-1.113-.349-1.82 0-.707.118-1.312.353-1.815.239-.503.566-.888.981-1.155.414-.267.885-.4 1.41-.4.406 0 .733.067.98.204.25.133.443.29.58.469.139.179.247.336.324.473h.076v-3.243h1.274V99h-1.244v-1.019h-.106c-.077.14-.188.299-.333.478a1.847 1.847 0 0 1-.588.469c-.25.133-.574.2-.971.2Zm.281-1.087c.366 0 .676-.096.929-.29.256-.196.449-.467.579-.814.134-.346.201-.75.201-1.21a3.34 3.34 0 0 0-.196-1.193 1.756 1.756 0 0 0-.576-.797c-.252-.19-.565-.285-.937-.285-.384 0-.703.1-.959.298-.256.199-.449.47-.58.814a3.34 3.34 0 0 0-.191 1.163c0 .438.065.831.196 1.18.13.35.324.627.579.832.259.201.577.302.955.302Zm6.685 1.104c-.415 0-.79-.077-1.125-.23a1.897 1.897 0 0 1-.797-.678c-.193-.295-.29-.657-.29-1.086 0-.37.071-.674.213-.912a1.57 1.57 0 0 1 .576-.567 3 3 0 0 1 .809-.316c.299-.07.603-.124.912-.161l.955-.111c.244-.031.422-.081.532-.15.111-.067.167-.178.167-.332v-.03c0-.372-.106-.66-.316-.865-.207-.204-.517-.306-.929-.306-.429 0-.767.095-1.014.285a1.532 1.532 0 0 0-.507.626l-1.197-.272a2.3 2.3 0 0 1 .622-.963 2.51 2.51 0 0 1 .95-.537c.358-.114.734-.17 1.129-.17.262 0 .539.03.831.093.296.06.571.17.827.333.258.161.47.393.635.694.165.298.247.686.247 1.163V99h-1.244v-.895h-.051a1.822 1.822 0 0 1-.371.486 1.977 1.977 0 0 1-.635.396 2.464 2.464 0 0 1-.929.158Zm.277-1.023c.352 0 .653-.07.903-.209.253-.139.445-.32.576-.545.133-.227.2-.47.2-.729v-.843a.673.673 0 0 1-.264.127c-.128.037-.275.07-.439.098l-.482.073-.392.05a3.143 3.143 0 0 0-.677.159 1.16 1.16 0 0 0-.486.32c-.12.135-.179.317-.179.545 0 .315.116.554.349.715.233.16.53.24.891.24Zm4.65.878v-6.546h1.223v1.066h.081c.136-.36.359-.642.669-.844.31-.204.68-.307 1.112-.307.438 0 .804.103 1.1.307a1.8 1.8 0 0 1 .66.844h.068c.157-.35.405-.628.746-.835.341-.21.747-.316 1.219-.316.594 0 1.078.186 1.453.559.378.372.567.933.567 1.683V99h-1.274v-4.27c0-.443-.121-.764-.363-.963a1.315 1.315 0 0 0-.865-.298c-.414 0-.737.128-.967.383-.23.253-.345.578-.345.976V99h-1.27v-4.35c0-.356-.111-.642-.332-.857-.222-.216-.51-.324-.865-.324-.242 0-.465.064-.669.192-.202.124-.366.3-.491.524a1.607 1.607 0 0 0-.183.78V99h-1.274Z" fill="#424242"/></g><g filter="url(#e)"><rect x="122" y="123" width="218" height="54" rx="10.732" fill="#fff"/><rect x="325" y="116" width="21" height="21" rx="10.5" fill="#212121"/><path d="m340.266 124.14-6 6a.378.378 0 0 1-.531 0l-2.625-2.625a.376.376 0 0 1 0-.531.375.375 0 0 1 .531 0l2.359 2.361 5.735-5.736a.375.375 0 0 1 .531.531Z" fill="#fff"/><path d="M130.639 139v-5.818h2.074c.451 0 .825.077 1.122.233.299.155.523.37.671.645.147.272.221.588.221.946 0 .356-.075.669-.224.94a1.51 1.51 0 0 1-.671.628c-.297.149-.671.224-1.122.224h-1.571v-.755h1.492c.284 0 .515-.041.693-.123a.806.806 0 0 0 .395-.355c.083-.155.125-.342.125-.559 0-.22-.043-.41-.128-.571a.829.829 0 0 0-.395-.37c-.178-.087-.412-.13-.702-.13h-1.102V139h-.878Zm2.872-2.625 1.438 2.625h-1l-1.409-2.625h.971Zm2.284 2.625v-5.818h3.648v.756h-2.77v1.772h2.58v.753h-2.58v1.781h2.804V139h-3.682Zm4.821 0v-5.818h2.074c.452 0 .827.082 1.125.247.297.165.52.39.667.676.148.284.222.604.222.96 0 .358-.075.68-.225.966-.147.284-.371.51-.67.676-.297.165-.671.248-1.122.248h-1.426v-.745h1.346c.286 0 .518-.049.696-.148a.92.92 0 0 0 .392-.409c.084-.172.125-.368.125-.588a1.31 1.31 0 0 0-.125-.585.893.893 0 0 0-.395-.4c-.178-.097-.412-.145-.704-.145h-1.102V139h-.878Zm10.171-2.909c0 .621-.114 1.155-.341 1.602a2.505 2.505 0 0 1-.935 1.029 2.545 2.545 0 0 1-1.343.358 2.57 2.57 0 0 1-1.35-.358 2.515 2.515 0 0 1-.932-1.032c-.227-.447-.341-.98-.341-1.599 0-.621.114-1.154.341-1.6.228-.446.538-.789.932-1.028.396-.24.846-.361 1.35-.361.502 0 .949.121 1.343.361.396.239.708.582.935 1.028.227.446.341.979.341 1.6Zm-.869 0c0-.474-.077-.872-.23-1.196a1.681 1.681 0 0 0-.626-.739 1.626 1.626 0 0 0-.894-.253c-.336 0-.635.085-.898.253a1.705 1.705 0 0 0-.625.739c-.152.324-.227.722-.227 1.196 0 .473.075.873.227 1.199.153.324.362.57.625.738.263.167.562.25.898.25.333 0 .631-.083.894-.25.266-.168.474-.414.626-.738.153-.326.23-.726.23-1.199Zm1.963 2.909v-5.818h2.074c.451 0 .825.077 1.122.233.3.155.523.37.671.645.148.272.221.588.221.946 0 .356-.074.669-.224.94a1.514 1.514 0 0 1-.67.628c-.298.149-.672.224-1.123.224h-1.571v-.755h1.492c.284 0 .515-.041.693-.123a.801.801 0 0 0 .395-.355c.083-.155.125-.342.125-.559 0-.22-.043-.41-.128-.571a.829.829 0 0 0-.395-.37c-.178-.087-.412-.13-.701-.13h-1.103V139h-.878Zm2.873-2.625 1.437 2.625h-1l-1.409-2.625h.972Zm1.997-2.437v-.756h4.503v.756h-1.816V139h-.875v-5.062h-1.812Zm5.498 5.062v-5.818h3.647v.756h-2.77v1.772h2.58v.753h-2.58v1.781h2.804V139h-3.681Zm6.703 0h-1.883v-5.818h1.943c.57 0 1.06.116 1.469.349.409.231.722.564.94.997.22.432.33.95.33 1.554 0 .606-.111 1.127-.333 1.563a2.336 2.336 0 0 1-.954 1.006c-.417.233-.921.349-1.512.349Zm-1.005-.767h.957c.443 0 .812-.083 1.105-.25.294-.169.513-.412.659-.73.146-.32.219-.71.219-1.171 0-.456-.073-.843-.219-1.162a1.547 1.547 0 0 0-.645-.724c-.286-.165-.641-.247-1.065-.247h-1.011v4.284Zm12.066-2.142c0 .621-.113 1.155-.34 1.602a2.512 2.512 0 0 1-.935 1.029 2.549 2.549 0 0 1-1.344.358c-.504 0-.953-.12-1.349-.358a2.508 2.508 0 0 1-.932-1.032c-.227-.447-.341-.98-.341-1.599 0-.621.114-1.154.341-1.6a2.49 2.49 0 0 1 .932-1.028 2.55 2.55 0 0 1 1.349-.361c.502 0 .95.121 1.344.361.396.239.707.582.935 1.028.227.446.34.979.34 1.6Zm-.869 0c0-.474-.077-.872-.23-1.196a1.68 1.68 0 0 0-.625-.739 1.627 1.627 0 0 0-.895-.253c-.335 0-.634.085-.898.253a1.712 1.712 0 0 0-.625.739c-.151.324-.227.722-.227 1.196 0 .473.076.873.227 1.199.154.324.362.57.625.738.264.167.563.25.898.25.334 0 .632-.083.895-.25.265-.168.474-.414.625-.738.153-.326.23-.726.23-1.199Zm6.66-2.909V139h-.807l-2.957-4.267h-.054V139h-.878v-5.818h.812l2.961 4.273h.054v-4.273h.869Z" fill="#606060"/><path d="M146.25 151.5h-1.875v-.625a.625.625 0 1 0-1.25 0v.625h-6.25v-.625a.625.625 0 1 0-1.25 0v.625h-1.875a1.252 1.252 0 0 0-1.25 1.25v12.5a1.252 1.252 0 0 0 1.25 1.25h12.5a1.252 1.252 0 0 0 1.25-1.25v-12.5a1.252 1.252 0 0 0-1.25-1.25Zm-10.625 1.25v.625a.625.625 0 1 0 1.25 0v-.625h6.25v.625a.625.625 0 1 0 1.25 0v-.625h1.875v2.5h-12.5v-2.5h1.875Zm10.625 12.5h-12.5v-8.75h12.5v8.75Zm-7.5-6.875v5a.625.625 0 1 1-1.25 0v-3.989l-.345.173a.623.623 0 1 1-.56-1.118l1.25-.625a.623.623 0 0 1 .905.559Zm4.622 2.379-1.497 1.996h1.25a.625.625 0 1 1 0 1.25h-2.5a.627.627 0 0 1-.559-.345.621.621 0 0 1 .059-.655l2.248-2.998a.614.614 0 0 0 .117-.481.623.623 0 0 0-.271-.415.627.627 0 0 0-.885.206.626.626 0 1 1-1.082-.624 1.872 1.872 0 0 1 3.11-.204 1.868 1.868 0 0 1 .01 2.27Z" fill="#9E9E9E"/><path d="M160.151 154.273V163h-1.321v-7.406h-.052l-2.088 1.363v-1.261l2.178-1.423h1.283Zm2.36 8.727v-.955l2.953-3.059c.316-.333.576-.624.78-.874.208-.253.363-.493.465-.72.102-.227.153-.469.153-.724 0-.29-.068-.54-.204-.75a1.338 1.338 0 0 0-.559-.49 1.764 1.764 0 0 0-.796-.175c-.313 0-.586.064-.819.192a1.308 1.308 0 0 0-.537.541 1.703 1.703 0 0 0-.187.818h-1.257c0-.531.122-.996.366-1.393.245-.398.58-.706 1.006-.925a3.1 3.1 0 0 1 1.453-.333c.548 0 1.031.11 1.449.329.42.215.749.511.984.886.236.372.354.793.354 1.261 0 .324-.061.641-.183.951-.119.309-.328.654-.627 1.035-.298.378-.713.837-1.244 1.376l-1.734 1.816v.064h3.929V163h-5.745Zm10.655-8.727h1.598l2.778 6.784h.103l2.778-6.784h1.598V163h-1.253v-6.315h-.081l-2.574 6.302h-1.039l-2.574-6.307h-.081V163h-1.253v-8.727Zm12.572 8.872c-.415 0-.79-.077-1.125-.23a1.892 1.892 0 0 1-.797-.678c-.193-.295-.29-.657-.29-1.086 0-.37.071-.674.213-.912.142-.239.334-.428.576-.567.241-.139.511-.244.809-.315.299-.071.603-.125.912-.162l.955-.111c.244-.031.422-.081.532-.149.111-.069.167-.179.167-.333v-.03c0-.372-.105-.66-.316-.865-.207-.204-.517-.306-.929-.306-.429 0-.767.095-1.014.285-.244.188-.413.396-.507.626l-1.197-.272c.142-.398.349-.719.622-.963.275-.247.592-.426.95-.537a3.697 3.697 0 0 1 1.129-.171c.262 0 .539.032.831.094.296.06.571.171.827.332.258.162.47.394.635.695.165.298.247.686.247 1.163V163h-1.244v-.895h-.051a1.818 1.818 0 0 1-.371.486 1.977 1.977 0 0 1-.635.396 2.466 2.466 0 0 1-.929.158Zm.277-1.023c.352 0 .653-.069.903-.209.253-.139.445-.321.576-.545.133-.227.2-.47.2-.729v-.844a.654.654 0 0 1-.264.128c-.128.037-.274.07-.439.098l-.482.073-.392.051a3.125 3.125 0 0 0-.677.158c-.202.073-.364.18-.486.319-.119.137-.179.318-.179.546 0 .315.116.554.349.716.233.159.53.238.891.238Zm4.65.878v-6.545h1.232v1.039h.068a1.58 1.58 0 0 1 .631-.831 1.806 1.806 0 0 1 1.031-.306 5.063 5.063 0 0 1 .541.029v1.219a2.3 2.3 0 0 0-.273-.047c-.13-.02-.261-.03-.392-.03a1.66 1.66 0 0 0-.805.192 1.425 1.425 0 0 0-.759 1.283V163h-1.274Zm7.128.132c-.633 0-1.179-.143-1.636-.43a2.844 2.844 0 0 1-1.048-1.198c-.245-.508-.367-1.091-.367-1.747 0-.665.125-1.251.375-1.76.25-.511.602-.91 1.057-1.197.455-.287.99-.431 1.607-.431.497 0 .94.093 1.329.277.389.182.703.438.942.767.241.33.385.715.43 1.155h-1.24a1.477 1.477 0 0 0-.469-.792c-.241-.222-.565-.333-.971-.333-.355 0-.666.094-.933.281a1.799 1.799 0 0 0-.618.793c-.148.341-.222.744-.222 1.21 0 .478.073.889.217 1.236.145.347.35.615.614.805.267.191.581.286.942.286.241 0 .46-.044.656-.132.199-.091.365-.22.499-.388.136-.168.231-.369.285-.605h1.24a2.403 2.403 0 0 1-.413 1.133c-.23.333-.538.594-.925.785-.383.19-.834.285-1.351.285Zm5.326-4.018V163h-1.274v-8.727h1.257v3.247h.081c.153-.352.388-.632.703-.84.315-.207.727-.311 1.236-.311.449 0 .841.093 1.176.277.338.185.599.461.784.827.188.364.281.818.281 1.364V163h-1.274v-4.01c0-.48-.123-.852-.371-1.116-.247-.267-.591-.401-1.031-.401-.301 0-.571.064-.81.192a1.391 1.391 0 0 0-.558.562c-.133.245-.2.54-.2.887Zm9.103 3.886v-.955l2.953-3.059c.316-.333.576-.624.78-.874.208-.253.362-.493.465-.72.102-.227.153-.469.153-.724 0-.29-.068-.54-.204-.75a1.338 1.338 0 0 0-.559-.49 1.765 1.765 0 0 0-.797-.175c-.312 0-.585.064-.818.192a1.308 1.308 0 0 0-.537.541 1.703 1.703 0 0 0-.187.818h-1.257c0-.531.122-.996.366-1.393.245-.398.58-.706 1.006-.925.426-.222.91-.333 1.453-.333.548 0 1.031.11 1.449.329.42.215.749.511.984.886.236.372.354.793.354 1.261 0 .324-.061.641-.183.951-.12.309-.328.654-.627 1.035-.298.378-.713.837-1.244 1.376l-1.734 1.816v.064h3.929V163h-5.745Zm10.398.145c-.673-.003-1.249-.181-1.726-.533-.477-.352-.842-.865-1.095-1.538s-.379-1.485-.379-2.433c0-.946.126-1.755.379-2.425.256-.671.622-1.182 1.099-1.534.481-.352 1.054-.529 1.722-.529.668 0 1.24.178 1.717.533.478.352.843.864 1.096 1.534.255.668.383 1.475.383 2.421 0 .951-.126 1.764-.379 2.437-.253.671-.618 1.183-1.095 1.538-.478.353-1.052.529-1.722.529Zm0-1.138c.591 0 1.053-.288 1.385-.865.335-.577.503-1.41.503-2.501 0-.725-.077-1.337-.23-1.837-.151-.503-.368-.884-.652-1.142a1.43 1.43 0 0 0-1.006-.392c-.588 0-1.05.29-1.385.869-.335.58-.504 1.414-.507 2.502 0 .727.075 1.342.226 1.845.153.5.371.879.652 1.138.281.255.619.383 1.014.383Zm4.708.993v-.955l2.953-3.059c.315-.333.575-.624.78-.874.207-.253.362-.493.464-.72a1.75 1.75 0 0 0 .154-.724c0-.29-.069-.54-.205-.75a1.329 1.329 0 0 0-.558-.49 1.77 1.77 0 0 0-.797-.175 1.67 1.67 0 0 0-.818.192 1.308 1.308 0 0 0-.537.541 1.703 1.703 0 0 0-.188.818h-1.257c0-.531.122-.996.367-1.393a2.487 2.487 0 0 1 1.005-.925 3.103 3.103 0 0 1 1.454-.333c.548 0 1.031.11 1.448.329.421.215.749.511.985.886.236.372.353.793.353 1.261 0 .324-.061.641-.183.951-.119.309-.328.654-.626 1.035-.298.378-.713.837-1.245 1.376l-1.734 1.816v.064h3.929V163h-5.744Zm10.397.119c-.585 0-1.107-.101-1.568-.302a2.665 2.665 0 0 1-1.086-.84 2.216 2.216 0 0 1-.426-1.253h1.338c.017.259.103.483.26.674.159.187.366.332.622.434.255.103.539.154.852.154.344 0 .648-.06.912-.179.267-.12.476-.286.626-.499.151-.216.226-.464.226-.746 0-.292-.075-.549-.226-.771a1.47 1.47 0 0 0-.652-.528c-.284-.128-.628-.192-1.031-.192h-.737v-1.074h.737c.324 0 .608-.058.852-.175.248-.116.441-.278.58-.485.139-.211.209-.456.209-.738 0-.269-.061-.504-.184-.703a1.232 1.232 0 0 0-.511-.473 1.668 1.668 0 0 0-.775-.17c-.285 0-.55.052-.797.158-.245.102-.444.25-.597.443-.153.19-.236.419-.247.686h-1.274c.014-.472.153-.887.417-1.245.267-.358.62-.637 1.057-.839a3.437 3.437 0 0 1 1.458-.303c.559 0 1.042.11 1.448.329.41.215.725.504.946.865.225.36.336.755.333 1.184.003.489-.134.904-.409 1.245-.273.34-.637.569-1.091.686v.068c.579.088 1.028.318 1.346.69.321.372.481.834.478 1.385.003.48-.131.911-.401 1.291a2.718 2.718 0 0 1-1.095.899c-.463.216-.993.324-1.59.324Zm6.113-1.312-.063.464a7.594 7.594 0 0 1-.218 1.066 16.1 16.1 0 0 1-.311 1.035c-.105.318-.192.571-.26.759h-.903l.153-.716c.065-.299.129-.632.192-1.002.062-.369.109-.745.141-1.129l.042-.477h1.227Zm10.051 2.309c-.881 0-1.662-.12-2.344-.362a4.513 4.513 0 0 1-1.717-1.052 4.545 4.545 0 0 1-1.061-1.709c-.242-.673-.363-1.442-.363-2.305 0-.841.123-1.597.367-2.268a4.68 4.68 0 0 1 1.065-1.713 4.658 4.658 0 0 1 1.709-1.086c.671-.25 1.432-.375 2.284-.375.816 0 1.534.128 2.156.383a4.478 4.478 0 0 1 1.569 1.053c.426.446.747.957.963 1.534a5.17 5.17 0 0 1 .324 1.828c0 .449-.029.888-.086 1.317a4.223 4.223 0 0 1-.315 1.159 1.98 1.98 0 0 1-.656.827c-.284.204-.654.311-1.108.319a2.235 2.235 0 0 1-.703-.085 1.425 1.425 0 0 1-.58-.315.935.935 0 0 1-.29-.563h-.051a1.3 1.3 0 0 1-.341.469 1.764 1.764 0 0 1-.609.341 2.353 2.353 0 0 1-.852.102 2.28 2.28 0 0 1-.968-.243 2.225 2.225 0 0 1-.737-.613 2.862 2.862 0 0 1-.464-.929 4.125 4.125 0 0 1-.162-1.194c0-.42.061-.797.183-1.129.122-.335.288-.623.498-.865a2.51 2.51 0 0 1 1.607-.848 2.59 2.59 0 0 1 .822.026c.25.051.458.129.623.234.167.105.272.22.315.345h.055v-.477h1.049v3.954a.93.93 0 0 0 .174.571.6.6 0 0 0 .507.235.717.717 0 0 0 .606-.286c.147-.19.251-.483.311-.878.062-.394.093-.9.093-1.517 0-.431-.058-.838-.174-1.218a3.423 3.423 0 0 0-1.326-1.845 3.796 3.796 0 0 0-1.108-.52 4.759 4.759 0 0 0-1.367-.184c-.679 0-1.283.105-1.812.316a3.58 3.58 0 0 0-1.338.899c-.36.392-.635.862-.822 1.41-.185.546-.277 1.158-.277 1.837 0 .707.095 1.335.286 1.884.19.545.471 1.005.843 1.38a3.64 3.64 0 0 0 1.381.857c.548.193 1.18.29 1.896.29.318 0 .631-.029.938-.086a8.194 8.194 0 0 0 1.359-.353l.298.933c-.176.082-.41.163-.703.243a8.191 8.191 0 0 1-.946.196 6.704 6.704 0 0 1-1.001.076Zm-.392-3.545c.369 0 .666-.074.89-.222.228-.147.391-.367.49-.66.103-.296.154-.665.154-1.108-.003-.432-.058-.776-.166-1.031a1.013 1.013 0 0 0-.495-.554c-.221-.114-.507-.171-.856-.171-.321 0-.595.078-.823.235a1.499 1.499 0 0 0-.515.635 2.248 2.248 0 0 0-.179.89c.003.344.051.668.145.972.096.301.253.545.468.733.219.187.515.281.887.281Zm13.259-6.298V163h-1.321v-7.406h-.051l-2.088 1.363v-1.261l2.177-1.423h1.283Zm2.361 8.727v-.955l2.953-3.059c.315-.333.575-.624.78-.874.207-.253.362-.493.464-.72.103-.227.154-.469.154-.724 0-.29-.068-.54-.205-.75a1.329 1.329 0 0 0-.558-.49 1.77 1.77 0 0 0-.797-.175c-.312 0-.585.064-.818.192a1.308 1.308 0 0 0-.537.541 1.703 1.703 0 0 0-.188.818h-1.257c0-.531.122-.996.367-1.393a2.487 2.487 0 0 1 1.005-.925 3.103 3.103 0 0 1 1.454-.333c.548 0 1.031.11 1.448.329.421.215.749.511.985.886.236.372.354.793.354 1.261 0 .324-.062.641-.184.951-.119.309-.328.654-.626 1.035-.298.378-.713.837-1.244 1.376l-1.735 1.816v.064h3.929V163h-5.744Zm8.216-1.082a.828.828 0 0 1-.601-.248.822.822 0 0 1-.252-.605c0-.233.084-.431.252-.596a.82.82 0 0 1 .601-.252.82.82 0 0 1 .601.252.807.807 0 0 1 .251.596c0 .157-.04.3-.119.431a.885.885 0 0 1-.307.307.82.82 0 0 1-.426.115Zm0-4.373a.827.827 0 0 1-.601-.247.822.822 0 0 1-.252-.605c0-.233.084-.432.252-.596a.82.82 0 0 1 .601-.252.82.82 0 0 1 .601.252.805.805 0 0 1 .251.596c0 .156-.04.3-.119.431a.882.882 0 0 1-.307.306.81.81 0 0 1-.426.115Zm5.58 5.574c-.585 0-1.108-.101-1.568-.302a2.661 2.661 0 0 1-1.087-.84 2.23 2.23 0 0 1-.426-1.253h1.338c.017.259.104.483.26.674.159.187.367.332.622.434.256.103.54.154.852.154.344 0 .648-.06.912-.179.267-.12.476-.286.627-.499.15-.216.226-.464.226-.746 0-.292-.076-.549-.226-.771a1.475 1.475 0 0 0-.652-.528c-.284-.128-.628-.192-1.031-.192h-.738v-1.074h.738c.323 0 .608-.058.852-.175.247-.116.44-.278.579-.485a1.3 1.3 0 0 0 .209-.738 1.32 1.32 0 0 0-.183-.703 1.239 1.239 0 0 0-.511-.473 1.672 1.672 0 0 0-.776-.17 2 2 0 0 0-.797.158c-.244.102-.443.25-.596.443a1.14 1.14 0 0 0-.248.686h-1.274c.014-.472.154-.887.418-1.245a2.698 2.698 0 0 1 1.057-.839 3.432 3.432 0 0 1 1.457-.303c.56 0 1.043.11 1.449.329.409.215.724.504.946.865.224.36.335.755.332 1.184.003.489-.133.904-.409 1.245-.272.34-.636.569-1.091.686v.068c.58.088 1.029.318 1.347.69.321.372.48.834.477 1.385.003.48-.13.911-.4 1.291a2.714 2.714 0 0 1-1.096.899c-.463.216-.992.324-1.589.324Zm7.577 0a3.283 3.283 0 0 1-1.441-.307 2.615 2.615 0 0 1-1.014-.852 2.247 2.247 0 0 1-.405-1.236h1.279c.031.375.197.684.498.925.301.242.662.362 1.083.362.335 0 .632-.076.89-.23.262-.156.466-.37.614-.643.151-.273.226-.584.226-.933 0-.356-.077-.672-.23-.951a1.704 1.704 0 0 0-.635-.656 1.797 1.797 0 0 0-.921-.243c-.264 0-.53.046-.797.136a1.855 1.855 0 0 0-.647.358l-1.206-.179.49-4.397h4.798v1.129h-3.703l-.277 2.442h.051c.171-.165.396-.303.678-.414.284-.11.588-.166.912-.166a2.68 2.68 0 0 1 1.419.379c.417.253.745.598.984 1.036.241.435.361.935.358 1.5a2.912 2.912 0 0 1-.384 1.513c-.255.443-.61.792-1.065 1.048-.452.253-.97.379-1.555.379Zm7.856-.119v-8.727h3.11c.679 0 1.242.123 1.688.37.446.248.78.586 1.001 1.015.222.426.333.906.333 1.44 0 .537-.113 1.02-.337 1.449a2.438 2.438 0 0 1-1.006 1.014c-.446.247-1.007.371-1.683.371h-2.139v-1.117h2.02c.429 0 .777-.074 1.044-.221.267-.151.463-.355.588-.614.125-.258.187-.552.187-.882 0-.33-.062-.622-.187-.878a1.348 1.348 0 0 0-.592-.601c-.268-.145-.62-.217-1.057-.217h-1.654V163h-1.316Zm7.675-8.727h1.598l2.779 6.784h.102l2.778-6.784h1.598V163h-1.252v-6.315h-.081l-2.574 6.302h-1.04l-2.574-6.307h-.081V163h-1.253v-8.727Z" fill="#424242"/></g></g><defs><filter id="a" x="-23.361" y="-3.222" width="379.833" height="259.028" filterUnits="userSpaceOnUse" color-interpolation-filters="sRGB"><feFlood flood-opacity="0" result="BackgroundImageFix"/><feColorMatrix in="SourceAlpha" values="0 0 0 0 0 0 0 0 0 0 0 0 0 0 0 0 0 0 127 0" result="hardAlpha"/><feOffset/><feColorMatrix values="0 0 0 0 0 0 0 0 0 0 0 0 0 0 0 0 0 0 0.06 0"/><feBlend in2="BackgroundImageFix" result="effect1_dropShadow_1868_39549"/><feColorMatrix in="SourceAlpha" values="0 0 0 0 0 0 0 0 0 0 0 0 0 0 0 0 0 0 127 0" result="hardAlpha"/><feOffset dy="2.417"/><feGaussianBlur stdDeviation="2.819"/><feColorMatrix values="0 0 0 0 0 0 0 0 0 0 0 0 0 0 0 0 0 0 0.06 0"/><feBlend in2="effect1_dropShadow_1868_39549" result="effect2_dropShadow_1868_39549"/><feColorMatrix in="SourceAlpha" values="0 0 0 0 0 0 0 0 0 0 0 0 0 0 0 0 0 0 127 0" result="hardAlpha"/><feOffset dx="-1.611" dy="10.472"/><feGaussianBlur stdDeviation="5.236"/><feColorMatrix values="0 0 0 0 0 0 0 0 0 0 0 0 0 0 0 0 0 0 0.05 0"/><feBlend in2="effect2_dropShadow_1868_39549" result="effect3_dropShadow_1868_39549"/><feColorMatrix in="SourceAlpha" values="0 0 0 0 0 0 0 0 0 0 0 0 0 0 0 0 0 0 127 0" result="hardAlpha"/><feOffset dx="-6.444" dy="41.889"/><feGaussianBlur stdDeviation="8.458"/><feColorMatrix values="0 0 0 0 0 0 0 0 0 0 0 0 0 0 0 0 0 0 0.01 0"/><feBlend in2="effect3_dropShadow_1868_39549" result="effect4_dropShadow_1868_39549"/><feBlend in="SourceGraphic" in2="effect4_dropShadow_1868_39549" result="shape"/></filter><filter id="c" x="4.548" y="113.317" width="121.843" height="132.649" filterUnits="userSpaceOnUse" color-interpolation-filters="sRGB"><feFlood flood-opacity="0" result="BackgroundImageFix"/><feColorMatrix in="SourceAlpha" values="0 0 0 0 0 0 0 0 0 0 0 0 0 0 0 0 0 0 127 0" result="hardAlpha"/><feOffset/><feColorMatrix values="0 0 0 0 0 0 0 0 0 0 0 0 0 0 0 0 0 0 0.06 0"/><feBlend in2="BackgroundImageFix" result="effect1_dropShadow_1868_39549"/><feColorMatrix in="SourceAlpha" values="0 0 0 0 0 0 0 0 0 0 0 0 0 0 0 0 0 0 127 0" result="hardAlpha"/><feOffset dy="2.012"/><feGaussianBlur stdDeviation="2.348"/><feColorMatrix values="0 0 0 0 0 0 0 0 0 0 0 0 0 0 0 0 0 0 0.06 0"/><feBlend in2="effect1_dropShadow_1868_39549" result="effect2_dropShadow_1868_39549"/><feColorMatrix in="SourceAlpha" values="0 0 0 0 0 0 0 0 0 0 0 0 0 0 0 0 0 0 127 0" result="hardAlpha"/><feOffset dx="-1.342" dy="8.72"/><feGaussianBlur stdDeviation="4.36"/><feColorMatrix values="0 0 0 0 0 0 0 0 0 0 0 0 0 0 0 0 0 0 0.05 0"/><feBlend in2="effect2_dropShadow_1868_39549" result="effect3_dropShadow_1868_39549"/><feColorMatrix in="SourceAlpha" values="0 0 0 0 0 0 0 0 0 0 0 0 0 0 0 0 0 0 127 0" result="hardAlpha"/><feOffset dx="-2.683" dy="20.123"/><feGaussianBlur stdDeviation="6.037"/><feColorMatrix values="0 0 0 0 0 0 0 0 0 0 0 0 0 0 0 0 0 0 0.03 0"/><feBlend in2="effect3_dropShadow_1868_39549" result="effect4_dropShadow_1868_39549"/><feColorMatrix in="SourceAlpha" values="0 0 0 0 0 0 0 0 0 0 0 0 0 0 0 0 0 0 127 0" result="hardAlpha"/><feOffset dx="-5.366" dy="34.88"/><feGaussianBlur stdDeviation="7.043"/><feColorMatrix values="0 0 0 0 0 0 0 0 0 0 0 0 0 0 0 0 0 0 0.01 0"/><feBlend in2="effect4_dropShadow_1868_39549" result="effect5_dropShadow_1868_39549"/><feBlend in="SourceGraphic" in2="effect5_dropShadow_1868_39549" result="shape"/></filter><filter id="d" x="119" y="50.7" width="230" height="67" filterUnits="userSpaceOnUse" color-interpolation-filters="sRGB"><feFlood flood-opacity="0" result="BackgroundImageFix"/><feColorMatrix in="SourceAlpha" values="0 0 0 0 0 0 0 0 0 0 0 0 0 0 0 0 0 0 127 0" result="hardAlpha"/><feOffset dy="1.7"/><feGaussianBlur stdDeviation="1.5"/><feColorMatrix values="0 0 0 0 0 0 0 0 0 0 0 0 0 0 0 0 0 0 0.06 0"/><feBlend in2="BackgroundImageFix" result="effect1_dropShadow_1868_39549"/><feBlend in="SourceGraphic" in2="effect1_dropShadow_1868_39549" result="shape"/></filter><filter id="e" x="119" y="114.7" width="230" height="67" filterUnits="userSpaceOnUse" color-interpolation-filters="sRGB"><feFlood flood-opacity="0" result="BackgroundImageFix"/><feColorMatrix in="SourceAlpha" values="0 0 0 0 0 0 0 0 0 0 0 0 0 0 0 0 0 0 127 0" result="hardAlpha"/><feOffset dy="1.7"/><feGaussianBlur stdDeviation="1.5"/><feColorMatrix values="0 0 0 0 0 0 0 0 0 0 0 0 0 0 0 0 0 0 0.06 0"/><feBlend in2="BackgroundImageFix" result="effect1_dropShadow_1868_39549"/><feBlend in="SourceGraphic" in2="effect1_dropShadow_1868_39549" result="shape"/></filter><clipPath id="b"><path fill="#fff" d="M0 0h352v168H0z"/></clipPath></defs></svg>