<svg
                    xmlns="http://www.w3.org/2000/svg"
                    width="11"
                    height="11"
                    viewBox="0 0 11 11"
                    fill="none"
                    className="hover:cursor-pointer"
                  >
                    <path
                      d="M5.85403 5.85403L0.854028 10.854C0.760208 10.9478 0.63296 11.0006 0.500278 11.0006C0.367596 11.0006 0.240348 10.9478 0.146528 10.854C0.0527077 10.7602 2.61548e-09 10.633 0 10.5003C-2.61548e-09 10.3676 0.0527077 10.2403 0.146528 10.1465L4.7934 5.50028L0.146528 0.854028C0.0527077 0.760208 0 0.63296 0 0.500278C0 0.367596 0.0527077 0.240348 0.146528 0.146528C0.240348 0.0527077 0.367596 0 0.500278 0C0.63296 0 0.760208 0.0527077 0.854028 0.146528L5.85403 5.14653C5.90052 5.19296 5.9374 5.24811 5.96256 5.30881C5.98772 5.36951 6.00067 5.43457 6.00067 5.50028C6.00067 5.56599 5.98772 5.63105 5.96256 5.69175C5.9374 5.75245 5.90052 5.80759 5.85403 5.85403ZM10.854 5.14653L5.85403 0.146528C5.76021 0.0527077 5.63296 0 5.50028 0C5.3676 0 5.24035 0.0527077 5.14653 0.146528C5.05271 0.240348 5 0.367596 5 0.500278C5 0.63296 5.05271 0.760208 5.14653 0.854028L9.7934 5.50028L5.14653 10.1465C5.05271 10.2403 5 10.3676 5 10.5003C5 10.633 5.05271 10.7602 5.14653 10.854C5.24035 10.9478 5.3676 11.0006 5.50028 11.0006C5.63296 11.0006 5.76021 10.9478 5.85403 10.854L10.854 5.85403C10.9005 5.80759 10.9374 5.75245 10.9626 5.69175C10.9877 5.63105 11.0007 5.56599 11.0007 5.50028C11.0007 5.43457 10.9877 5.36951 10.9626 5.30881C10.9374 5.24811 10.9005 5.19296 10.854 5.14653Z"
                      fill="#747474"
                    />
                  </svg>