<svg width="200" height="214" viewBox="0 0 200 214" fill="none" xmlns="http://www.w3.org/2000/svg">
<rect width="200" height="214" fill="white"/>
<g clip-path="url(#clip0_1666_40475)">
<path d="M126.27 119.358L123.473 120.98L126.599 149.384C126.634 149.707 126.575 150.033 126.427 150.322C126.28 150.611 126.051 150.851 125.769 151.012L115.79 156.71V159.156C115.823 159.158 116.081 159.164 116.448 158.935C116.98 158.602 117.717 158.161 117.75 158.14C117.751 158.139 117.753 158.139 117.753 158.139L128.462 151.938C128.88 151.696 129.218 151.338 129.435 150.907C129.652 150.476 129.739 149.991 129.684 149.511L126.27 119.358Z" fill="#474747" stroke="#474747" stroke-width="0.906706" stroke-miterlimit="10" stroke-linecap="round" stroke-linejoin="round"/>
<path d="M123.473 120.98L102.145 108.756L102.143 108.734L104.942 107.135L126.27 119.358L123.473 120.98Z" fill="white" stroke="#474747" stroke-width="0.906706" stroke-miterlimit="10" stroke-linecap="round" stroke-linejoin="round"/>
<path d="M115.842 159.155C115.642 159.165 115.444 159.118 115.27 159.02L96.0049 148.065C95.4946 147.797 95.3234 147.408 95.3071 146.998C95.2954 146.691 95.2954 144.715 95.2954 144.715L95.2966 144.713C95.3094 145.059 95.5645 145.387 96.0049 145.619L115.27 156.574C115.429 156.663 115.608 156.71 115.79 156.71L115.842 159.155Z" fill="#C3D9DF" stroke="#474747" stroke-width="0.906706" stroke-miterlimit="10" stroke-linecap="round" stroke-linejoin="round"/>
<path d="M123.473 120.98L102.145 108.756L105.25 136.186C105.321 136.819 105.206 137.46 104.917 138.029C104.628 138.597 104.178 139.068 103.624 139.384L96.1496 143.637C94.9782 144.248 95.0899 145.137 96.0049 145.618L115.27 156.573C115.429 156.663 115.608 156.71 115.79 156.71C115.972 156.709 116.151 156.661 116.308 156.57L125.841 150.966C126.475 150.595 126.698 149.905 126.609 149.177L123.473 120.98Z" fill="white" stroke="#474747" stroke-width="0.906706" stroke-miterlimit="10" stroke-linecap="round" stroke-linejoin="round"/>
<path d="M177.819 75.9136C178.248 76.6162 178.475 77.4243 178.473 78.2479L178.291 154.137C178.29 154.525 178.125 154.855 177.873 155.083C177.513 155.409 172.789 158 172.053 158.403C172.414 158.184 172.669 157.791 172.669 157.31L172.851 81.4205C172.853 80.6355 172.648 79.8639 172.256 79.1838L177.819 75.9136Z" fill="#474747" stroke="#474747" stroke-width="0.906706" stroke-miterlimit="10" stroke-linecap="round" stroke-linejoin="round"/>
<path d="M172.256 79.1839C171.864 78.5038 171.299 77.9393 170.619 77.5478L63.0643 15.5984C62.653 15.3616 62.1965 15.3623 61.8168 15.529C61.8168 15.529 66.9237 12.6178 67.362 12.3928C67.7559 12.1907 68.2463 12.1733 68.6853 12.426L176.241 74.376C176.887 74.7484 177.43 75.2771 177.819 75.9138L172.256 79.1839Z" fill="white" stroke="#474747" stroke-width="0.906706" stroke-miterlimit="10" stroke-linecap="round" stroke-linejoin="round"/>
<path d="M172.67 157.309C172.667 158.297 171.597 158.912 170.743 158.417L63.7593 96.466C62.9973 96.0266 62.364 95.3948 61.9227 94.6339C61.4813 93.873 61.2475 93.0096 61.2444 92.13L60.9849 16.8046C60.9811 15.7353 62.1377 15.0642 63.0643 15.5978L170.619 77.5475C171.299 77.9393 171.864 78.5037 172.256 79.1838C172.648 79.8638 172.853 80.6352 172.851 81.4201L172.67 157.309Z" fill="white" stroke="#474747" stroke-width="0.906706" stroke-miterlimit="10" stroke-linecap="round" stroke-linejoin="round"/>
<path d="M176.421 108.538L175.141 109.264L175.084 96.7494L176.421 95.9312V108.538ZM176.59 111.333V118.069C176.59 118.133 176.573 118.196 176.54 118.252C176.508 118.308 176.461 118.354 176.405 118.385L175.849 118.701C175.607 118.838 175.307 118.664 175.305 118.386L175.253 111.707C175.253 111.645 175.269 111.583 175.299 111.528C175.33 111.473 175.374 111.427 175.428 111.394L176.036 111.022C176.278 110.874 176.59 111.049 176.59 111.333Z" fill="#474747" stroke="white" stroke-width="0.906706" stroke-miterlimit="10" stroke-linecap="round" stroke-linejoin="round"/>
</g>
<g clip-path="url(#clip1_1666_40475)">
<path d="M97.9311 195.696C96.7618 195.677 95.6167 195.36 94.6052 194.774L31.6152 158.267C31.1457 157.995 30.8786 157.549 30.8111 157.079C30.7342 156.544 30.7815 155.186 30.7976 154.798C30.8314 155.314 31.1039 155.815 31.6152 156.112L94.6054 192.619C95.6169 193.205 96.7621 193.522 97.9315 193.541L97.9311 195.696Z" fill="white"/>
<path d="M97.9311 195.83H97.929C96.7367 195.811 95.5693 195.487 94.5375 194.89L31.5475 158.383C31.3142 158.249 31.1146 158.064 30.9638 157.841C30.8131 157.618 30.7152 157.364 30.6776 157.098C30.5958 156.529 30.651 155.078 30.663 154.793C30.6645 154.758 30.6791 154.726 30.7038 154.702C30.7286 154.678 30.7617 154.664 30.7962 154.664C30.8721 154.664 30.9278 154.718 30.9324 154.79C30.9656 155.299 31.2392 155.738 31.6829 155.995L94.6731 192.502C95.6651 193.076 96.7875 193.387 97.9337 193.406C97.9691 193.406 98.0029 193.421 98.0277 193.446C98.0525 193.471 98.0665 193.505 98.0665 193.54L98.066 195.696C98.0661 195.713 98.0626 195.731 98.0559 195.747C98.0491 195.764 98.0392 195.779 98.0267 195.791C98.0141 195.804 97.9992 195.813 97.9828 195.82C97.9664 195.827 97.9489 195.83 97.9311 195.83ZM30.9081 155.603C30.8983 156.12 30.8987 156.741 30.9447 157.06C30.9766 157.286 31.0597 157.501 31.1876 157.69C31.3155 157.879 31.4849 158.037 31.6829 158.15L94.6731 194.657C95.6248 195.208 96.6971 195.517 97.7962 195.557L97.7966 193.672C96.6498 193.631 95.5306 193.309 94.5377 192.735L31.5475 156.228C31.2768 156.071 31.0599 155.857 30.9081 155.603Z" fill="#474747"/>
<path d="M97.9316 193.541C99.1716 193.561 100.394 193.243 101.467 192.623L127.564 177.54C128.102 177.227 128.395 176.703 128.439 176.16C128.442 176.687 128.446 177.731 128.446 178.166C128.446 178.76 128.152 179.354 127.564 179.695L101.467 194.778C100.394 195.399 99.1713 195.716 97.9312 195.696L97.9316 193.541Z" fill="#474747"/>
<path d="M98.0402 195.831C98.0032 195.831 97.9662 195.831 97.9291 195.831C97.8937 195.83 97.86 195.816 97.8351 195.79C97.8103 195.765 97.7964 195.731 97.7964 195.696L97.7968 193.541C97.7967 193.523 97.8003 193.505 97.8072 193.488C97.814 193.472 97.8242 193.457 97.8369 193.444C97.8497 193.432 97.8649 193.422 97.8815 193.415C97.8981 193.409 97.9159 193.406 97.9339 193.406C99.1494 193.425 100.347 193.114 101.399 192.506L127.496 177.423C127.966 177.15 128.261 176.686 128.305 176.149C128.307 176.115 128.323 176.084 128.348 176.061C128.373 176.038 128.405 176.025 128.439 176.025H128.444C128.479 176.027 128.512 176.041 128.536 176.066C128.56 176.091 128.574 176.125 128.574 176.159C128.577 176.686 128.581 177.731 128.581 178.166C128.581 178.852 128.226 179.467 127.631 179.811L101.535 194.894C100.473 195.508 99.2673 195.831 98.0403 195.831L98.0402 195.831ZM98.0665 193.676L98.0661 195.562C99.2368 195.558 100.386 195.247 101.399 194.661L127.496 179.578C128.006 179.283 128.311 178.755 128.311 178.166C128.311 177.91 128.309 177.445 128.308 176.998C128.146 177.265 127.916 177.491 127.631 177.656L101.534 192.739C100.48 193.348 99.2846 193.671 98.0665 193.676V193.676Z" fill="#474747"/>
<path d="M128.439 176.16C128.438 175.997 128.438 175.884 128.438 175.853C128.449 175.955 128.449 176.058 128.439 176.16Z" fill="white"/>
<path d="M128.439 176.295H128.434C128.399 176.293 128.366 176.279 128.342 176.254C128.318 176.229 128.304 176.196 128.304 176.161C128.303 175.998 128.303 175.884 128.303 175.853C128.303 175.818 128.316 175.785 128.34 175.76C128.364 175.735 128.396 175.72 128.431 175.718C128.465 175.716 128.499 175.728 128.526 175.75C128.552 175.773 128.569 175.805 128.572 175.839C128.583 175.947 128.584 176.06 128.573 176.172C128.57 176.206 128.555 176.237 128.53 176.26C128.505 176.282 128.473 176.295 128.439 176.295Z" fill="#474747"/>
<path d="M94.6059 192.618L31.6155 156.111C30.5184 155.475 30.5203 153.893 31.6189 153.26L57.8242 138.155C58.8873 137.542 60.0935 137.22 61.3211 137.221C62.5486 137.222 63.7542 137.546 64.8162 138.161L127.564 174.483C128.74 175.163 128.74 176.859 127.563 177.539L101.466 192.623C100.424 193.225 99.2403 193.542 98.0357 193.542C96.831 193.541 95.6479 193.222 94.6059 192.619V192.618Z" fill="white"/>
<path d="M98.0396 193.674C96.81 193.675 95.602 193.351 94.5382 192.735L31.5478 156.228C30.9905 155.905 30.6581 155.328 30.6589 154.685C30.6597 154.041 30.9934 153.465 31.5514 153.143L57.7567 138.038C59.9558 136.77 62.6869 136.773 64.8839 138.044L127.632 174.366C128.226 174.71 128.581 175.325 128.581 176.011C128.58 176.697 128.225 177.312 127.631 177.656L101.534 192.739C100.472 193.352 99.2664 193.675 98.0396 193.674V193.674ZM61.3146 137.358C60.1131 137.357 58.9326 137.672 57.8916 138.271L31.6863 153.377C31.2125 153.65 30.9294 154.139 30.9288 154.685C30.9281 155.231 31.2102 155.721 31.6833 155.995L94.6736 192.502C96.7467 193.704 99.3238 193.705 101.399 192.506L127.496 177.423C128.006 177.128 128.311 176.6 128.311 176.011C128.311 175.422 128.007 174.895 127.496 174.599L64.7484 138.277C63.7049 137.674 62.5203 137.357 61.3146 137.358Z" fill="#474747"/>
<path d="M105.115 184.137L97.3954 179.541C97.2723 179.468 97.1675 179.369 97.0888 179.25C97.0102 179.131 96.9598 178.996 96.9417 178.855C96.8938 178.492 96.9418 178.065 96.9418 178.065L100.426 176.233C100.847 176 101.32 175.879 101.801 175.882C102.281 175.885 102.753 176.012 103.17 176.251L111.568 180.901C111.568 180.901 111.619 181.369 111.579 181.727C111.563 181.873 111.514 182.014 111.434 182.137C111.355 182.261 111.248 182.364 111.122 182.44L108.338 184.125C107.853 184.419 107.296 184.575 106.728 184.577C106.16 184.579 105.602 184.427 105.114 184.137H105.115Z" fill="white"/>
<path d="M106.717 184.713C106.128 184.713 105.551 184.554 105.045 184.253L97.3263 179.656C97.1859 179.574 97.0663 179.46 96.9764 179.324C96.8866 179.188 96.8289 179.034 96.8078 178.872C96.7585 178.497 96.8057 178.068 96.8078 178.05C96.8103 178.028 96.8181 178.007 96.8305 177.989C96.8429 177.971 96.8596 177.956 96.8791 177.946L100.364 176.114C101.251 175.622 102.354 175.629 103.238 176.134L111.633 180.784C111.672 180.805 111.697 180.843 111.702 180.887C111.704 180.907 111.754 181.373 111.713 181.742C111.695 181.909 111.638 182.069 111.548 182.21C111.458 182.351 111.336 182.469 111.192 182.555L108.408 184.24C107.898 184.55 107.313 184.713 106.717 184.714V184.713ZM97.0696 178.15C97.0588 178.283 97.0415 178.58 97.0754 178.837C97.0912 178.958 97.1345 179.074 97.2019 179.176C97.2694 179.278 97.3591 179.363 97.4644 179.425L105.184 184.021C105.65 184.3 106.184 184.446 106.728 184.444C107.271 184.442 107.804 184.292 108.268 184.01L111.052 182.325C111.16 182.26 111.252 182.171 111.32 182.065C111.388 181.959 111.431 181.838 111.445 181.713C111.474 181.452 111.452 181.125 111.44 180.985L103.105 176.369C102.301 175.909 101.301 175.903 100.492 176.352L97.0697 178.151L97.0696 178.15Z" fill="#474747"/>
<path d="M105.115 183.598L97.3954 179.002C96.7686 178.629 96.7825 177.718 97.4202 177.364L100.427 175.695C100.847 175.462 101.32 175.341 101.801 175.344C102.282 175.347 102.753 175.474 103.171 175.712L111.102 180.248C111.737 180.611 111.748 181.522 111.122 181.901L108.338 183.586C107.853 183.88 107.296 184.037 106.728 184.039C106.16 184.041 105.602 183.888 105.115 183.598L105.115 183.598Z" fill="white"/>
<path d="M106.717 184.175C106.128 184.175 105.551 184.015 105.046 183.714L97.3263 179.118C97.1623 179.021 97.0269 178.883 96.9342 178.717C96.8414 178.551 96.7946 178.364 96.7986 178.174C96.8003 177.984 96.8528 177.798 96.9505 177.635C97.0482 177.472 97.1877 177.337 97.3545 177.246L100.361 175.577C101.251 175.083 102.354 175.09 103.237 175.596L111.168 180.131C111.508 180.326 111.715 180.676 111.719 181.067C111.724 181.458 111.527 181.813 111.192 182.016L108.408 183.701C107.898 184.011 107.313 184.174 106.717 184.175H106.717ZM101.783 175.48C101.331 175.48 100.887 175.594 100.492 175.813L97.4859 177.481C97.3607 177.55 97.256 177.651 97.1826 177.773C97.1093 177.895 97.0699 178.035 97.0685 178.178C97.0655 178.32 97.1006 178.461 97.1702 178.586C97.2399 178.71 97.3415 178.814 97.4646 178.886L105.184 183.482C105.65 183.761 106.184 183.907 106.728 183.905C107.271 183.903 107.804 183.753 108.269 183.471L111.052 181.786C111.305 181.633 111.454 181.365 111.45 181.07C111.446 180.775 111.291 180.511 111.035 180.365L103.104 175.829C102.701 175.6 102.246 175.48 101.783 175.48H101.783Z" fill="#474747"/>
<path d="M55.3915 155.294L47.6723 150.698C47.5493 150.626 47.4444 150.527 47.3658 150.408C47.2872 150.289 47.2368 150.154 47.2186 150.012C47.1707 149.649 47.2188 149.223 47.2188 149.223L50.7035 147.391C51.1236 147.158 51.597 147.037 52.0777 147.04C52.5584 147.043 53.0302 147.17 53.4474 147.409L61.8449 152.059C61.8449 152.059 61.8956 152.526 61.8557 152.885C61.84 153.031 61.7905 153.171 61.7113 153.295C61.632 153.418 61.5251 153.522 61.3989 153.597L58.6152 155.283C58.1295 155.577 57.5729 155.733 57.0049 155.735C56.437 155.737 55.8793 155.585 55.3915 155.294Z" fill="white"/>
<path d="M56.9937 155.871C56.4163 155.871 55.8387 155.717 55.3226 155.41L47.6034 150.814C47.463 150.731 47.3434 150.617 47.2536 150.481C47.1638 150.346 47.1061 150.191 47.085 150.03C47.0355 149.655 47.0827 149.226 47.0848 149.207C47.0872 149.186 47.095 149.165 47.1074 149.147C47.1198 149.128 47.1365 149.114 47.156 149.103L50.6407 147.272C51.5284 146.779 52.6305 146.786 53.5145 147.292L61.9104 151.941C61.9487 151.962 61.9744 152.001 61.9791 152.044C61.9812 152.064 62.031 152.531 61.9899 152.9C61.9718 153.066 61.9153 153.226 61.8249 153.367C61.7346 153.508 61.6127 153.626 61.469 153.712L58.6851 155.398C58.1753 155.707 57.5902 155.871 56.9935 155.871L56.9937 155.871ZM55.4607 155.178C55.9272 155.457 56.461 155.603 57.0046 155.601C57.5482 155.599 58.0809 155.449 58.5454 155.167L61.3292 153.482C61.4376 153.417 61.5294 153.328 61.5975 153.222C61.6656 153.116 61.7082 152.995 61.7218 152.87C61.7508 152.609 61.7292 152.282 61.7174 152.142L53.3822 147.526C52.5782 147.066 51.5775 147.06 50.7694 147.509L47.3468 149.308C47.336 149.44 47.3187 149.737 47.3527 149.994C47.3685 150.115 47.4118 150.231 47.4792 150.333C47.5466 150.435 47.6363 150.52 47.7416 150.582L55.4607 155.178Z" fill="#474747"/>
<path d="M55.3915 154.755L47.6723 150.159C47.0456 149.786 47.0594 148.875 47.6972 148.521L50.7036 146.852C51.1238 146.618 51.5971 146.497 52.0779 146.501C52.5586 146.504 53.0304 146.631 53.4475 146.869L61.3785 151.405C62.0138 151.768 62.0251 152.679 61.3991 153.058L58.6154 154.743C58.1298 155.037 57.5731 155.193 57.0052 155.195C56.4372 155.198 55.8795 155.045 55.3917 154.755L55.3915 154.755Z" fill="white"/>
<path d="M56.9935 155.332C56.4161 155.332 55.8386 155.178 55.3224 154.871L47.6032 150.275C47.2669 150.075 47.0696 149.722 47.0756 149.331C47.0815 148.94 47.2894 148.593 47.6315 148.403L50.6378 146.734C51.5285 146.24 52.6306 146.247 53.5144 146.753L61.4452 151.288C61.7855 151.483 61.9916 151.833 61.9965 152.224C62.0013 152.616 61.8041 152.971 61.4688 153.174L58.685 154.859C58.1751 155.168 57.5901 155.332 56.9935 155.332ZM55.4605 154.64C55.9271 154.918 56.4609 155.064 57.0045 155.062C57.5481 155.06 58.0808 154.91 58.5452 154.628L61.3291 152.943C61.4525 152.869 61.5543 152.764 61.6241 152.639C61.6939 152.513 61.7294 152.371 61.7268 152.228C61.7257 152.084 61.6868 151.943 61.6138 151.819C61.5409 151.695 61.4365 151.593 61.3113 151.522L53.3804 146.986C52.578 146.528 51.5772 146.521 50.7692 146.97L47.7629 148.639C47.5061 148.781 47.35 149.042 47.3455 149.335C47.3411 149.628 47.4891 149.893 47.7415 150.044L55.4605 154.64Z" fill="#474747"/>
<path d="M65.6646 146.43L63.1628 147.927C62.5661 148.284 61.8837 148.473 61.1881 148.474C60.4925 148.475 59.8096 148.288 59.212 147.932L56.5804 146.367C56.2264 146.157 56.0374 145.806 56.0134 145.445C55.9859 145.032 56.0368 144.583 56.0368 144.583L58.9394 142.965C59.5371 142.61 60.2189 142.42 60.9143 142.417C61.6097 142.413 62.2935 142.594 62.8951 142.942L65.6509 144.538C65.8934 144.678 66.1993 144.844 66.1993 144.844C66.1993 144.844 66.2183 145.544 66.1679 145.751C66.1338 145.892 66.0716 146.025 65.9852 146.141C65.8988 146.258 65.7898 146.356 65.6646 146.43Z" fill="white"/>
<path d="M61.1829 148.61C60.4646 148.61 59.7598 148.416 59.1429 148.048L56.5114 146.483C56.138 146.261 55.9074 145.886 55.8788 145.454C55.8507 145.034 55.9004 144.587 55.9026 144.568C55.9075 144.525 55.933 144.486 55.971 144.465L58.8738 142.847C60.1286 142.102 61.6966 142.093 62.963 142.826L65.7188 144.421C65.9596 144.561 66.2633 144.725 66.2637 144.725C66.306 144.748 66.333 144.792 66.3342 144.84C66.3362 144.914 66.3522 145.564 66.299 145.783C66.2606 145.941 66.1909 146.09 66.0938 146.221C65.9968 146.353 65.8745 146.463 65.734 146.546L63.2321 148.043C62.6132 148.414 61.905 148.609 61.1831 148.61H61.1829ZM56.164 144.666C56.1515 144.805 56.1277 145.133 56.1481 145.436C56.1708 145.779 56.3536 146.076 56.6495 146.252L59.2811 147.817C59.8576 148.16 60.5166 148.341 61.1879 148.34C61.8593 148.339 62.5178 148.157 63.0935 147.812L65.5953 146.315C65.705 146.25 65.8005 146.164 65.8763 146.062C65.9522 145.959 66.0067 145.843 66.0367 145.719C66.0702 145.581 66.0701 145.153 66.066 144.925C65.9041 144.836 65.7432 144.746 65.5833 144.654L62.8274 143.059C62.2465 142.723 61.5863 142.548 60.915 142.552C60.2436 142.556 59.5854 142.738 59.0083 143.081L56.164 144.666Z" fill="#474747"/>
<path d="M65.6647 145.891L63.1629 147.388C62.5662 147.745 61.8838 147.934 61.1882 147.935C60.4926 147.936 59.8097 147.749 59.2121 147.393L56.5805 145.828C55.8207 145.376 55.821 144.277 56.5812 143.826L58.9395 142.425C59.5372 142.071 60.219 141.881 60.9144 141.878C61.6098 141.874 62.2936 142.055 62.8952 142.403L65.651 143.999C66.376 144.418 66.3835 145.461 65.6647 145.891Z" fill="white"/>
<path d="M61.183 148.07C60.4648 148.07 59.7599 147.876 59.1431 147.509L56.5115 145.944C56.317 145.829 56.156 145.666 56.0444 145.47C55.9329 145.274 55.8748 145.052 55.876 144.827C55.8749 144.601 55.9331 144.38 56.0448 144.184C56.1565 143.988 56.3177 143.824 56.5124 143.71L58.8706 142.31C59.489 141.943 60.1943 141.747 60.9136 141.743C61.633 141.739 62.3404 141.927 62.9629 142.287L65.7187 143.882C65.9053 143.989 66.0605 144.143 66.1685 144.329C66.2766 144.514 66.3337 144.725 66.3342 144.94C66.3369 145.155 66.2828 145.366 66.1774 145.554C66.072 145.741 65.9191 145.897 65.734 146.007L63.2322 147.503C62.6132 147.874 61.905 148.07 61.1832 148.07H61.183ZM60.9361 142.012C60.2576 142.012 59.5917 142.195 59.0084 142.541L56.6502 143.942C56.3345 144.129 56.1461 144.46 56.1459 144.827C56.1458 145.194 56.3341 145.525 56.6497 145.712L59.2812 147.277C59.8578 147.621 60.5168 147.802 61.1881 147.801C61.8594 147.8 62.518 147.617 63.0936 147.272L65.5955 145.775C65.7401 145.69 65.8596 145.568 65.942 145.421C66.0243 145.275 66.0666 145.11 66.0646 144.942C66.0642 144.774 66.0195 144.609 65.9351 144.464C65.8506 144.319 65.7293 144.199 65.5835 144.115L62.8277 142.52C62.253 142.187 61.6005 142.012 60.9363 142.012H60.9361Z" fill="#474747"/>
<path d="M74.4561 151.495L71.9543 152.992C71.3576 153.349 70.6752 153.538 69.9796 153.539C69.284 153.54 68.6011 153.353 68.0035 152.998L65.3719 151.433C65.0179 151.222 64.8289 150.871 64.8049 150.511C64.7774 150.097 64.8283 149.648 64.8283 149.648L67.731 148.03C68.3286 147.675 69.0104 147.486 69.7058 147.482C70.4012 147.478 71.085 147.66 71.6866 148.008L74.4424 149.603C74.6849 149.743 74.9908 149.909 74.9908 149.909C74.9908 149.909 75.0098 150.609 74.9594 150.816C74.9253 150.957 74.8632 151.09 74.7767 151.207C74.6903 151.324 74.5813 151.422 74.4561 151.495Z" fill="white"/>
<path d="M69.9748 153.675C69.2565 153.674 68.5516 153.48 67.9347 153.113L65.3032 151.548C64.93 151.326 64.6993 150.951 64.6706 150.519C64.6427 150.099 64.6923 149.651 64.6945 149.633C64.6995 149.59 64.725 149.551 64.7629 149.53L67.6656 147.912C68.9204 147.167 70.4885 147.158 71.7548 147.891L74.5106 149.486C74.7514 149.626 75.0551 149.79 75.0555 149.79C75.0978 149.813 75.1248 149.857 75.126 149.905C75.128 149.979 75.144 150.629 75.0908 150.848C75.013 151.168 74.8124 151.439 74.5258 151.611L72.0241 153.108C71.4051 153.478 70.6969 153.674 69.9751 153.675H69.9748ZM64.9559 149.731C64.9434 149.87 64.9195 150.198 64.9399 150.501C64.9627 150.844 65.1455 151.141 65.4413 151.317L68.0729 152.882C68.6494 153.225 69.3085 153.406 69.9798 153.405C70.6512 153.404 71.3097 153.222 71.8854 152.877L74.3871 151.38C74.4968 151.315 74.5924 151.229 74.6682 151.127C74.744 151.024 74.7986 150.908 74.8286 150.784C74.862 150.647 74.8619 150.218 74.8578 149.99C74.6959 149.901 74.5349 149.811 74.375 149.719L71.6192 148.124C71.0383 147.788 70.3781 147.613 69.7068 147.617C69.0354 147.621 68.3772 147.803 67.8001 148.145L64.9559 149.731Z" fill="#474747"/>
<path d="M74.4562 150.956L71.9544 152.453C71.3577 152.81 70.6753 152.999 69.9797 153C69.2841 153.001 68.6012 152.814 68.0036 152.459L65.372 150.894C64.6122 150.442 64.6125 149.343 65.3727 148.891L67.731 147.491C68.3287 147.136 69.0105 146.947 69.7059 146.943C70.4013 146.939 71.0851 147.121 71.6867 147.469L74.4425 149.064C75.1675 149.484 75.175 150.526 74.4562 150.956Z" fill="white"/>
<path d="M69.9748 153.136C69.2565 153.136 68.5516 152.942 67.9347 152.575L65.3032 151.01C65.1086 150.895 64.9476 150.732 64.8361 150.536C64.7245 150.34 64.6665 150.118 64.6676 149.893C64.6666 149.667 64.7248 149.445 64.8365 149.249C64.9481 149.054 65.1093 148.89 65.304 148.776L67.6622 147.376C68.2806 147.009 68.9859 146.813 69.7052 146.809C70.4246 146.805 71.132 146.993 71.7545 147.353L74.5103 148.948C74.6969 149.055 74.8521 149.209 74.9602 149.394C75.0682 149.58 75.1254 149.791 75.1259 150.006C75.1285 150.221 75.0744 150.432 74.969 150.62C74.8637 150.807 74.7107 150.963 74.5257 151.073L72.0239 152.569C71.405 152.94 70.6966 153.136 69.9748 153.136ZM69.728 147.078C69.0494 147.078 68.3833 147.261 67.8001 147.607L65.4419 149.008C65.2876 149.098 65.1599 149.228 65.0714 149.383C64.9829 149.538 64.9367 149.714 64.9376 149.893C64.9367 150.071 64.9827 150.247 65.0711 150.403C65.1595 150.558 65.2872 150.688 65.4413 150.778L68.0728 152.343C68.6494 152.687 69.3084 152.868 69.9798 152.867C70.6512 152.866 71.3097 152.683 71.8854 152.338L74.3871 150.842C74.5317 150.756 74.6513 150.634 74.7336 150.488C74.8159 150.341 74.8582 150.176 74.8562 150.008C74.8558 149.84 74.8112 149.675 74.7267 149.53C74.6422 149.385 74.521 149.265 74.3751 149.181L71.6193 147.586C71.0447 147.253 70.3923 147.078 69.7282 147.079L69.728 147.078Z" fill="#474747"/>
<path d="M83.4433 156.709L80.9414 158.206C80.3448 158.563 79.6624 158.752 78.9668 158.753C78.2712 158.754 77.5883 158.567 76.9906 158.211L74.3591 156.646C74.0051 156.436 73.8161 156.085 73.7921 155.724C73.7646 155.311 73.8154 154.862 73.8154 154.862L76.7181 153.244C77.3158 152.889 77.9976 152.7 78.693 152.696C79.3883 152.692 80.0722 152.874 80.6738 153.222L83.4296 154.817C83.6721 154.957 83.978 155.123 83.978 155.123C83.978 155.123 83.997 155.823 83.9465 156.03C83.9124 156.171 83.8503 156.304 83.7639 156.421C83.6775 156.537 83.5685 156.636 83.4433 156.709V156.709Z" fill="white"/>
<path d="M78.9618 158.888C78.2435 158.888 77.5386 158.694 76.9217 158.327L74.2901 156.762C73.917 156.54 73.6864 156.165 73.6575 155.733C73.6296 155.313 73.6793 154.865 73.6814 154.847C73.6864 154.803 73.7119 154.765 73.7498 154.744L76.6527 153.126C77.9076 152.381 79.4753 152.372 80.7419 153.105L83.4975 154.7C83.7383 154.839 84.0421 155.004 84.0425 155.004C84.0849 155.027 84.1119 155.071 84.1131 155.119C84.1151 155.192 84.131 155.843 84.0778 156.062C83.9999 156.382 83.7994 156.653 83.5128 156.825L81.0109 158.322C80.3919 158.692 79.6837 158.888 78.9619 158.889L78.9618 158.888ZM73.9429 154.945C73.9303 155.084 73.9065 155.412 73.9268 155.715C73.9496 156.057 74.1324 156.355 74.4283 156.53L77.0598 158.095C77.6363 158.439 78.2954 158.62 78.9668 158.619C79.6381 158.618 80.2967 158.435 80.8723 158.09L83.3742 156.594C83.4839 156.529 83.5794 156.443 83.6552 156.34C83.731 156.238 83.7855 156.122 83.8155 155.998C83.8491 155.86 83.8489 155.432 83.8449 155.203C83.683 155.115 83.522 155.025 83.3621 154.933L80.6063 153.338C80.0253 153.002 79.3652 152.827 78.6938 152.831C78.0225 152.835 77.3643 153.017 76.7872 153.359L73.9429 154.945V154.945Z" fill="#474747"/>
<path d="M83.4434 156.171L80.9415 157.668C80.3449 158.025 79.6625 158.214 78.9669 158.215C78.2713 158.216 77.5884 158.028 76.9907 157.673L74.3592 156.108C73.5994 155.656 73.5997 154.557 74.3599 154.106L76.7182 152.705C77.3159 152.35 77.9977 152.161 78.6931 152.157C79.3884 152.153 80.0723 152.335 80.6739 152.683L83.4297 154.278C84.1547 154.698 84.1622 155.741 83.4434 156.171Z" fill="white"/>
<path d="M78.9617 158.35C78.2434 158.35 77.5385 158.156 76.9216 157.789L74.2901 156.224C74.0956 156.109 73.9345 155.946 73.823 155.75C73.7115 155.554 73.6534 155.332 73.6546 155.107C73.6536 154.881 73.7118 154.659 73.8235 154.463C73.9351 154.267 74.0963 154.104 74.2909 153.99L76.6493 152.589C77.2677 152.223 77.973 152.027 78.6923 152.023C79.4117 152.019 80.1191 152.207 80.7416 152.567L83.4972 154.162C83.8794 154.383 84.1096 154.779 84.1128 155.22C84.116 155.661 83.8917 156.06 83.5127 156.286L81.0109 157.783C80.3919 158.154 79.6837 158.35 78.9619 158.35L78.9617 158.35ZM78.715 152.292C78.0364 152.292 77.3704 152.474 76.7871 152.821L74.4288 154.221C74.2745 154.312 74.1468 154.441 74.0583 154.597C73.9698 154.752 73.9237 154.928 73.9245 155.106C73.9237 155.285 73.9697 155.461 74.0581 155.616C74.1465 155.772 74.2741 155.901 74.4283 155.992L77.0598 157.557C77.6363 157.9 78.2954 158.081 78.9667 158.081C79.6381 158.08 80.2967 157.897 80.8723 157.552L83.3742 156.055C83.5188 155.97 83.6383 155.848 83.7207 155.701C83.803 155.555 83.8453 155.389 83.8433 155.222C83.8429 155.054 83.7982 154.889 83.7137 154.744C83.6292 154.599 83.5079 154.478 83.362 154.395L80.6064 152.8C80.0318 152.467 79.3793 152.292 78.7151 152.292L78.715 152.292Z" fill="#474747"/>
<path d="M92.3506 161.849L89.8487 163.346C89.252 163.703 88.5696 163.892 87.874 163.893C87.1784 163.894 86.4955 163.707 85.8979 163.352L83.2663 161.787C82.9123 161.576 82.7233 161.225 82.6993 160.865C82.6718 160.451 82.7227 160.002 82.7227 160.002L85.6254 158.384C86.2231 158.029 86.9048 157.84 87.6002 157.836C88.2956 157.832 88.9794 158.014 89.581 158.362L92.3368 159.957C92.5794 160.097 92.8852 160.263 92.8852 160.263C92.8852 160.263 92.9042 160.963 92.8538 161.17C92.8197 161.311 92.7576 161.444 92.6711 161.561C92.5847 161.678 92.4757 161.776 92.3506 161.849Z" fill="white"/>
<path d="M87.8688 164.029C87.1505 164.028 86.4456 163.834 85.8287 163.467L83.1973 161.902C82.8239 161.68 82.5933 161.305 82.5647 160.873C82.5367 160.453 82.5863 160.006 82.5885 159.987C82.5935 159.944 82.619 159.905 82.6569 159.884L85.5597 158.266C86.8146 157.521 88.3827 157.512 89.6489 158.245L92.4047 159.84C92.6455 159.98 92.9492 160.144 92.9496 160.144C92.9919 160.167 93.0189 160.211 93.0201 160.259C93.0222 160.332 93.0381 160.983 92.9848 161.202C92.9069 161.522 92.7065 161.793 92.4198 161.965L89.9179 163.462C89.299 163.833 88.5907 164.028 87.8689 164.029H87.8688ZM82.8499 160.085C82.8374 160.224 82.8136 160.552 82.834 160.855C82.8567 161.197 83.0395 161.495 83.3355 161.671L85.9668 163.236C86.5434 163.579 87.2024 163.76 87.8738 163.759C88.5452 163.758 89.2037 163.576 89.7794 163.231L92.2812 161.734C92.3909 161.669 92.4864 161.583 92.5622 161.481C92.638 161.378 92.6925 161.262 92.7225 161.138C92.7561 161 92.756 160.572 92.7519 160.344C92.59 160.255 92.4291 160.165 92.2692 160.073L89.5133 158.478C88.9324 158.142 88.2722 157.967 87.6009 157.971C86.9295 157.975 86.2714 158.157 85.6942 158.5L82.8499 160.085V160.085Z" fill="#474747"/>
<path d="M92.3505 161.31L89.8487 162.807C89.252 163.164 88.5696 163.353 87.874 163.354C87.1784 163.355 86.4955 163.168 85.8979 162.813L83.2663 161.248C82.5065 160.796 82.5068 159.697 83.267 159.245L85.6253 157.845C86.223 157.49 86.9048 157.301 87.6002 157.297C88.2955 157.293 88.9794 157.475 89.581 157.823L92.3368 159.418C93.0618 159.838 93.0693 160.88 92.3505 161.31Z" fill="white"/>
<path d="M87.8689 163.49C87.1507 163.49 86.4457 163.296 85.8289 162.928L83.1975 161.363C83.0029 161.249 82.8419 161.085 82.7303 160.889C82.6188 160.693 82.5607 160.472 82.5619 160.246C82.5608 160.021 82.619 159.799 82.7307 159.603C82.8424 159.407 83.0036 159.244 83.1983 159.13L85.5565 157.729C86.1749 157.362 86.8802 157.167 87.5995 157.163C88.3189 157.159 89.0263 157.346 89.6488 157.706L92.4046 159.302C92.5912 159.408 92.7464 159.562 92.8544 159.748C92.9625 159.934 93.0197 160.145 93.0202 160.359C93.0228 160.574 92.9687 160.786 92.8633 160.973C92.758 161.16 92.605 161.317 92.4199 161.426L89.9181 162.923C89.2991 163.294 88.5909 163.49 87.8691 163.49L87.8689 163.49ZM87.6222 157.432C86.9436 157.432 86.2776 157.614 85.6943 157.96L83.3361 159.361C83.0205 159.548 82.832 159.879 82.8319 160.246C82.8317 160.613 83.0201 160.944 83.3356 161.131L85.967 162.696C86.5435 163.04 87.2026 163.221 87.8739 163.22C88.5453 163.219 89.2039 163.036 89.7795 162.691L92.2814 161.195C92.426 161.109 92.5456 160.987 92.6279 160.841C92.7103 160.694 92.7525 160.529 92.7505 160.361C92.7501 160.193 92.7055 160.028 92.621 159.883C92.5365 159.738 92.4153 159.618 92.2694 159.534L89.5136 157.939C88.939 157.606 88.2865 157.431 87.6223 157.432L87.6222 157.432Z" fill="#474747"/>
<path d="M101.494 167.189L98.9922 168.686C98.3955 169.043 97.7132 169.232 97.0176 169.233C96.322 169.234 95.6391 169.047 95.0414 168.691L92.4099 167.126C92.0559 166.916 91.8669 166.565 91.8429 166.204C91.8154 165.791 91.8662 165.342 91.8662 165.342L94.7689 163.724C95.3666 163.369 96.0483 163.18 96.7437 163.176C97.4391 163.172 98.1229 163.353 98.7246 163.702L101.48 165.297C101.723 165.437 102.029 165.603 102.029 165.603C102.029 165.603 102.048 166.303 101.997 166.51C101.963 166.651 101.901 166.784 101.815 166.901C101.728 167.017 101.619 167.116 101.494 167.189V167.189Z" fill="white"/>
<path d="M97.0125 169.369C96.2942 169.369 95.5893 169.175 94.9724 168.807L92.3409 167.242C91.9678 167.02 91.7371 166.645 91.7083 166.214C91.6804 165.793 91.73 165.346 91.7322 165.327C91.7372 165.284 91.7627 165.246 91.8006 165.224L94.7033 163.606C95.9584 162.861 97.5263 162.852 98.7925 163.585L101.548 165.18C101.789 165.32 102.093 165.484 102.093 165.485C102.136 165.507 102.163 165.551 102.164 165.599C102.166 165.673 102.182 166.323 102.129 166.542C102.051 166.863 101.85 167.134 101.564 167.305L99.0618 168.802C98.4428 169.173 97.7346 169.369 97.0128 169.369H97.0125ZM91.9937 165.425C91.9811 165.564 91.9572 165.892 91.9776 166.196C92.0004 166.538 92.1832 166.835 92.4791 167.011L95.1106 168.576C95.6871 168.919 96.3462 169.1 97.0175 169.099C97.6889 169.098 98.3475 168.916 98.9231 168.571L101.425 167.074C101.535 167.009 101.63 166.923 101.706 166.821C101.782 166.719 101.836 166.602 101.866 166.479C101.9 166.341 101.9 165.912 101.896 165.684C101.734 165.596 101.573 165.506 101.413 165.414L98.6569 163.818C98.076 163.483 97.4158 163.307 96.7445 163.311C96.0731 163.315 95.415 163.497 94.8378 163.84L91.9937 165.425Z" fill="#474747"/>
<path d="M101.494 166.651L98.9922 168.148C98.3955 168.505 97.7131 168.694 97.0175 168.695C96.3219 168.696 95.639 168.508 95.0414 168.153L92.4099 166.588C91.6501 166.136 91.6503 165.037 92.4106 164.586L94.7689 163.185C95.3666 162.83 96.0483 162.641 96.7437 162.637C97.4391 162.633 98.1229 162.815 98.7245 163.163L101.48 164.758C102.205 165.178 102.213 166.221 101.494 166.651Z" fill="white"/>
<path d="M97.0125 168.83C96.2942 168.83 95.5893 168.636 94.9724 168.269L92.3409 166.704C92.1464 166.589 91.9853 166.426 91.8738 166.23C91.7623 166.034 91.7042 165.812 91.7053 165.587C91.7043 165.361 91.7625 165.139 91.8742 164.943C91.9859 164.747 92.1471 164.584 92.3417 164.47L94.6999 163.069C95.3184 162.703 96.0236 162.507 96.743 162.503C97.4623 162.499 98.1697 162.687 98.7922 163.047L101.548 164.642C101.93 164.863 102.16 165.259 102.164 165.7C102.167 166.141 101.942 166.54 101.563 166.766L99.0616 168.263C98.4427 168.634 97.7345 168.83 97.0126 168.83H97.0125ZM96.7656 162.772C96.0871 162.772 95.421 162.955 94.8378 163.301L92.4796 164.701C92.1639 164.889 91.9754 165.22 91.9753 165.587C91.9752 165.953 92.1636 166.284 92.479 166.472L95.1106 168.037C95.6871 168.38 96.3461 168.561 97.0175 168.561C97.6889 168.56 98.3475 168.377 98.9231 168.032L101.425 166.535C101.569 166.45 101.689 166.327 101.771 166.181C101.854 166.035 101.896 165.869 101.894 165.702C101.894 165.534 101.849 165.369 101.764 165.224C101.68 165.079 101.559 164.958 101.413 164.875L98.657 163.28C98.0824 162.947 97.43 162.772 96.7658 162.772L96.7656 162.772Z" fill="#474747"/>
<path d="M110.518 172.393L108.016 173.89C107.419 174.247 106.737 174.436 106.041 174.437C105.346 174.438 104.663 174.251 104.065 173.895L101.434 172.33C101.08 172.12 100.891 171.769 100.867 171.409C100.839 170.995 100.89 170.546 100.89 170.546L103.793 168.928C104.39 168.573 105.072 168.384 105.767 168.38C106.463 168.376 107.147 168.558 107.748 168.906L110.504 170.501C110.747 170.641 111.052 170.807 111.052 170.807C111.052 170.807 111.071 171.507 111.021 171.714C110.987 171.855 110.925 171.988 110.838 172.105C110.752 172.222 110.643 172.32 110.518 172.394V172.393Z" fill="white"/>
<path d="M106.036 174.572C105.318 174.572 104.613 174.378 103.996 174.011L101.365 172.446C100.991 172.224 100.761 171.849 100.732 171.417C100.704 170.997 100.754 170.549 100.756 170.531C100.761 170.487 100.786 170.449 100.824 170.428L103.727 168.81C104.982 168.065 106.55 168.056 107.816 168.789L110.572 170.384C110.81 170.522 111.114 170.686 111.117 170.688C111.138 170.699 111.155 170.716 111.168 170.736C111.18 170.756 111.187 170.779 111.188 170.803C111.19 170.876 111.206 171.527 111.152 171.746C111.075 172.066 110.874 172.337 110.587 172.509L108.085 174.006C107.466 174.377 106.758 174.573 106.036 174.573L106.036 174.572ZM101.017 170.629C101.005 170.768 100.981 171.096 101.001 171.399C101.024 171.741 101.207 172.039 101.503 172.214L104.134 173.779C104.711 174.123 105.37 174.304 106.041 174.303C106.713 174.302 107.371 174.119 107.947 173.774L110.449 172.277C110.558 172.213 110.654 172.127 110.73 172.024C110.805 171.922 110.86 171.806 110.89 171.682C110.924 171.544 110.923 171.115 110.919 170.887C110.757 170.799 110.596 170.709 110.437 170.617L107.681 169.022C107.1 168.686 106.44 168.511 105.768 168.515C105.097 168.518 104.439 168.701 103.862 169.043L101.017 170.629Z" fill="#474747"/>
<path d="M110.518 171.854L108.016 173.351C107.419 173.708 106.737 173.897 106.041 173.898C105.346 173.899 104.663 173.712 104.065 173.357L101.434 171.792C100.674 171.34 100.674 170.241 101.434 169.789L103.793 168.389C104.39 168.034 105.072 167.845 105.768 167.841C106.463 167.837 107.147 168.019 107.748 168.367L110.504 169.962C111.229 170.382 111.237 171.424 110.518 171.854Z" fill="white"/>
<path d="M106.036 174.034C105.318 174.034 104.613 173.84 103.996 173.472L101.364 171.907C101.17 171.793 101.009 171.629 100.897 171.433C100.786 171.237 100.728 171.015 100.729 170.79C100.728 170.565 100.786 170.343 100.898 170.147C101.009 169.951 101.171 169.788 101.365 169.673L103.724 168.273C104.342 167.906 105.047 167.711 105.767 167.707C106.486 167.703 107.193 167.89 107.816 168.25L110.572 169.845C110.758 169.952 110.913 170.106 111.022 170.292C111.13 170.478 111.187 170.689 111.187 170.903C111.19 171.118 111.136 171.33 111.03 171.517C110.925 171.704 110.772 171.861 110.587 171.97L108.085 173.467C107.466 173.838 106.758 174.034 106.036 174.034L106.036 174.034ZM105.789 167.976C105.111 167.976 104.445 168.158 103.861 168.504L101.503 169.905C101.187 170.092 100.999 170.423 100.999 170.79C100.999 171.157 101.187 171.488 101.503 171.675L104.134 173.24C104.711 173.584 105.37 173.765 106.041 173.764C106.712 173.763 107.371 173.58 107.947 173.235L110.449 171.738C110.745 171.561 110.92 171.25 110.918 170.905C110.915 170.56 110.735 170.251 110.437 170.078L107.681 168.483C107.106 168.15 106.454 167.975 105.789 167.976L105.789 167.976Z" fill="#474747"/>
<path d="M119.596 177.647L117.094 179.144C116.497 179.501 115.815 179.69 115.119 179.691C114.423 179.692 113.741 179.505 113.143 179.149L110.511 177.584C110.157 177.374 109.968 177.023 109.944 176.662C109.917 176.249 109.968 175.8 109.968 175.8L112.87 174.182C113.468 173.827 114.15 173.638 114.845 173.634C115.541 173.63 116.224 173.812 116.826 174.16L119.582 175.755C119.824 175.895 120.13 176.061 120.13 176.061C120.13 176.061 120.149 176.761 120.099 176.968C120.065 177.109 120.003 177.242 119.916 177.359C119.83 177.475 119.721 177.574 119.596 177.647V177.647Z" fill="white"/>
<path d="M115.114 179.826C114.396 179.826 113.691 179.632 113.074 179.265L110.442 177.7C110.069 177.478 109.838 177.103 109.81 176.671C109.782 176.251 109.831 175.803 109.833 175.784C109.838 175.741 109.864 175.703 109.902 175.682L112.805 174.064C114.059 173.319 115.628 173.31 116.894 174.043L119.65 175.638C119.89 175.777 120.194 175.942 120.195 175.942C120.237 175.965 120.264 176.009 120.265 176.057C120.267 176.13 120.283 176.781 120.23 177C120.152 177.32 119.951 177.591 119.665 177.763L117.163 179.26C116.544 179.63 115.836 179.826 115.114 179.826ZM110.095 175.883C110.082 176.022 110.059 176.35 110.079 176.653C110.102 176.995 110.284 177.292 110.58 177.468L113.212 179.033C113.788 179.377 114.448 179.558 115.119 179.557C115.79 179.556 116.449 179.373 117.024 179.028L119.526 177.532C119.636 177.467 119.731 177.381 119.807 177.278C119.883 177.176 119.938 177.06 119.968 176.936C120.001 176.798 120.001 176.37 119.997 176.141C119.835 176.053 119.674 175.963 119.514 175.871L116.758 174.276C116.177 173.94 115.517 173.765 114.846 173.769C114.175 173.772 113.516 173.955 112.939 174.297L110.095 175.883V175.883Z" fill="#474747"/>
<path d="M119.596 177.108L117.094 178.605C116.497 178.962 115.815 179.151 115.119 179.152C114.424 179.153 113.741 178.966 113.143 178.61L110.512 177.045C109.752 176.593 109.752 175.495 110.512 175.043L112.871 173.643C113.468 173.288 114.15 173.099 114.845 173.095C115.541 173.091 116.225 173.272 116.826 173.621L119.582 175.216C120.307 175.636 120.315 176.678 119.596 177.108Z" fill="white"/>
<path d="M115.114 179.287C114.396 179.287 113.691 179.093 113.074 178.726L110.442 177.161C110.248 177.047 110.087 176.883 109.975 176.687C109.864 176.491 109.806 176.269 109.807 176.044C109.806 175.818 109.864 175.597 109.976 175.401C110.087 175.205 110.249 175.042 110.443 174.927L112.801 173.527C113.42 173.16 114.125 172.965 114.845 172.961C115.564 172.957 116.271 173.144 116.894 173.504L119.65 175.099C119.836 175.206 119.991 175.36 120.099 175.546C120.207 175.732 120.265 175.942 120.265 176.157C120.268 176.372 120.214 176.584 120.108 176.771C120.003 176.958 119.85 177.114 119.665 177.224L117.163 178.721C116.544 179.092 115.836 179.287 115.114 179.287ZM114.867 173.23C114.189 173.23 113.523 173.412 112.939 173.758L110.581 175.159C110.265 175.346 110.077 175.677 110.077 176.044C110.077 176.411 110.265 176.742 110.581 176.929L113.212 178.494C113.789 178.838 114.448 179.019 115.119 179.018C115.79 179.017 116.449 178.834 117.025 178.489L119.526 176.992C119.671 176.907 119.791 176.785 119.873 176.638C119.955 176.492 119.998 176.327 119.995 176.159C119.995 175.991 119.95 175.826 119.866 175.681C119.782 175.536 119.66 175.416 119.514 175.332L116.759 173.737C116.184 173.404 115.531 173.229 114.867 173.229L114.867 173.23Z" fill="#474747"/>
<path d="M70.6432 158.793L68.1413 160.29C67.5446 160.647 66.8622 160.836 66.1666 160.837C65.471 160.838 64.7881 160.651 64.1905 160.295L61.559 158.73C61.205 158.52 61.0159 158.169 60.9919 157.808C60.9644 157.395 61.0153 156.946 61.0153 156.946L63.918 155.328C64.5157 154.973 65.1974 154.784 65.8928 154.78C66.5882 154.776 67.272 154.958 67.8736 155.306L70.6294 156.901C70.872 157.041 71.1778 157.207 71.1778 157.207C71.1778 157.207 71.1968 157.907 71.1464 158.114C71.1123 158.255 71.0502 158.388 70.9637 158.505C70.8773 158.621 70.7683 158.72 70.6432 158.793V158.793Z" fill="white"/>
<path d="M66.1618 160.973C65.4435 160.973 64.7386 160.779 64.1217 160.411L61.4903 158.846C61.1169 158.624 60.8863 158.249 60.8577 157.818C60.8296 157.397 60.8793 156.95 60.8814 156.931C60.8864 156.888 60.9119 156.85 60.9498 156.829L63.8527 155.21C65.1074 154.465 66.6756 154.456 67.9419 155.189L70.6977 156.785C70.9385 156.924 71.2421 157.088 71.2425 157.089C71.2849 157.112 71.3119 157.155 71.3131 157.203C71.3151 157.277 71.3311 157.928 71.2778 158.146C71.1999 158.467 70.9994 158.738 70.7128 158.909L68.2109 160.406C67.5919 160.777 66.8837 160.973 66.1619 160.973H66.1618ZM61.1429 157.029C61.1303 157.168 61.1066 157.496 61.127 157.8C61.1496 158.142 61.3324 158.439 61.6284 158.615L64.2598 160.18C64.8363 160.523 65.4954 160.704 66.1668 160.703C66.8381 160.703 67.4967 160.52 68.0723 160.175L70.5742 158.678C70.6839 158.613 70.7794 158.527 70.8552 158.425C70.931 158.323 70.9855 158.206 71.0155 158.083C71.0491 157.945 71.049 157.516 71.0449 157.288C70.883 157.2 70.7221 157.11 70.5622 157.018L67.8063 155.423C67.2253 155.087 66.5652 154.912 65.8938 154.915C65.2225 154.919 64.5643 155.101 63.9872 155.444L61.1429 157.029Z" fill="#474747"/>
<path d="M70.6433 158.255L68.1414 159.752C67.5447 160.109 66.8623 160.298 66.1667 160.299C65.4711 160.3 64.7882 160.112 64.1906 159.757L61.559 158.192C60.7992 157.74 60.7995 156.641 61.5597 156.19L63.9181 154.789C64.5157 154.434 65.1975 154.245 65.8929 154.241C66.5883 154.237 67.2721 154.419 67.8737 154.767L70.6295 156.362C71.3545 156.782 71.362 157.825 70.6433 158.255Z" fill="white"/>
<path d="M66.1617 160.434C65.4434 160.434 64.7385 160.24 64.1216 159.873L61.4902 158.308C61.2957 158.193 61.1346 158.03 61.0231 157.834C60.9115 157.638 60.8535 157.416 60.8546 157.191C60.8536 156.965 60.9118 156.743 61.0234 156.547C61.1351 156.352 61.2963 156.188 61.491 156.074L63.8492 154.673C64.4676 154.307 65.1729 154.111 65.8922 154.107C66.6116 154.103 67.319 154.291 67.9415 154.651L70.6973 156.246C70.8839 156.353 71.0391 156.507 71.1472 156.692C71.2552 156.878 71.3124 157.089 71.3129 157.304C71.3155 157.518 71.2614 157.73 71.1561 157.917C71.0507 158.105 70.8978 158.261 70.7127 158.37L68.2108 159.867C67.5918 160.238 66.8836 160.434 66.1618 160.434L66.1617 160.434ZM65.9149 154.376C65.2364 154.376 64.5703 154.559 63.9871 154.905L61.6289 156.306C61.3132 156.493 61.1247 156.824 61.1246 157.191C61.1244 157.557 61.3129 157.888 61.6283 158.076L64.2597 159.641C64.8362 159.985 65.4953 160.166 66.1667 160.165C66.8381 160.164 67.4966 159.981 68.0722 159.636L70.5741 158.139C70.7188 158.054 70.8383 157.932 70.9206 157.785C71.003 157.639 71.0453 157.474 71.0432 157.306C71.0428 157.138 70.9982 156.973 70.9137 156.828C70.8293 156.683 70.708 156.562 70.5621 156.479L67.8063 154.884C67.2317 154.551 66.5792 154.376 65.9151 154.377L65.9149 154.376Z" fill="#474747"/>
<path d="M79.5505 163.933L77.0486 165.43C76.4519 165.787 75.7696 165.976 75.074 165.977C74.3783 165.978 73.6955 165.791 73.0978 165.436L70.4663 163.87C70.1123 163.66 69.9233 163.309 69.8993 162.949C69.8718 162.535 69.9226 162.086 69.9226 162.086L72.8253 160.468C73.423 160.113 74.1047 159.924 74.8001 159.92C75.4955 159.916 76.1793 160.098 76.781 160.446L79.5367 162.041C79.7793 162.181 80.0851 162.347 80.0851 162.347C80.0851 162.347 80.1042 163.047 80.0537 163.254C80.0196 163.395 79.9575 163.528 79.8711 163.645C79.7846 163.762 79.6756 163.86 79.5505 163.934V163.933Z" fill="white"/>
<path d="M75.0687 166.113C74.3504 166.113 73.6456 165.919 73.0287 165.552L70.3972 163.987C70.0238 163.765 69.7932 163.39 69.7646 162.958C69.7367 162.538 69.7862 162.09 69.7884 162.072C69.7908 162.05 69.7982 162.03 69.8101 162.012C69.822 161.994 69.838 161.979 69.8568 161.969L72.7596 160.351C74.0144 159.606 75.5823 159.597 76.8488 160.33L79.6046 161.925C79.8454 162.065 80.1491 162.229 80.1495 162.229C80.1918 162.252 80.2188 162.296 80.22 162.344C80.2221 162.417 80.238 163.068 80.1848 163.287C80.1068 163.607 79.9062 163.878 79.6198 164.05L77.1179 165.547C76.499 165.917 75.7908 166.113 75.069 166.113H75.0687ZM70.0498 162.17C70.0374 162.309 70.0135 162.637 70.0339 162.94C70.0566 163.282 70.2394 163.579 70.5354 163.755L73.1669 165.32C73.7434 165.664 74.4024 165.845 75.0738 165.844C75.7451 165.843 76.4037 165.66 76.9793 165.315L79.4811 163.819C79.5908 163.754 79.6863 163.668 79.7621 163.565C79.8379 163.463 79.8925 163.347 79.9226 163.223C79.956 163.085 79.9559 162.657 79.9518 162.429C79.7899 162.34 79.629 162.25 79.4691 162.158L76.7132 160.563C76.1323 160.227 75.4721 160.052 74.8008 160.056C74.1294 160.06 73.4713 160.242 72.8941 160.584L70.0498 162.17Z" fill="#474747"/>
<path d="M79.5505 163.394L77.0486 164.891C76.4519 165.248 75.7695 165.437 75.0739 165.438C74.3783 165.439 73.6954 165.252 73.0978 164.897L70.4663 163.332C69.7065 162.88 69.7067 161.781 70.4669 161.329L72.8253 159.929C73.423 159.574 74.1047 159.385 74.8001 159.381C75.4955 159.377 76.1793 159.559 76.7809 159.907L79.5367 161.502C80.2617 161.922 80.2693 162.964 79.5505 163.394Z" fill="white"/>
<path d="M75.0688 165.574C74.3505 165.574 73.6457 165.38 73.0288 165.013L70.3973 163.448C70.2028 163.333 70.0417 163.17 69.9302 162.974C69.8186 162.778 69.7606 162.556 69.7617 162.331C69.7607 162.105 69.8189 161.884 69.9305 161.688C70.0422 161.492 70.2034 161.328 70.3981 161.214L72.7563 159.814C73.3748 159.447 74.08 159.251 74.7994 159.247C75.5187 159.243 76.2261 159.431 76.8486 159.791L79.6044 161.386C79.791 161.493 79.9462 161.647 80.0543 161.833C80.1623 162.018 80.2195 162.229 80.22 162.444C80.2226 162.659 80.1685 162.87 80.0632 163.058C79.9578 163.245 79.8049 163.401 79.6198 163.511L77.1179 165.007C76.499 165.378 75.7907 165.574 75.0689 165.574H75.0688ZM74.8219 159.516C74.1434 159.516 73.4774 159.699 72.8942 160.045L70.536 161.445C70.2203 161.633 70.0318 161.964 70.0317 162.331C70.0316 162.697 70.22 163.028 70.5354 163.216L73.167 164.781C73.7435 165.125 74.4025 165.306 75.0738 165.305C75.7452 165.304 76.4037 165.121 76.9793 164.776L79.4812 163.279C79.6259 163.194 79.7454 163.072 79.8277 162.925C79.9101 162.779 79.9524 162.614 79.9503 162.446C79.9499 162.278 79.9053 162.113 79.8208 161.968C79.7364 161.823 79.6151 161.702 79.4692 161.619L76.7134 160.024C76.1388 159.691 75.4863 159.516 74.822 159.516H74.8219Z" fill="#474747"/>
<path d="M88.6939 169.274L86.1921 170.771C85.5954 171.128 84.913 171.317 84.2174 171.318C83.5218 171.318 82.8389 171.131 82.2413 170.776L79.6097 169.211C79.2557 169 79.0667 168.649 79.0427 168.289C79.0152 167.876 79.0661 167.426 79.0661 167.426L81.9687 165.808C82.5664 165.453 83.2482 165.264 83.9436 165.26C84.639 165.256 85.3228 165.438 85.9244 165.786L88.6802 167.381C88.9227 167.522 89.2286 167.687 89.2286 167.687C89.2286 167.687 89.2476 168.387 89.1971 168.595C89.1631 168.736 89.1009 168.869 89.0145 168.985C88.9281 169.102 88.8191 169.2 88.6939 169.274Z" fill="white"/>
<path d="M84.2125 171.453C83.4942 171.453 82.7893 171.259 82.1724 170.891L79.5409 169.326C79.1677 169.104 78.937 168.73 78.9083 168.298C78.8804 167.877 78.93 167.43 78.9322 167.411C78.9372 167.368 78.9626 167.33 79.0006 167.308L81.9034 165.69C83.1582 164.945 84.7263 164.936 85.9926 165.669L88.7482 167.265C88.9864 167.402 89.2903 167.567 89.2933 167.569C89.3141 167.58 89.3316 167.596 89.344 167.617C89.3564 167.637 89.3632 167.66 89.3638 167.684C89.3659 167.757 89.3818 168.408 89.3285 168.626C89.2508 168.947 89.0502 169.218 88.7635 169.389L86.2616 170.886C85.6427 171.257 84.9344 171.453 84.2126 171.453L84.2125 171.453ZM79.1936 167.509C79.1811 167.648 79.1572 167.977 79.1776 168.28C79.2004 168.622 79.3832 168.919 79.679 169.095L82.3105 170.66C82.8871 171.003 83.5461 171.184 84.2175 171.183C84.8889 171.183 85.5474 171 86.1231 170.655L88.6249 169.158C88.7346 169.093 88.8301 169.007 88.9059 168.905C88.9817 168.803 89.0362 168.686 89.0662 168.563C89.0998 168.425 89.0997 167.996 89.0956 167.768C88.9336 167.68 88.7726 167.59 88.6127 167.498L85.857 165.903C85.2761 165.567 84.6159 165.392 83.9446 165.395C83.2732 165.399 82.6151 165.581 82.0379 165.924L79.1936 167.509Z" fill="#474747"/>
<path d="M88.6939 168.735L86.192 170.232C85.5953 170.589 84.913 170.778 84.2174 170.779C83.5218 170.78 82.8389 170.592 82.2412 170.237L79.6097 168.672C78.8499 168.22 78.8502 167.121 79.6104 166.67L81.9687 165.269C82.5664 164.914 83.2482 164.725 83.9435 164.721C84.6389 164.717 85.3227 164.899 85.9244 165.247L88.6802 166.842C89.4052 167.262 89.4127 168.305 88.6939 168.735Z" fill="white"/>
<path d="M84.2126 170.914C83.4943 170.914 82.7894 170.72 82.1725 170.353L79.541 168.788C79.3465 168.674 79.1854 168.51 79.0739 168.314C78.9624 168.118 78.9043 167.896 78.9054 167.671C78.9044 167.446 78.9627 167.224 79.0743 167.028C79.186 166.832 79.3472 166.669 79.5418 166.554L81.9001 165.154C82.5186 164.787 83.2238 164.591 83.9432 164.587C84.6625 164.583 85.3699 164.771 85.9924 165.131L88.7481 166.726C89.1303 166.947 89.3604 167.343 89.3637 167.784C89.3669 168.225 89.1425 168.624 88.7636 168.851L86.2617 170.348C85.6428 170.718 84.9345 170.914 84.2127 170.914H84.2126ZM83.9658 164.857C83.2873 164.856 82.6213 165.039 82.038 165.385L79.6797 166.786C79.5254 166.876 79.3977 167.006 79.3092 167.161C79.2207 167.316 79.1746 167.492 79.1754 167.671C79.1745 167.85 79.2205 168.025 79.3089 168.181C79.3973 168.336 79.5249 168.466 79.6791 168.556L82.3106 170.121C82.8872 170.465 83.5462 170.646 84.2176 170.645C84.889 170.644 85.5475 170.461 86.1232 170.116L88.625 168.619C88.7697 168.534 88.8892 168.412 88.9715 168.265C89.0539 168.119 89.0962 167.954 89.0941 167.786C89.0937 167.618 89.049 167.453 88.9645 167.308C88.88 167.163 88.7588 167.043 88.6129 166.959L85.8573 165.364C85.2826 165.031 84.6302 164.856 83.966 164.857L83.9658 164.857Z" fill="#474747"/>
<path d="M97.7176 174.477L95.2157 175.974C94.6191 176.331 93.9367 176.52 93.2411 176.521C92.5455 176.522 91.8626 176.335 91.2649 175.979L88.6334 174.414C88.2794 174.204 88.0904 173.853 88.0664 173.493C88.0389 173.079 88.0897 172.63 88.0897 172.63L90.9924 171.012C91.5901 170.657 92.2719 170.468 92.9672 170.464C93.6626 170.46 94.3464 170.642 94.9481 170.99L97.7039 172.585C97.9464 172.725 98.2523 172.891 98.2523 172.891C98.2523 172.891 98.2713 173.591 98.2208 173.798C98.1867 173.939 98.1246 174.072 98.0382 174.189C97.9518 174.306 97.8427 174.404 97.7176 174.477V174.477Z" fill="white"/>
<path d="M93.236 176.657C92.5177 176.657 91.8129 176.463 91.196 176.095L88.5645 174.53C88.1911 174.308 87.9605 173.933 87.9319 173.502C87.9038 173.081 87.9535 172.634 87.9557 172.615C87.9606 172.572 87.9861 172.534 88.0241 172.512L90.9269 170.894C92.1818 170.149 93.7498 170.141 95.0161 170.873L97.7719 172.469C98.0127 172.608 98.3164 172.772 98.3168 172.773C98.3591 172.796 98.3861 172.839 98.3873 172.887C98.3894 172.961 98.4053 173.612 98.352 173.83C98.2741 174.151 98.0737 174.422 97.787 174.593L95.2851 176.09C94.6662 176.461 93.9578 176.657 93.236 176.657ZM88.2171 172.713C88.2046 172.852 88.1808 173.18 88.2012 173.484C88.2239 173.826 88.4067 174.123 88.7026 174.299L91.3342 175.864C91.9107 176.207 92.5697 176.388 93.2411 176.387C93.9124 176.387 94.5709 176.204 95.1466 175.859L97.6484 174.362C97.7581 174.297 97.8536 174.211 97.9294 174.109C98.0052 174.007 98.0597 173.89 98.0897 173.767C98.1233 173.629 98.1232 173.2 98.1191 172.972C97.9572 172.884 97.7963 172.794 97.6364 172.702L94.8805 171.107C94.2996 170.771 93.6394 170.596 92.9681 170.599C92.2967 170.603 91.6386 170.785 91.0614 171.128L88.2171 172.713Z" fill="#474747"/>
<path d="M97.7176 173.938L95.2157 175.435C94.619 175.792 93.9367 175.981 93.241 175.982C92.5454 175.983 91.8626 175.796 91.2649 175.441L88.6334 173.876C87.8736 173.424 87.8739 172.325 88.6341 171.873L90.9924 170.473C91.5901 170.118 92.2718 169.929 92.9672 169.925C93.6626 169.921 94.3464 170.103 94.9481 170.451L97.7038 172.046C98.4288 172.466 98.4364 173.508 97.7176 173.938Z" fill="white"/>
<path d="M93.2359 176.118C92.5176 176.118 91.8127 175.924 91.1959 175.556L88.5644 173.991C88.3699 173.877 88.2088 173.713 88.0973 173.517C87.9858 173.321 87.9277 173.099 87.9289 172.874C87.9278 172.649 87.986 172.427 88.0977 172.231C88.2093 172.035 88.3706 171.872 88.5652 171.757L90.9234 170.357C91.5419 169.99 92.2471 169.795 92.9665 169.791C93.6858 169.787 94.3932 169.974 95.0157 170.334L97.7715 171.929C97.9581 172.036 98.1133 172.19 98.2214 172.376C98.3294 172.562 98.3866 172.773 98.3871 172.987C98.3897 173.202 98.3356 173.414 98.2303 173.601C98.1249 173.788 97.972 173.945 97.7869 174.054L95.285 175.551C94.6661 175.922 93.9577 176.118 93.2359 176.118ZM92.9891 170.06C92.3106 170.06 91.6446 170.242 91.0613 170.588L88.7031 171.989C88.3874 172.176 88.1989 172.507 88.1988 172.874C88.1987 173.241 88.387 173.572 88.7026 173.759L91.3341 175.324C91.9106 175.668 92.5696 175.849 93.241 175.848C93.9123 175.847 94.5709 175.665 95.1465 175.319L97.6483 173.823C97.793 173.737 97.9125 173.615 97.9949 173.469C98.0772 173.322 98.1195 173.157 98.1174 172.989C98.1171 172.821 98.0724 172.656 97.9879 172.511C97.9035 172.366 97.7822 172.246 97.6363 172.162L94.8806 170.567C94.3059 170.234 93.6535 170.059 92.9893 170.06L92.9891 170.06Z" fill="#474747"/>
<path d="M93.2058 182.369L90.7039 183.866C90.1072 184.223 89.4248 184.412 88.7292 184.413C88.0336 184.414 87.3507 184.227 86.7531 183.872L84.1216 182.307C83.7676 182.096 83.5786 181.745 83.5546 181.385C83.527 180.971 83.5779 180.522 83.5779 180.522L86.4806 178.904C87.0783 178.549 87.76 178.36 88.4554 178.356C89.1508 178.352 89.8346 178.534 90.4362 178.882L93.192 180.477C93.4346 180.617 93.7404 180.783 93.7404 180.783C93.7404 180.783 93.7594 181.483 93.709 181.69C93.6749 181.831 93.6128 181.964 93.5264 182.081C93.4399 182.198 93.3309 182.296 93.2058 182.37V182.369Z" fill="white"/>
<path d="M88.7241 184.549C88.0058 184.549 87.3009 184.355 86.684 183.988L84.0525 182.422C83.6793 182.2 83.4487 181.826 83.4199 181.394C83.392 180.973 83.4416 180.526 83.4438 180.507C83.4487 180.464 83.4742 180.426 83.5122 180.405L86.415 178.786C87.6698 178.041 89.2378 178.033 90.5042 178.765L93.26 180.361C93.498 180.498 93.8019 180.663 93.8049 180.665C93.8472 180.688 93.8742 180.731 93.8754 180.78C93.8775 180.853 93.8934 181.504 93.8401 181.722C93.7622 182.043 93.5618 182.314 93.2751 182.485L90.7732 183.982C90.1543 184.353 89.446 184.549 88.7242 184.549L88.7241 184.549ZM83.7052 180.605C83.6927 180.744 83.6688 181.073 83.6892 181.376C83.712 181.718 83.8948 182.015 84.1906 182.191L86.8221 183.756C87.3987 184.099 88.0577 184.28 88.7291 184.28C89.4005 184.279 90.059 184.096 90.6347 183.751L93.1365 182.254C93.2462 182.189 93.3417 182.103 93.4175 182.001C93.4933 181.899 93.5478 181.782 93.5778 181.659C93.6114 181.521 93.6113 181.092 93.6072 180.864C93.4453 180.776 93.2844 180.686 93.1244 180.594L90.3686 178.999C89.7877 178.663 89.1275 178.488 88.4562 178.491C87.7848 178.495 87.1267 178.678 86.5495 179.02L83.7052 180.606V180.605Z" fill="#474747"/>
<path d="M93.2058 181.831L90.7039 183.327C90.1072 183.684 89.4248 183.873 88.7292 183.874C88.0336 183.875 87.3507 183.688 86.7531 183.333L84.1216 181.768C83.3617 181.316 83.362 180.217 84.1222 179.765L86.4806 178.365C87.0783 178.01 87.76 177.821 88.4554 177.817C89.1508 177.813 89.8346 177.995 90.4362 178.343L93.192 179.938C93.917 180.358 93.9245 181.4 93.2058 181.831Z" fill="white"/>
<path d="M88.7242 184.01C88.0059 184.01 87.301 183.816 86.6841 183.448L84.0526 181.883C83.858 181.769 83.697 181.605 83.5854 181.409C83.4739 181.213 83.4158 180.991 83.417 180.766C83.416 180.541 83.4743 180.319 83.5859 180.123C83.6976 179.927 83.8588 179.764 84.0534 179.649L86.4117 178.249C87.0302 177.882 87.7354 177.687 88.4548 177.683C89.1741 177.679 89.8815 177.866 90.504 178.226L93.2598 179.821C93.4464 179.928 93.6016 180.082 93.7097 180.268C93.8177 180.454 93.8749 180.665 93.8754 180.879C93.878 181.094 93.8239 181.306 93.7186 181.493C93.6132 181.68 93.4603 181.837 93.2752 181.946L90.7733 183.443C90.1544 183.814 89.4461 184.01 88.7243 184.01L88.7242 184.01ZM88.4773 177.952C87.7988 177.952 87.1328 178.134 86.5496 178.48L84.1913 179.881C84.037 179.971 83.9092 180.101 83.8208 180.256C83.7323 180.411 83.6861 180.587 83.687 180.766C83.6861 180.945 83.7322 181.12 83.8205 181.276C83.9089 181.431 84.0366 181.561 84.1907 181.651L86.8222 183.217C87.3988 183.56 88.0578 183.741 88.7292 183.74C89.4006 183.739 90.0591 183.557 90.6348 183.212L93.1366 181.715C93.2813 181.629 93.4008 181.507 93.4832 181.361C93.5655 181.214 93.6078 181.049 93.6057 180.881C93.6054 180.713 93.5607 180.548 93.4762 180.403C93.3918 180.258 93.2705 180.138 93.1246 180.054L90.3688 178.459C89.7942 178.126 89.1417 177.951 88.4774 177.952L88.4773 177.952Z" fill="#474747"/>
<path d="M102.229 187.573L99.7276 189.07C99.1309 189.427 98.4485 189.616 97.7529 189.617C97.0573 189.618 96.3744 189.431 95.7768 189.075L93.1453 187.51C92.7913 187.3 92.6022 186.949 92.5782 186.588C92.5507 186.175 92.6016 185.726 92.6016 185.726L95.5043 184.108C96.102 183.753 96.7837 183.564 97.4791 183.56C98.1745 183.556 98.8583 183.737 99.4599 184.086L102.216 185.681C102.458 185.821 102.764 185.987 102.764 185.987C102.764 185.987 102.783 186.687 102.733 186.894C102.699 187.035 102.636 187.168 102.55 187.285C102.464 187.401 102.355 187.499 102.229 187.573V187.573Z" fill="white"/>
<path d="M97.748 189.752C97.0298 189.752 96.3249 189.558 95.7081 189.191L93.0765 187.626C92.7031 187.404 92.4725 187.029 92.4439 186.597C92.416 186.176 92.4655 185.729 92.4677 185.71C92.4701 185.689 92.4775 185.669 92.4894 185.651C92.5013 185.633 92.5173 185.618 92.5361 185.608L95.4389 183.99C96.6937 183.244 98.2619 183.236 99.5281 183.969L102.284 185.564C102.522 185.702 102.826 185.866 102.829 185.868C102.871 185.891 102.898 185.935 102.899 185.983C102.901 186.056 102.917 186.707 102.864 186.926C102.786 187.246 102.586 187.517 102.299 187.689L99.7973 189.185C99.1783 189.556 98.4701 189.752 97.7483 189.752L97.748 189.752ZM92.7291 185.809C92.7167 185.948 92.6928 186.276 92.7132 186.579C92.7359 186.921 92.9187 187.218 93.2147 187.394L95.8462 188.959C96.4227 189.303 97.0817 189.484 97.7531 189.483C98.4244 189.482 99.083 189.299 99.6586 188.954L102.16 187.457C102.27 187.393 102.366 187.307 102.441 187.204C102.517 187.102 102.572 186.986 102.602 186.862C102.635 186.724 102.635 186.295 102.631 186.067C102.469 185.979 102.308 185.889 102.148 185.797L99.3925 184.202C98.8116 183.866 98.1514 183.691 97.4801 183.695C96.8088 183.698 96.1506 183.881 95.5734 184.223L92.7291 185.809Z" fill="#474747"/>
<path d="M102.229 187.035L99.7276 188.531C99.1309 188.888 98.4485 189.077 97.7529 189.078C97.0573 189.079 96.3744 188.892 95.7768 188.537L93.1452 186.972C92.3854 186.52 92.3857 185.421 93.1459 184.97L95.5042 183.569C96.1019 183.214 96.7837 183.025 97.4791 183.021C98.1744 183.017 98.8583 183.199 99.4599 183.547L102.216 185.142C102.941 185.562 102.948 186.604 102.229 187.035Z" fill="white"/>
<path d="M97.748 189.214C97.0297 189.214 96.3249 189.02 95.708 188.652L93.0765 187.087C92.882 186.973 92.7209 186.81 92.6094 186.614C92.4978 186.418 92.4398 186.196 92.4409 185.97C92.4399 185.745 92.4981 185.523 92.6098 185.327C92.7214 185.131 92.8826 184.968 93.0773 184.854L95.4355 183.453C96.054 183.086 96.7592 182.891 97.4785 182.887C98.1979 182.883 98.9053 183.07 99.5278 183.43L102.284 185.025C102.47 185.132 102.625 185.286 102.733 185.472C102.842 185.658 102.899 185.869 102.899 186.083C102.902 186.298 102.848 186.51 102.742 186.697C102.637 186.884 102.484 187.041 102.299 187.15L99.7971 188.647C99.1782 189.018 98.4698 189.214 97.748 189.214ZM97.5012 183.156C96.8227 183.156 96.1566 183.338 95.5734 183.685L93.2152 185.085C92.8995 185.273 92.711 185.603 92.7109 185.97C92.7108 186.337 92.8992 186.668 93.2146 186.856L95.8462 188.421C96.4227 188.764 97.0817 188.945 97.753 188.944C98.4244 188.943 99.0829 188.761 99.6585 188.416L102.16 186.919C102.305 186.833 102.425 186.711 102.507 186.565C102.589 186.418 102.632 186.253 102.63 186.085C102.629 185.917 102.584 185.753 102.5 185.607C102.416 185.462 102.294 185.342 102.148 185.259L99.3926 183.663C98.818 183.331 98.1655 183.156 97.5014 183.156H97.5012Z" fill="#474747"/>
<path d="M48.3773 156.488L45.8754 157.985C45.2787 158.342 44.5963 158.531 43.9007 158.532C43.2051 158.533 42.5222 158.346 41.9246 157.99L39.2931 156.425C38.9391 156.215 38.7501 155.864 38.7261 155.503C38.6985 155.09 38.7494 154.641 38.7494 154.641L41.6521 153.023C42.2498 152.668 42.9315 152.479 43.6269 152.475C44.3223 152.471 45.0061 152.652 45.6078 153.001L48.3635 154.596C48.6061 154.736 48.9119 154.902 48.9119 154.902C48.9119 154.902 48.931 155.602 48.8805 155.809C48.8464 155.95 48.7843 156.083 48.6979 156.2C48.6114 156.316 48.5024 156.414 48.3773 156.488V156.488Z" fill="white"/>
<path d="M43.8957 158.667C43.1774 158.667 42.4725 158.473 41.8556 158.106L39.2241 156.541C38.8509 156.319 38.6202 155.944 38.5915 155.512C38.5636 155.091 38.6132 154.644 38.6154 154.625C38.6204 154.582 38.6459 154.544 38.6838 154.523L41.5865 152.905C42.8413 152.16 44.4093 152.151 45.6757 152.884L48.4315 154.479C48.6723 154.618 48.976 154.783 48.9764 154.783C49.0187 154.806 49.0457 154.85 49.0469 154.898C49.0489 154.971 49.0649 155.622 49.0117 155.84C48.9339 156.161 48.7333 156.432 48.4467 156.603L45.945 158.1C45.326 158.471 44.6178 158.667 43.896 158.667H43.8957ZM38.8768 154.724C38.8643 154.863 38.8404 155.191 38.8608 155.494C38.8836 155.836 39.0664 156.133 39.3622 156.309L41.9938 157.874C42.5703 158.218 43.2293 158.399 43.9007 158.398C44.5721 158.397 45.2307 158.214 45.8063 157.869L48.308 156.372C48.4177 156.308 48.5133 156.222 48.5891 156.119C48.6649 156.017 48.7194 155.901 48.7495 155.777C48.7829 155.639 48.7828 155.21 48.7787 154.982C48.6168 154.894 48.4558 154.804 48.2959 154.712L45.5401 153.117C44.9592 152.781 44.299 152.606 43.6277 152.61C42.9563 152.613 42.2981 152.796 41.721 153.138L38.8768 154.724V154.724Z" fill="#474747"/>
<path d="M48.3773 155.949L45.8754 157.446C45.2787 157.803 44.5963 157.992 43.9007 157.993C43.2051 157.994 42.5222 157.807 41.9246 157.451L39.2931 155.886C38.5333 155.434 38.5335 154.336 39.2937 153.884L41.6521 152.484C42.2498 152.129 42.9315 151.939 43.6269 151.936C44.3223 151.932 45.0061 152.113 45.6077 152.461L48.3635 154.057C49.0885 154.476 49.0961 155.519 48.3773 155.949Z" fill="white"/>
<path d="M43.8957 158.128C43.1774 158.128 42.4725 157.934 41.8556 157.567L39.2241 156.002C39.0295 155.887 38.8685 155.724 38.757 155.528C38.6454 155.332 38.5874 155.11 38.5885 154.885C38.5875 154.659 38.6457 154.438 38.7574 154.242C38.869 154.046 39.0302 153.882 39.2249 153.768L41.5831 152.368C42.2015 152.001 42.9068 151.805 43.6261 151.801C44.3455 151.797 45.0529 151.985 45.6754 152.345L48.4312 153.94C48.6178 154.047 48.773 154.201 48.8811 154.387C48.9891 154.572 49.0463 154.783 49.0468 154.998C49.0494 155.213 48.9953 155.425 48.8899 155.612C48.7846 155.799 48.6316 155.955 48.4466 156.065L45.9448 157.562C45.3259 157.932 44.6175 158.128 43.8957 158.128ZM43.6488 152.071C42.9702 152.07 42.3042 152.253 41.721 152.599L39.3628 154C39.2085 154.09 39.0808 154.22 38.9923 154.375C38.9038 154.53 38.8576 154.706 38.8585 154.885C38.8576 155.064 38.9036 155.239 38.992 155.395C39.0804 155.55 39.2081 155.68 39.3622 155.77L41.9937 157.335C42.5703 157.679 43.2293 157.86 43.9007 157.859C44.5721 157.858 45.2306 157.675 45.8063 157.33L48.308 155.834C48.4527 155.748 48.5722 155.626 48.6545 155.48C48.7369 155.333 48.7792 155.168 48.7771 155C48.7767 154.832 48.732 154.667 48.6476 154.522C48.5631 154.377 48.4419 154.257 48.296 154.173L45.5402 152.578C44.9656 152.245 44.313 152.07 43.6488 152.071Z" fill="#474747"/>
<path d="M57.4007 161.692L54.8988 163.189C54.3022 163.546 53.6198 163.735 52.9242 163.735C52.2286 163.736 51.5457 163.549 50.948 163.194L48.3165 161.629C47.9625 161.418 47.7735 161.067 47.7495 160.707C47.722 160.294 47.7728 159.844 47.7728 159.844L50.6755 158.226C51.2732 157.871 51.955 157.682 52.6504 157.678C53.3457 157.674 54.0296 157.856 54.6312 158.204L57.387 159.799C57.6295 159.94 57.9354 160.105 57.9354 160.105C57.9354 160.105 57.9544 160.805 57.9039 161.013C57.8698 161.154 57.8077 161.287 57.7213 161.403C57.6349 161.52 57.5259 161.618 57.4007 161.692V161.692Z" fill="white"/>
<path d="M52.9194 163.871C52.2011 163.871 51.4962 163.677 50.8793 163.31L48.2478 161.745C47.8746 161.523 47.6441 161.148 47.6152 160.716C47.5873 160.296 47.6369 159.848 47.6391 159.829C47.6441 159.786 47.6696 159.748 47.7075 159.727L50.6103 158.109C51.8652 157.364 53.4333 157.355 54.6995 158.088L57.4553 159.683C57.6931 159.821 57.9972 159.985 58.0002 159.987C58.021 159.998 58.0385 160.015 58.0509 160.035C58.0633 160.055 58.0701 160.078 58.0707 160.102C58.0728 160.175 58.0887 160.826 58.0354 161.045C57.9577 161.365 57.7571 161.636 57.4704 161.808L54.9685 163.305C54.3496 163.675 53.6414 163.871 52.9195 163.872L52.9194 163.871ZM47.9005 159.928C47.888 160.067 47.8641 160.395 47.8845 160.698C47.9073 161.04 48.0901 161.338 48.3859 161.513L51.0174 163.078C51.594 163.422 52.253 163.603 52.9244 163.602C53.5958 163.601 54.2544 163.418 54.83 163.073L57.3318 161.576C57.4415 161.512 57.537 161.426 57.6128 161.323C57.6886 161.221 57.7431 161.105 57.7731 160.981C57.8067 160.843 57.8066 160.414 57.8025 160.186C57.6406 160.098 57.4796 160.008 57.3197 159.916L54.5639 158.321C53.983 157.985 53.3228 157.81 52.6515 157.814C51.9801 157.817 51.322 158 50.7448 158.342L47.9005 159.928Z" fill="#474747"/>
<path d="M57.4008 161.153L54.8989 162.65C54.3023 163.007 53.6199 163.196 52.9243 163.197C52.2287 163.197 51.5458 163.01 50.9481 162.655L48.3166 161.09C47.5568 160.638 47.5571 159.539 48.3173 159.088L50.6756 157.687C51.2733 157.332 51.9551 157.143 52.6504 157.139C53.3458 157.135 54.0297 157.317 54.6313 157.665L57.3871 159.26C58.1121 159.68 58.1196 160.723 57.4008 161.153Z" fill="white"/>
<path d="M52.9192 163.332C52.2009 163.332 51.496 163.138 50.8791 162.771L48.2476 161.206C48.0531 161.092 47.892 160.928 47.7805 160.732C47.669 160.536 47.611 160.314 47.6122 160.089C47.6111 159.863 47.6693 159.642 47.781 159.446C47.8926 159.25 48.0538 159.087 48.2484 158.972L50.6068 157.572C51.2252 157.205 51.9305 157.009 52.6498 157.005C53.3692 157.001 54.0766 157.189 54.6991 157.549L57.4549 159.144C57.6415 159.251 57.7967 159.405 57.9047 159.591C58.0128 159.777 58.07 159.987 58.0704 160.202C58.0731 160.417 58.019 160.629 57.9136 160.816C57.8083 161.003 57.6553 161.159 57.4702 161.269L54.9684 162.766C54.3494 163.137 53.6412 163.333 52.9194 163.333L52.9192 163.332ZM52.6725 157.275C51.9939 157.274 51.3279 157.457 50.7446 157.803L48.3863 159.204C48.0706 159.391 47.8822 159.722 47.8822 160.089C47.8822 160.456 48.0704 160.787 48.3858 160.974L51.0173 162.539C51.5938 162.883 52.2529 163.064 52.9243 163.063C53.5956 163.062 54.2542 162.879 54.8298 162.534L57.3317 161.037C57.4763 160.952 57.5959 160.83 57.6782 160.683C57.7606 160.537 57.8028 160.372 57.8008 160.204C57.8004 160.036 57.7557 159.871 57.6713 159.726C57.5868 159.581 57.4656 159.46 57.3197 159.377L54.5639 157.782C53.9893 157.449 53.3368 157.274 52.6726 157.274L52.6725 157.275Z" fill="#474747"/>
<path d="M78.2902 178.689L57.1112 166.142C56.9881 166.069 56.8833 165.97 56.8046 165.851C56.726 165.732 56.6757 165.597 56.6575 165.456C56.6096 165.093 56.6576 164.666 56.6576 164.666L60.1423 162.835C60.5625 162.601 61.0358 162.48 61.5166 162.483C61.9973 162.487 62.4691 162.613 62.8862 162.852L84.7436 175.454C84.7436 175.454 84.7943 175.921 84.7544 176.28C84.7386 176.426 84.6892 176.566 84.6099 176.69C84.5307 176.813 84.4237 176.917 84.2976 176.992L81.5138 178.677C81.0282 178.971 80.4715 179.128 79.9036 179.13C79.3357 179.132 78.7779 178.98 78.2901 178.689H78.2902Z" fill="white"/>
<path d="M79.8924 179.266C79.315 179.266 78.7373 179.112 78.2212 178.805L57.0423 166.258C56.9019 166.175 56.7823 166.061 56.6924 165.925C56.6026 165.789 56.5449 165.635 56.5238 165.474C56.4744 165.099 56.5215 164.669 56.5235 164.651C56.526 164.63 56.5338 164.609 56.5462 164.59C56.5586 164.572 56.5753 164.558 56.5948 164.547L60.0795 162.716C60.967 162.223 62.0694 162.23 62.9533 162.735L84.8112 175.337C84.8295 175.348 84.8452 175.363 84.8567 175.38C84.8683 175.398 84.8755 175.418 84.8778 175.439C84.88 175.459 84.9298 175.926 84.8886 176.295C84.8705 176.461 84.814 176.621 84.7236 176.762C84.6333 176.903 84.5115 177.021 84.3677 177.108L81.5839 178.793C81.0741 179.102 80.489 179.266 79.8924 179.266ZM56.7854 164.751C56.7746 164.884 56.7575 165.181 56.7913 165.438C56.8072 165.559 56.8505 165.675 56.9179 165.777C56.9853 165.879 57.0751 165.964 57.1804 166.026L78.3592 178.573C78.8257 178.852 79.3595 178.998 79.9031 178.996C80.4466 178.994 80.9794 178.844 81.4439 178.562L84.2277 176.877C84.336 176.812 84.4278 176.723 84.4959 176.617C84.564 176.511 84.6066 176.39 84.6203 176.265C84.6494 176.004 84.6276 175.675 84.6158 175.536L62.8188 162.969C62.0168 162.51 61.0163 162.504 60.2079 162.952L56.7853 164.751L56.7854 164.751Z" fill="#474747"/>
<path d="M78.2902 178.15L57.1112 165.603C56.4844 165.23 56.4983 164.319 57.136 163.964L60.1424 162.296C60.5626 162.062 61.036 161.941 61.5167 161.944C61.9974 161.947 62.4692 162.074 62.8863 162.313L84.2772 174.8C84.9125 175.163 84.9238 176.074 84.2978 176.453L81.5141 178.138C81.0285 178.432 80.4718 178.589 79.9039 178.591C79.3359 178.593 78.7781 178.44 78.2903 178.15L78.2902 178.15Z" fill="white"/>
<path d="M79.8924 178.727C79.315 178.727 78.7375 178.574 78.2213 178.266L57.0423 165.719C56.7058 165.519 56.5086 165.166 56.5145 164.775C56.5205 164.384 56.7284 164.037 57.0705 163.847L60.0768 162.178C60.9675 161.684 62.0695 161.691 62.9533 162.197L84.3451 174.684C84.511 174.778 84.6491 174.914 84.7457 175.078C84.8423 175.242 84.8938 175.429 84.8951 175.619C84.8985 175.81 84.8515 175.998 84.7589 176.165C84.6663 176.331 84.5313 176.471 84.3676 176.569L81.5838 178.254C81.0739 178.563 80.4889 178.727 79.8923 178.727L79.8924 178.727ZM61.499 162.082C61.0531 162.082 60.6073 162.192 60.2081 162.414L57.2018 164.083C56.9449 164.225 56.7888 164.485 56.7844 164.779C56.7799 165.072 56.9279 165.337 57.1803 165.487L78.3592 178.035C78.8257 178.313 79.3595 178.459 79.9031 178.457C80.4467 178.456 80.9794 178.305 81.4439 178.024L84.2277 176.338C84.3512 176.264 84.4529 176.159 84.5227 176.034C84.5925 175.908 84.6279 175.766 84.6253 175.623C84.6243 175.479 84.5853 175.338 84.5124 175.214C84.4395 175.09 84.3351 174.988 84.2099 174.917L62.8181 162.43C62.4163 162.201 61.9616 162.081 61.499 162.082Z" fill="#474747"/>
</g>
<g clip-path="url(#clip2_1666_40475)">
<path d="M155.577 139.011C155.576 139.742 154.783 140.197 154.149 139.831L74.8802 93.9694C74.3156 93.6441 73.8463 93.1765 73.5193 92.6132C73.1924 92.0499 73.0191 91.4107 73.0168 90.7596L72.8245 34.9972C72.8217 34.2057 73.6786 33.7089 74.3652 34.1039L154.058 79.9643C154.562 80.2543 154.98 80.6722 155.271 81.1756C155.561 81.679 155.713 82.2501 155.712 82.8312L155.577 139.011Z" fill="#E0E9EC" stroke="#989898" stroke-width="0.893909" stroke-miterlimit="10" stroke-linecap="round" stroke-linejoin="round"/>
</g>
<g clip-path="url(#clip3_1666_40475)">
<path d="M129.634 196.657C129.634 196.657 129.527 197.986 129.866 199.205C130.163 200.273 130.895 201.233 131.085 201.458C134.181 205.133 141.941 205.589 143.752 205.469C146.192 205.308 147.994 204.99 149.81 204.172C153.599 202.464 156.189 201.021 162.438 197.108C164.143 196.041 165.577 194.771 166.018 192.847C166.354 191.381 166.033 189.511 166.033 189.511L129.634 196.657Z" fill="#FFE58B"/>
<path d="M143.23 205.6C140.921 205.6 133.94 205.03 130.995 201.534C130.959 201.49 130.09 200.45 129.753 199.236C129.413 198.012 129.512 196.703 129.517 196.648C129.519 196.623 129.529 196.599 129.546 196.579C129.563 196.56 129.586 196.547 129.611 196.543L166.01 189.396C166.026 189.393 166.041 189.393 166.057 189.396C166.072 189.4 166.086 189.406 166.099 189.415C166.112 189.424 166.123 189.435 166.131 189.448C166.14 189.461 166.145 189.476 166.148 189.491C166.161 189.569 166.469 191.401 166.132 192.873C165.643 195.006 163.934 196.31 162.5 197.207C156.281 201.101 153.682 202.555 149.858 204.279C147.907 205.158 146.009 205.437 143.76 205.586C143.632 205.595 143.453 205.6 143.23 205.6ZM129.745 196.755C129.729 197.069 129.699 198.167 129.979 199.174C130.302 200.339 131.139 201.341 131.175 201.383C134.34 205.141 142.308 205.448 143.744 205.353C145.969 205.205 147.843 204.93 149.762 204.065C153.574 202.347 156.168 200.896 162.376 197.009C163.772 196.135 165.434 194.869 165.904 192.821C166.183 191.604 165.998 190.08 165.936 189.649L129.745 196.755Z" fill="#474747"/>
<path d="M160.414 184.934C156.806 183.312 153.482 181.902 149.002 182.19C144.403 182.485 129.64 189.177 129.634 196.657C129.633 197.244 129.601 199.08 131.5 201.229C134.342 204.447 139.352 204.098 141.71 203.716C146.811 202.889 151.834 200.071 151.834 200.071L163.245 193.596C167.149 191.066 166.273 188.92 164.704 187.636C163.511 186.66 161.932 185.617 160.414 184.934Z" fill="white"/>
<path d="M138.761 204.079C136.273 204.079 133.359 203.511 131.412 201.306C129.513 199.156 129.516 197.295 129.516 196.684V196.657C129.52 192.255 134.542 188.485 137.534 186.63C142 183.862 146.772 182.216 148.995 182.073C153.332 181.795 156.484 183.039 160.462 184.828C161.865 185.459 163.439 186.449 164.778 187.545C165.437 188.085 166.21 188.969 166.146 190.118C166.08 191.314 165.125 192.517 163.309 193.694L151.892 200.173C151.841 200.201 146.792 203.011 141.728 203.831C140.91 203.964 139.878 204.079 138.761 204.079ZM150.189 182.268C149.805 182.268 149.413 182.281 149.01 182.307C146.785 182.45 141.93 184.18 137.658 186.829C134.706 188.658 129.754 192.368 129.75 196.657V196.684C129.75 197.274 129.747 199.068 131.587 201.152C134.335 204.262 139.097 204.021 141.691 203.601C146.712 202.787 151.726 199.997 151.777 199.969L163.187 193.494C164.932 192.364 165.85 191.222 165.912 190.105C165.971 189.054 165.247 188.232 164.629 187.726C163.305 186.643 161.751 185.664 160.366 185.041C156.79 183.433 153.889 182.268 150.189 182.268Z" fill="#474747"/>
<path d="M161.653 194.559C161.632 194.559 161.612 194.554 161.594 194.544C161.576 194.534 161.561 194.519 161.551 194.501C161.523 194.452 158.66 189.584 152.516 186.484C147.509 183.958 143.524 183.927 143.484 183.927C143.453 183.927 143.424 183.915 143.402 183.893C143.38 183.871 143.367 183.841 143.367 183.81C143.367 183.779 143.38 183.749 143.402 183.727C143.424 183.705 143.453 183.693 143.484 183.693C143.525 183.693 147.561 183.722 152.621 186.275C158.83 189.408 161.725 194.335 161.754 194.384C161.764 194.402 161.769 194.422 161.769 194.442C161.769 194.463 161.764 194.483 161.754 194.501C161.744 194.519 161.729 194.533 161.711 194.544C161.693 194.554 161.673 194.559 161.653 194.559Z" fill="#474747"/>
<path d="M152.577 186.512C152.552 186.512 152.527 186.504 152.507 186.489C152.487 186.474 152.472 186.453 152.465 186.429C152.457 186.405 152.458 186.379 152.466 186.355C152.475 186.331 152.491 186.311 152.512 186.297C155.155 184.533 157.891 184.178 159.57 184.434C159.601 184.439 159.628 184.456 159.647 184.481C159.665 184.506 159.673 184.537 159.668 184.568C159.663 184.598 159.647 184.626 159.622 184.644C159.597 184.663 159.565 184.67 159.535 184.666C157.9 184.416 155.23 184.764 152.642 186.492C152.622 186.505 152.6 186.511 152.577 186.511L152.577 186.512Z" fill="#474747"/>
</g>
<g clip-path="url(#clip4_1666_40475)">
<path d="M119.327 76.4382L48.125 35.5306C47.2135 35.0069 46.0772 35.6673 46.0805 36.7189L46.2659 97.8897C46.2666 98.1116 46.3253 98.3294 46.4363 98.5214C46.5472 98.7135 46.7064 98.8732 46.8982 98.9845L120.994 142.002C121.005 142.008 121.017 142.012 121.029 142.012C121.041 142.012 121.054 142.009 121.064 142.002C121.075 141.996 121.084 141.988 121.09 141.977C121.096 141.966 121.099 141.954 121.099 141.942L121.295 79.8507C121.297 79.1587 121.116 78.4786 120.77 77.8792C120.425 77.2799 119.927 76.7827 119.327 76.4381V76.4382Z" fill="white"/>
<path d="M121.029 142.092C121.003 142.092 120.977 142.085 120.954 142.072L46.8577 99.0539C46.6541 98.9352 46.4851 98.7654 46.3672 98.5612C46.2493 98.3571 46.1867 98.1258 46.1855 97.89L46 36.7191C45.9984 36.1962 46.2673 35.7273 46.7192 35.4645C47.1711 35.202 47.7115 35.2005 48.1647 35.4609L119.367 76.3686C120.61 77.0825 121.379 78.4169 121.375 79.8508L121.179 141.942C121.179 141.969 121.172 141.994 121.159 142.017C121.146 142.04 121.127 142.059 121.104 142.072C121.081 142.085 121.055 142.092 121.029 142.092V142.092ZM47.445 35.4274C47.2233 35.4274 47.0016 35.486 46.7998 35.6033C46.3981 35.8369 46.159 36.2537 46.1604 36.7186L46.3459 97.8895C46.3469 98.0972 46.4021 98.3011 46.506 98.481C46.6099 98.6608 46.7588 98.8104 46.9382 98.9151L121.019 141.924L121.214 79.8504C121.218 78.474 120.48 77.1931 119.287 76.5078L48.0848 35.6001C47.8843 35.4849 47.6646 35.4274 47.445 35.4274Z" fill="#474747"/>
<path d="M122.717 76.6489C123.083 77.2612 123.275 77.9619 123.273 78.6755L123.078 140.766L121.077 141.993C121.084 141.987 121.089 141.979 121.093 141.97C121.097 141.961 121.099 141.952 121.099 141.942L121.294 79.8502C121.296 79.1682 121.12 78.4974 120.784 77.9042L122.717 76.6489Z" fill="#474747"/>
<path d="M121.077 142.074C121.061 142.074 121.046 142.069 121.033 142.06C121.019 142.051 121.009 142.039 121.003 142.024C120.997 142.01 120.995 141.994 120.998 141.978C121.001 141.962 121.009 141.948 121.02 141.937L121.214 79.8502C121.215 79.1822 121.043 78.5251 120.714 77.9439C120.704 77.9261 120.701 77.9051 120.706 77.8852C120.711 77.8654 120.723 77.8481 120.74 77.837L122.673 76.5818C122.682 76.5759 122.692 76.5719 122.703 76.5701C122.713 76.5682 122.724 76.5685 122.735 76.5709C122.745 76.5734 122.755 76.5779 122.764 76.5842C122.773 76.5906 122.78 76.5986 122.785 76.6078C123.159 77.2327 123.355 77.9477 123.353 78.6758L123.158 140.766C123.158 140.78 123.154 140.794 123.148 140.805C123.141 140.817 123.131 140.827 123.12 140.835L121.119 142.062C121.106 142.07 121.092 142.074 121.077 142.074ZM120.89 77.9309C121.21 78.5203 121.376 79.1804 121.374 79.8507L121.179 141.837L122.998 140.721L123.193 78.6755C123.195 78.0047 123.021 77.3451 122.69 76.7622L120.89 77.9309Z" fill="#474747"/>
<path d="M120.784 77.904C120.438 77.2936 119.935 76.7872 119.327 76.4378L48.1245 35.5303C47.6734 35.2712 47.167 35.3018 46.7712 35.5259C47.1525 35.29 48.4678 34.4734 48.8607 34.2943C49.2376 34.124 49.693 34.1197 50.1034 34.3555L121.305 75.263C121.887 75.5963 122.373 76.0735 122.716 76.6488L120.784 77.904Z" fill="white"/>
<path d="M120.784 77.9847C120.77 77.9848 120.756 77.981 120.743 77.9739C120.731 77.9667 120.721 77.9564 120.714 77.9441C120.375 77.3463 119.882 76.8503 119.287 76.5079L48.0846 35.6004C47.6864 35.3715 47.2102 35.37 46.8109 35.5962C46.7926 35.6063 46.7711 35.6089 46.751 35.6035C46.7308 35.598 46.7136 35.5849 46.703 35.5669C46.6923 35.549 46.6891 35.5276 46.694 35.5072C46.6989 35.4869 46.7115 35.4694 46.7291 35.4582L46.7748 35.4299C47.2315 35.1472 48.4445 34.3963 48.8276 34.2217C49.2559 34.0282 49.7354 34.0517 50.1434 34.2863L121.345 75.1939C121.938 75.5344 122.434 76.0213 122.785 76.6081C122.808 76.6452 122.796 76.6932 122.76 76.7167L120.828 77.9719C120.815 77.9803 120.799 77.9848 120.784 77.9848L120.784 77.9847ZM47.4441 35.2669C47.6916 35.2669 47.9392 35.3318 48.1645 35.4612L119.366 76.3688C119.962 76.7112 120.459 77.201 120.811 77.7913L122.607 76.6246C122.273 76.0905 121.812 75.6469 121.266 75.333L50.0635 34.4254C49.7007 34.2169 49.2743 34.196 48.8939 34.3678C48.6206 34.4924 47.8782 34.9399 47.3385 35.2709C47.3736 35.2682 47.4088 35.2669 47.4441 35.2669V35.2669Z" fill="#474747"/>
<path d="M46.091 40.1864L121.295 83.5775V79.8508C121.297 79.1589 121.116 78.4787 120.77 77.8794C120.425 77.28 119.927 76.7828 119.327 76.4383L48.125 35.5306C47.2135 35.0069 46.0772 35.6673 46.0805 36.7189L46.091 40.1864Z" fill="#FFE58B"/>
<path d="M121.294 83.6577C121.281 83.6577 121.267 83.6541 121.254 83.6469L46.0507 40.2559C46.0385 40.2489 46.0284 40.2388 46.0214 40.2266C46.0143 40.2145 46.0106 40.2007 46.0106 40.1866L46 36.7191C45.9984 36.1962 46.2673 35.7273 46.7192 35.4645C47.1711 35.202 47.7115 35.2005 48.1647 35.4609L119.367 76.3686C120.61 77.0825 121.379 78.4169 121.375 79.8508V83.5773C121.375 83.5878 121.373 83.5983 121.369 83.608C121.365 83.6178 121.359 83.6266 121.351 83.6341C121.344 83.6415 121.335 83.6474 121.325 83.6515C121.315 83.6555 121.305 83.6576 121.294 83.6575V83.6577ZM46.1707 40.1399L121.214 83.4385V79.8507C121.218 78.474 120.48 77.1931 119.287 76.5078L48.0848 35.6001C47.6819 35.3687 47.2015 35.3699 46.7998 35.6033C46.3981 35.8369 46.159 36.2537 46.1604 36.7186L46.1707 40.1399Z" fill="#474747"/>
<path d="M49.5823 40.4949C50.0725 40.2117 50.0664 39.2828 49.5686 38.4202C49.0708 37.5576 48.2698 37.0878 47.7796 37.371C47.2893 37.6542 47.2954 38.5831 47.7932 39.4457C48.291 40.3084 49.092 40.7781 49.5823 40.4949Z" fill="#C3D9DF"/>
<path d="M49.2559 40.6591C48.7532 40.6591 48.1423 40.2109 47.7238 39.4857C47.1959 38.5709 47.2028 37.6115 47.7395 37.3013C48.2763 36.9914 49.1102 37.4651 49.6381 38.3799C50.166 39.2946 50.1592 40.2541 49.6224 40.5642C49.5113 40.6284 49.3872 40.6591 49.2559 40.6591ZM48.1062 37.3672C48.0024 37.3672 47.9056 37.3908 47.8197 37.4403C47.3685 37.701 47.3878 38.5825 47.8627 39.4054C48.3376 40.2283 49.091 40.6859 49.5422 40.4253C49.9933 40.1646 49.9741 39.2831 49.4992 38.4602C49.1147 37.7939 48.5476 37.3672 48.1062 37.3672Z" fill="#474747"/>
<path d="M53.3297 42.7239C53.82 42.4407 53.8138 41.5118 53.316 40.6492C52.8182 39.7866 52.0173 39.3168 51.527 39.6C51.0367 39.8832 51.0428 40.8121 51.5406 41.6747C52.0384 42.5374 52.8394 43.0071 53.3297 42.7239Z" fill="#DBF301"/>
<path d="M53.0033 42.8885C52.5006 42.8885 51.8896 42.4403 51.4711 41.7151C50.9432 40.8003 50.9501 39.8409 51.4868 39.5307C52.0237 39.221 52.8576 39.6946 53.3854 40.6093C53.9133 41.5241 53.9064 42.4835 53.3697 42.7937C53.2586 42.8578 53.1345 42.8885 53.0033 42.8885ZM51.8535 39.5966C51.7498 39.5966 51.653 39.6202 51.567 39.6698C51.1159 39.9304 51.1351 40.8119 51.61 41.6349C52.0848 42.4577 52.8382 42.9153 53.2895 42.6547C53.7407 42.394 53.7214 41.5126 53.2465 40.6896C52.8621 40.0233 52.295 39.5966 51.8535 39.5966Z" fill="#474747"/>
<path d="M57.0346 44.8221C57.5249 44.5389 57.5188 43.61 57.021 42.7473C56.5232 41.8847 55.7222 41.415 55.2319 41.6982C54.7417 41.9814 54.7478 42.9102 55.2456 43.7729C55.7434 44.6355 56.5444 45.1053 57.0346 44.8221Z" fill="white"/>
<path d="M56.7082 44.9866C56.2056 44.9866 55.5946 44.5384 55.176 43.8132C54.9285 43.3841 54.7907 42.9245 54.788 42.519C54.7852 42.097 54.9286 41.781 55.1918 41.6288C55.7286 41.3192 56.5625 41.7927 57.0904 42.7074C57.338 43.1365 57.4758 43.5961 57.4785 44.0016C57.4813 44.4236 57.3379 44.7397 57.0746 44.8918C56.9635 44.956 56.8394 44.9866 56.7082 44.9866ZM55.5584 41.6947C55.4547 41.6947 55.3579 41.7183 55.2719 41.7679C55.0609 41.8898 54.946 42.1562 54.9483 42.518C54.9508 42.8962 55.081 43.3277 55.3149 43.733C55.7898 44.556 56.5432 45.0136 56.9944 44.7529C57.2054 44.631 57.3203 44.3646 57.318 44.0028C57.3155 43.6246 57.1853 43.1931 56.9514 42.7877C56.567 42.1214 55.9999 41.6947 55.5584 41.6947Z" fill="#474747"/>
</g>
<g clip-path="url(#clip5_1666_40475)">
<path d="M60.66 93.8889C59.9042 93.8889 58.9451 93.3924 58.2225 92.9718C58.1504 92.9248 51.4443 88.5336 44.8054 84.0048C31.3314 74.8133 31.2545 74.0254 31.2293 73.7665C31.1501 72.9542 31.0145 57.336 31.2181 53.7698C31.2578 53.0745 31.5257 52.5465 31.9726 52.2833C32.4172 52.0213 32.9988 52.0409 33.6099 52.3382C34.0158 52.5355 34.7803 53.0096 34.8126 53.0297L59.5568 67.2147C59.6375 67.2623 61.5083 68.3888 61.8468 70.6112C61.9357 71.195 61.9224 71.8043 61.9097 72.3935C61.9055 72.5884 61.9012 72.7821 61.9008 72.9731L61.8836 79.6776C61.879 81.4763 61.8743 83.7036 61.8697 85.9343C61.865 88.1995 61.8603 90.4683 61.8556 92.295C61.8602 93.0261 61.6629 93.513 61.2694 93.742C61.092 93.8451 60.8849 93.8892 60.6599 93.8892L60.66 93.8889ZM32.6745 52.3301C32.4585 52.3301 32.2604 52.3805 32.0888 52.4815C31.7101 52.7045 31.4822 53.1667 31.447 53.7829C31.2437 57.3439 31.3784 72.9337 31.4574 73.744C31.4917 74.095 33.2881 75.87 44.934 83.8145C51.5711 88.3422 58.2757 92.7321 58.3426 92.7759C59.2259 93.2901 60.4847 93.9328 61.1544 93.5429C61.472 93.3582 61.6307 92.9384 61.6266 92.2954V92.2942C61.6313 90.4675 61.636 88.1988 61.6407 85.9336C61.6452 83.703 61.6499 81.4756 61.6545 79.6768L61.6717 72.9723C61.6722 72.7799 61.6764 72.5849 61.6808 72.3884C61.6933 71.8089 61.7063 71.2098 61.6205 70.6459C61.2983 68.5304 59.4605 67.4245 59.4421 67.4136L34.6956 53.2272C34.6842 53.2202 33.9054 52.7371 33.5101 52.5448C33.2162 52.402 32.9326 52.3301 32.6745 52.3301Z" fill="#474747"/>
<path d="M61.4713 69.5198C61.0914 68.6581 60.4619 67.8952 59.6952 67.3851C57.0527 65.6274 33.8576 52.6069 33.4257 52.381C32.7253 52.0145 32.1121 52.3394 32.1121 52.3394L29.8691 53.5839C29.8691 53.5839 58.7985 69.5902 59.219 70.368L61.4712 69.5198H61.4713Z" fill="white"/>
<path d="M59.219 70.483C59.1984 70.4831 59.1782 70.4775 59.1604 70.4669C59.1427 70.4563 59.1281 70.4411 59.1183 70.4229C58.6393 69.728 37.8021 58.1045 29.8138 53.6847C29.7958 53.6747 29.7809 53.6602 29.7705 53.6425C29.76 53.6248 29.7545 53.6046 29.7545 53.5841C29.7545 53.5635 29.76 53.5434 29.7704 53.5256C29.7808 53.5079 29.7957 53.4934 29.8137 53.4834L32.0565 52.2387C32.0856 52.2232 32.7335 51.8893 33.4786 52.279C33.6525 52.3701 56.9999 65.4545 59.7583 67.2895C60.5382 67.8083 61.1837 68.5839 61.576 69.4733C61.5823 69.4877 61.5856 69.5031 61.5858 69.5188C61.5859 69.5344 61.5829 69.5499 61.5768 69.5644C61.5708 69.5788 61.5619 69.5918 61.5506 69.6027C61.5394 69.6135 61.5261 69.622 61.5115 69.6275L59.2592 70.4758C59.2463 70.4806 59.2328 70.483 59.219 70.483ZM30.106 53.5839C33.724 55.5863 57.7024 68.8772 59.2469 70.2348L61.316 69.4555C60.9376 68.6523 60.3431 67.9542 59.6317 67.481C56.8763 65.648 33.5464 52.5738 33.3726 52.4829C32.7372 52.1503 32.1881 52.4291 32.1651 52.4412L30.106 53.5839Z" fill="#474747"/>
<path d="M59.219 70.3677C59.4113 70.7235 59.2633 90.6517 59.2527 94.8119L61.3007 93.6281C61.3007 93.6281 61.8024 93.3897 61.8024 92.2841C61.8024 92.1416 62.214 73.8015 61.8319 70.7995C61.7762 70.3615 61.6519 69.9294 61.4712 69.5195L59.219 70.3677Z" fill="#474747"/>
<path d="M59.2526 94.9271C59.2375 94.9271 59.2226 94.9241 59.2086 94.9183C59.1947 94.9125 59.1821 94.904 59.1714 94.8933C59.1608 94.8826 59.1523 94.8699 59.1466 94.8559C59.1409 94.8419 59.1379 94.827 59.138 94.8118C59.14 94.0212 59.147 92.661 59.1556 90.9738C59.1891 84.4713 59.2585 70.9522 59.1138 70.4139C59.1076 70.3996 59.1043 70.3842 59.1042 70.3686C59.1042 70.353 59.1072 70.3375 59.1133 70.3232C59.1194 70.3088 59.1283 70.2958 59.1395 70.285C59.1507 70.2742 59.164 70.2658 59.1786 70.2603L61.4309 69.412C61.4583 69.4018 61.4885 69.4024 61.5155 69.4138C61.5424 69.4251 61.564 69.4464 61.5759 69.4732C61.7649 69.9017 61.8893 70.3432 61.9456 70.7851C62.2654 73.2991 62.0366 86.432 61.9234 91.9615C61.921 92.0692 61.9188 92.1768 61.917 92.2845C61.917 93.4493 61.3729 93.7211 61.3497 93.7322L59.3099 94.9117C59.2924 94.9218 59.2727 94.9271 59.2526 94.9271ZM59.3441 70.4438C59.4601 71.5207 59.447 78.8809 59.3848 90.9752C59.3769 92.5278 59.3703 93.8033 59.3677 94.613L61.2434 93.5288C61.2545 93.523 61.6878 93.2894 61.6878 92.2845C61.6878 92.2737 61.6901 92.1598 61.6943 91.9569C61.8074 86.4324 62.0362 73.3131 61.7183 70.8144C61.6692 70.4287 61.5653 70.0428 61.4091 69.6659L59.3441 70.4438Z" fill="#474747"/>
<path d="M59.7389 93.4916C59.7482 89.866 59.8479 72.3786 59.7314 71.6138C59.3972 69.4199 57.4977 68.5113 57.4977 68.5113C57.4977 68.5113 31.9631 53.8356 31.5577 53.6385C30.3848 53.068 29.1105 53.5872 29.1146 54.9643C29.126 58.718 29.1327 76.2252 29.2034 76.9504C29.3585 78.5397 30.5618 79.4722 31.6962 80.1866C35.1774 82.3792 56.2777 94.0693 56.2777 94.0693C57.473 94.7651 59.7547 95.947 59.7388 93.4916H59.7389Z" fill="#FFE58B"/>
<path d="M58.6577 95.0857C57.902 95.0857 56.9428 94.5892 56.2202 94.1685C56.0113 94.0528 35.0794 82.4529 31.6353 80.2836C30.4647 79.5464 29.2468 78.5751 29.0895 76.9614C29.0338 76.3916 29.0174 65.6034 29.0076 59.1577C29.0048 57.3055 29.0025 55.7969 29 54.9644C28.9981 54.3376 29.2502 53.8328 29.7098 53.5431C30.2318 53.2139 30.9414 53.2107 31.6078 53.5349C32.0121 53.7316 56.5121 67.8122 57.5548 68.4116C57.627 68.4457 59.5052 69.3677 59.8447 71.5964C59.9413 72.2312 59.8921 84.0067 59.8656 90.3329C59.8598 91.7196 59.8552 92.8332 59.8535 93.491C59.8582 94.2224 59.6609 94.7096 59.2671 94.9387C59.0898 95.0418 58.8828 95.0858 58.6577 95.0858V95.0857ZM30.6132 53.5238C30.3269 53.5238 30.058 53.595 29.8317 53.7376C29.4415 53.9837 29.2276 54.4192 29.2292 54.9638C29.2317 55.7962 29.234 57.305 29.2368 59.1572C29.2465 65.5988 29.263 76.3801 29.3174 76.9389C29.4648 78.4498 30.577 79.3456 31.757 80.0889C35.1958 82.2548 56.122 93.8514 56.333 93.9684C57.2236 94.4869 58.4824 95.1296 59.1521 94.7396C59.4695 94.5549 59.6283 94.1352 59.6242 93.4921V93.491C59.6259 92.8332 59.6305 91.7193 59.6363 90.3318C59.6609 84.4622 59.712 72.2482 59.618 71.6311C59.2974 69.5259 57.4668 68.6238 57.4483 68.6149C57.1854 68.4641 31.9049 53.9349 31.5076 53.7417C31.209 53.5964 30.9021 53.5238 30.6131 53.5238H30.6132Z" fill="#474747"/>
<path d="M46.2293 65.9595L39.8876 80.7974L42.0651 82.047L48.3229 67.177L46.2293 65.9595Z" fill="#474747"/>
<path d="M42.0651 82.1617C42.0454 82.1617 42.0257 82.1565 42.0082 82.1465L39.8308 80.897C39.8064 80.883 39.788 80.8604 39.7791 80.8337C39.7702 80.8069 39.7714 80.7778 39.7825 80.7519L46.1242 65.9139C46.1306 65.8989 46.1401 65.8855 46.152 65.8745C46.1639 65.8635 46.178 65.8552 46.1934 65.85C46.2088 65.8449 46.2251 65.8431 46.2412 65.8448C46.2573 65.8464 46.2729 65.8515 46.2869 65.8596L48.3805 67.0771C48.4047 67.0911 48.4229 67.1135 48.4317 67.14C48.4406 67.1666 48.4395 67.1954 48.4287 67.2212L42.1708 82.0914C42.162 82.1122 42.1474 82.13 42.1286 82.1425C42.1098 82.155 42.0878 82.1617 42.0653 82.1617H42.0651ZM40.0333 80.7483L42.0099 81.8825L48.1782 67.2252L46.2838 66.1236L40.0333 80.7483ZM38.8199 68.8137L38.8448 66.8026L31.4659 65.6748L31.4733 67.6864L38.8241 75.1005L38.8068 73.0959L33.6149 67.9371L38.8199 68.8137Z" fill="#474747"/>
<path d="M38.8242 75.2155C38.7943 75.2155 38.7649 75.2036 38.743 75.1816L31.3921 67.7675C31.3709 67.7461 31.3589 67.7171 31.3588 67.6869L31.3514 65.6754C31.3514 65.6588 31.355 65.6424 31.3619 65.6273C31.3687 65.6122 31.3788 65.5988 31.3913 65.588C31.4038 65.5772 31.4185 65.5692 31.4344 65.5646C31.4503 65.56 31.467 65.5589 31.4833 65.5613L38.8622 66.6892C38.8895 66.6934 38.9144 66.7073 38.9322 66.7284C38.9501 66.7496 38.9598 66.7765 38.9594 66.8042L38.9346 68.8153C38.9343 68.8319 38.9305 68.8482 38.9234 68.8632C38.9163 68.8781 38.906 68.8914 38.8933 68.902C38.8807 68.9126 38.8658 68.9204 38.8499 68.9247C38.834 68.9291 38.8173 68.93 38.801 68.9273L33.9522 68.1107L38.8875 73.0145C38.909 73.0358 38.9212 73.0648 38.9214 73.0951L38.9388 75.0995C38.9389 75.1147 38.936 75.1297 38.9303 75.1438C38.9246 75.1578 38.9162 75.1706 38.9055 75.1813C38.8949 75.1921 38.8822 75.2007 38.8683 75.2065C38.8543 75.2124 38.8393 75.2154 38.8242 75.2155ZM31.5877 67.6389L38.7071 74.8195L38.6926 73.1445L33.5342 68.0188C33.5169 68.0017 33.5055 67.9794 33.5016 67.9553C33.4978 67.9312 33.5017 67.9065 33.5128 67.8848C33.5241 67.8633 33.5418 67.8458 33.5635 67.8349C33.5852 67.8239 33.6098 67.8201 33.6338 67.8239L38.7069 68.6784L38.7289 66.9015L31.5811 65.8089L31.5877 67.639V67.6389ZM49.4424 72.9197L49.4612 74.9333L54.7137 80.1344L49.4411 79.2444L49.4474 81.27L56.8611 82.4311L56.8704 80.4139L49.4424 72.9197Z" fill="#474747"/>
<path d="M56.8612 82.5462C56.8553 82.5462 56.8494 82.5458 56.8435 82.5449L49.4297 81.3838C49.4027 81.3796 49.3781 81.3659 49.3604 81.3451C49.3426 81.3244 49.3328 81.298 49.3327 81.2706L49.3264 79.245C49.3264 79.2283 49.33 79.2118 49.337 79.1966C49.344 79.1814 49.3542 79.1679 49.367 79.1571C49.3797 79.1463 49.3946 79.1384 49.4107 79.1339C49.4267 79.1294 49.4436 79.1285 49.46 79.1312L54.3751 79.9609L49.3807 75.0153C49.3592 74.9939 49.347 74.9649 49.3467 74.9346L49.3279 72.9211C49.3277 72.8982 49.3343 72.8759 49.3469 72.8568C49.3594 72.8378 49.3773 72.8229 49.3983 72.8141C49.4193 72.8053 49.4425 72.8029 49.4648 72.8074C49.4871 72.8118 49.5077 72.8227 49.5237 72.8389L56.9517 80.3329C56.9624 80.3436 56.9708 80.3563 56.9765 80.3703C56.9822 80.3843 56.9852 80.3993 56.9851 80.4145L56.9758 82.4318C56.9757 82.4622 56.9636 82.4913 56.9421 82.5127C56.9206 82.5342 56.8915 82.5462 56.8612 82.5461V82.5462ZM49.5617 81.1719L56.7473 82.2972L56.7557 80.4611L49.5597 73.2013L49.5754 74.8849L54.7942 80.0528C54.8115 80.0699 54.8229 80.0922 54.8268 80.1163C54.8307 80.1404 54.8268 80.1651 54.8157 80.1869C54.7929 80.2317 54.7438 80.2551 54.6947 80.2479L49.5562 79.3805L49.5618 81.1718L49.5617 81.1719Z" fill="#474747"/>
</g>
<defs>
<clipPath id="clip0_1666_40475">
<rect width="117.721" height="147.151" fill="white" transform="translate(60.8684 12.1221)"/>
</clipPath>
<clipPath id="clip1_1666_40475">
<rect width="97.9474" height="58.7455" fill="white" transform="translate(30.6335 137.086)"/>
</clipPath>
<clipPath id="clip2_1666_40475">
<rect width="83.1173" height="106.225" fill="white" transform="translate(72.7094 33.8506)"/>
</clipPath>
<clipPath id="clip3_1666_40475">
<rect width="36.7878" height="23.5672" fill="white" transform="translate(129.501 182.036)"/>
</clipPath>
<clipPath id="clip4_1666_40475">
<rect width="77.3528" height="108" fill="white" transform="translate(46 34.0918)"/>
</clipPath>
<clipPath id="clip5_1666_40475">
<rect width="33.109" height="42.9957" fill="white" transform="translate(29 52.0918)"/>
</clipPath>
</defs>
</svg>
