<svg width="32" height="33" viewBox="0 0 32 33" fill="none" xmlns="http://www.w3.org/2000/svg">
<g id="Frame">
<rect y="0.398438" width="32" height="32" rx="16" fill="#E5F2FC"/>
<path id="Vector" d="M23.2803 12.7532L14.036 21.9975L23.2803 12.7532ZM23.2803 12.7532L23.2817 12.7547L23.4586 12.5778C23.6714 12.365 23.7909 12.0764 23.7909 11.7754C23.7909 11.4744 23.6714 11.1858 23.4586 10.973C23.2457 10.7602 22.9571 10.6406 22.6561 10.6406C22.3552 10.6406 22.0665 10.7602 21.8537 10.973L13.234 19.5913L9.91377 16.2711C9.8084 16.1657 9.6833 16.0821 9.54562 16.0251C9.40794 15.9681 9.26038 15.9387 9.11135 15.9387C8.96233 15.9387 8.81477 15.9681 8.67709 16.0251C8.53941 16.0821 8.41431 16.1657 8.30894 16.2711C8.20356 16.3765 8.11997 16.5016 8.06294 16.6392C8.00591 16.7769 7.97656 16.9245 7.97656 17.0735C7.97656 17.2225 8.00591 17.3701 8.06294 17.5078L8.29391 17.4121L8.06294 17.5078C8.11997 17.6454 8.20356 17.7705 8.30894 17.8759L12.4305 21.9975L23.2803 12.7532ZM13.6678 22.2442C13.8054 22.187 13.9304 22.1033 14.0356 21.9978H12.4308C12.536 22.1033 12.661 22.187 12.7986 22.2442C12.9364 22.3014 13.0841 22.3308 13.2332 22.3308C13.3824 22.3308 13.5301 22.3014 13.6678 22.2442Z" fill="#4984DF" stroke="#4984DF" stroke-width="0.5"/>
</g>
</svg>
