<svg width="96" height="24" viewBox="0 0 96 24" fill="none" xmlns="http://www.w3.org/2000/svg"><path fill-rule="evenodd" clip-rule="evenodd" d="M23.992 3.911a2.762 2.762 0 1 0 0 5.524 2.762 2.762 0 0 0 0-5.524Zm-5.273 2.762a5.273 5.273 0 1 1 10.546 0 5.273 5.273 0 0 1-10.546 0ZM11.94 3.911a2.762 2.762 0 1 0 0 5.524 2.762 2.762 0 0 0 0-5.524ZM6.665 6.673a5.273 5.273 0 1 1 10.546 0 5.273 5.273 0 0 1-10.546 0Zm17.327 9.292a2.762 2.762 0 1 0 0 5.524 2.762 2.762 0 0 0 0-5.524Zm-5.273 2.762a5.273 5.273 0 1 1 10.546 0 5.273 5.273 0 0 1-10.546 0Z" fill="#FFD233"/><path d="M41.596 21.909v-7.416l.536.065c-.014.342-.143.685-.386 1.028a4.022 4.022 0 0 1-.922.922 5.063 5.063 0 0 1-1.264.664 4.388 4.388 0 0 1-1.436.236c-1 0-1.9-.25-2.7-.75-.786-.514-1.408-1.215-1.865-2.1-.457-.886-.686-1.894-.686-3.022 0-1.143.221-2.15.664-3.022.458-.886 1.072-1.58 1.844-2.08.785-.514 1.678-.77 2.679-.77a4.79 4.79 0 0 1 1.564.256c.5.172.95.4 1.35.686.4.286.715.608.944.965.242.357.371.721.385 1.093l-.686.064.043-2.85h2.572v16.03h-2.636Zm-3.043-6.837c.614 0 1.157-.15 1.628-.45.472-.3.836-.714 1.094-1.243.271-.529.407-1.143.407-1.843s-.136-1.315-.407-1.843a2.96 2.96 0 0 0-1.094-1.265c-.471-.3-1.014-.45-1.628-.45-.615 0-1.158.157-1.63.471-.47.3-.842.722-1.114 1.265-.257.529-.386 1.136-.386 1.822 0 .686.13 1.3.386 1.843.272.529.643.943 1.115 1.243.471.3 1.014.45 1.629.45Zm11.608 2.336c-.814 0-1.521-.178-2.122-.536a3.573 3.573 0 0 1-1.371-1.564c-.315-.686-.472-1.5-.472-2.444V5.9h2.637v6.408c0 .6.092 1.115.278 1.543.186.415.457.736.815.965.357.228.785.343 1.285.343a2.81 2.81 0 0 0 1.008-.172c.314-.128.586-.3.814-.514.229-.229.407-.493.536-.793.129-.314.193-.65.193-1.007V5.899h2.636v11.295h-2.572l-.043-2.358.472-.257a3.667 3.667 0 0 1-.879 1.457c-.4.415-.878.75-1.436 1.008a4.403 4.403 0 0 1-1.779.364Zm12.52 0a4.402 4.402 0 0 1-2.529-.771c-.757-.515-1.364-1.215-1.822-2.1-.457-.887-.685-1.894-.685-3.023 0-1.128.228-2.136.685-3.022.458-.886 1.08-1.579 1.865-2.079.786-.5 1.672-.75 2.658-.75a4.55 4.55 0 0 1 1.564.257c.472.158.886.386 1.243.686.358.3.65.643.88 1.029.242.386.406.8.492 1.243l-.579-.15V5.899h2.658v11.295h-2.68v-2.7l.623-.108c-.1.386-.286.765-.558 1.136a4.222 4.222 0 0 1-.986.964 5.351 5.351 0 0 1-1.307.665 4.418 4.418 0 0 1-1.522.257Zm.729-2.336c.614 0 1.157-.15 1.629-.45.471-.3.836-.714 1.093-1.243.271-.543.407-1.165.407-1.865 0-.686-.136-1.293-.407-1.821a2.986 2.986 0 0 0-1.093-1.244c-.472-.3-1.015-.45-1.629-.45-.614 0-1.157.15-1.629.45a3.04 3.04 0 0 0-1.072 1.244c-.257.528-.385 1.135-.385 1.821 0 .7.128 1.322.386 1.865a3.04 3.04 0 0 0 1.071 1.243c.472.3 1.015.45 1.629.45Zm11.458 2.336c-1 0-1.9-.164-2.7-.493a4.941 4.941 0 0 1-1.93-1.457l1.715-1.479c.429.486.907.836 1.436 1.05a4.405 4.405 0 0 0 1.672.322 2.2 2.2 0 0 0 .643-.086c.2-.057.371-.143.514-.257a1.16 1.16 0 0 0 .321-.386c.086-.157.129-.329.129-.514a.977.977 0 0 0-.386-.815c-.143-.1-.371-.207-.686-.321a9.576 9.576 0 0 0-1.178-.343c-.772-.2-1.415-.429-1.93-.686-.514-.272-.914-.572-1.2-.9a2.892 2.892 0 0 1-.557-.922 3.504 3.504 0 0 1-.171-1.114c0-.5.107-.95.321-1.35.229-.415.536-.772.922-1.072.386-.3.836-.529 1.35-.686a5.47 5.47 0 0 1 1.607-.236c.572 0 1.122.072 1.65.215.544.142 1.044.35 1.501.621a4.39 4.39 0 0 1 1.2.943L77.654 9.05a5.343 5.343 0 0 0-.9-.686 4.626 4.626 0 0 0-.965-.472 2.538 2.538 0 0 0-.921-.193c-.272 0-.515.029-.729.086a1.405 1.405 0 0 0-.536.214 1.12 1.12 0 0 0-.343.386 1.14 1.14 0 0 0-.107.515c.014.171.057.335.129.492.086.143.2.265.343.365.157.1.393.214.707.343.314.128.722.25 1.222.364.7.186 1.285.393 1.757.622.471.228.843.492 1.114.793.272.257.465.557.58.9.113.343.17.721.17 1.136 0 .671-.192 1.271-.578 1.8-.372.529-.886.943-1.543 1.243-.643.3-1.372.45-2.186.45Zm5.558-.214V1.334h2.615v6.88l-.493.257c.143-.515.421-.979.836-1.393a4.734 4.734 0 0 1 1.479-1.029 4.241 4.241 0 0 1 1.757-.386c.857 0 1.572.172 2.143.515.586.343 1.022.857 1.308 1.543.3.686.45 1.543.45 2.572v6.9h-2.636v-6.708c0-.571-.079-1.043-.236-1.414-.157-.386-.4-.664-.729-.836-.329-.186-.728-.271-1.2-.257a2.91 2.91 0 0 0-1.072.193 2.407 2.407 0 0 0-.835.514 2.632 2.632 0 0 0-.558.75c-.128.286-.193.6-.193.943v6.816h-2.636Z" fill="#FFD233"/></svg>