<svg width="123" height="32" viewBox="0 0 123 32" fill="none" xmlns="http://www.w3.org/2000/svg"><path fill-rule="evenodd" clip-rule="evenodd" d="M24.534 3.555a3.911 3.911 0 1 0 0 7.822 3.911 3.911 0 0 0 0-7.822Zm-7.467 3.911a7.467 7.467 0 1 1 14.933 0 7.467 7.467 0 0 1-14.933 0Zm-9.6-3.911a3.911 3.911 0 1 0 0 7.822 3.911 3.911 0 0 0 0-7.822ZM0 7.466a7.467 7.467 0 1 1 14.934 0A7.467 7.467 0 0 1 0 7.466Zm24.534 13.156a3.911 3.911 0 1 0 0 7.822 3.911 3.911 0 0 0 0-7.822Zm-7.467 3.91a7.467 7.467 0 1 1 14.933 0 7.467 7.467 0 0 1-14.933 0Z" fill="#F8D148"/><path d="M53.81 28.8V18.42l.75.09c-.02.48-.2.96-.54 1.44-.32.46-.75.89-1.29 1.29-.52.38-1.11.69-1.77.93-.64.22-1.31.33-2.01.33-1.4 0-2.66-.35-3.78-1.05-1.1-.72-1.97-1.7-2.61-2.94-.64-1.24-.96-2.65-.96-4.23 0-1.6.31-3.01.93-4.23.64-1.24 1.5-2.21 2.58-2.91 1.1-.72 2.35-1.08 3.75-1.08.76 0 1.49.12 2.19.36s1.33.56 1.89.96c.56.4 1 .85 1.32 1.35.34.5.52 1.01.54 1.53l-.96.09.06-3.99h3.6V28.8h-3.69Zm-4.26-9.57c.86 0 1.62-.21 2.28-.63.66-.42 1.17-1 1.53-1.74.38-.74.57-1.6.57-2.58s-.19-1.84-.57-2.58c-.36-.76-.87-1.35-1.53-1.77-.66-.42-1.42-.63-2.28-.63-.86 0-1.62.22-2.28.66-.66.42-1.18 1.01-1.56 1.77-.36.74-.54 1.59-.54 2.55 0 .96.18 1.82.54 2.58.38.74.9 1.32 1.56 1.74.66.42 1.42.63 2.28.63ZM65.8 22.5c-1.14 0-2.13-.25-2.97-.75-.84-.52-1.48-1.25-1.92-2.19-.44-.96-.66-2.1-.66-3.42V6.39h3.69v8.97c0 .84.13 1.56.39 2.16.26.58.64 1.03 1.14 1.35.5.32 1.1.48 1.8.48.52 0 .99-.08 1.41-.24.44-.18.82-.42 1.14-.72.32-.32.57-.69.75-1.11.18-.44.27-.91.27-1.41V6.39h3.69V22.2h-3.6l-.06-3.3.66-.36a5.13 5.13 0 0 1-1.23 2.04c-.56.58-1.23 1.05-2.01 1.41-.78.34-1.61.51-2.49.51Zm17.525 0c-1.3 0-2.48-.36-3.54-1.08-1.06-.72-1.91-1.7-2.55-2.94-.64-1.24-.96-2.65-.96-4.23 0-1.58.32-2.99.96-4.23.64-1.24 1.51-2.21 2.61-2.91 1.1-.7 2.34-1.05 3.72-1.05.8 0 1.53.12 2.19.36.66.22 1.24.54 1.74.96.5.42.91.9 1.23 1.44.34.54.57 1.12.69 1.74l-.81-.21V6.39h3.72V22.2h-3.75v-3.78l.87-.15c-.14.54-.4 1.07-.78 1.59-.36.5-.82.95-1.38 1.35-.54.38-1.15.69-1.83.93-.66.24-1.37.36-2.13.36Zm1.02-3.27c.86 0 1.62-.21 2.28-.63.66-.42 1.17-1 1.53-1.74.38-.76.57-1.63.57-2.61 0-.96-.19-1.81-.57-2.55a4.18 4.18 0 0 0-1.53-1.74c-.66-.42-1.42-.63-2.28-.63-.86 0-1.62.21-2.28.63-.64.42-1.14 1-1.5 1.74-.36.74-.54 1.59-.54 2.55 0 .98.18 1.85.54 2.61.36.74.86 1.32 1.5 1.74.66.42 1.42.63 2.28.63Zm16.038 3.27c-1.4 0-2.66-.23-3.78-.69-1.1-.48-2-1.16-2.7-2.04l2.4-2.07c.6.68 1.27 1.17 2.01 1.47.74.3 1.52.45 2.34.45.34 0 .64-.04.9-.12.28-.08.52-.2.72-.36.2-.16.35-.34.45-.54.12-.22.18-.46.18-.72 0-.48-.18-.86-.54-1.14-.2-.14-.52-.29-.96-.45-.42-.16-.97-.32-1.65-.48-1.08-.28-1.98-.6-2.7-.96-.72-.38-1.28-.8-1.68-1.26-.34-.38-.6-.81-.78-1.29-.16-.48-.24-1-.24-1.56 0-.7.15-1.33.45-1.89.32-.58.75-1.08 1.29-1.5a5.81 5.81 0 0 1 1.89-.96c.72-.22 1.47-.33 2.25-.33.8 0 1.57.1 2.31.3.76.2 1.46.49 2.1.87.66.36 1.22.8 1.68 1.32l-2.04 2.25c-.38-.36-.8-.68-1.26-.96-.44-.28-.89-.5-1.35-.66-.46-.18-.89-.27-1.29-.27-.38 0-.72.04-1.02.12-.3.06-.55.16-.75.3-.2.14-.36.32-.48.54-.1.2-.15.44-.15.72.02.24.08.47.18.69.12.2.28.37.48.51.22.14.55.3.99.48.44.18 1.01.35 1.71.51.98.26 1.8.55 2.46.87.66.32 1.18.69 1.56 1.11.38.36.65.78.81 1.26.16.48.24 1.01.24 1.59 0 .94-.27 1.78-.81 2.52-.52.74-1.24 1.32-2.16 1.74-.9.42-1.92.63-3.06.63Zm7.781-.3V0h3.66v9.63l-.69.36c.2-.72.59-1.37 1.17-1.95.58-.6 1.27-1.08 2.07-1.44.8-.36 1.62-.54 2.46-.54 1.2 0 2.2.24 3 .72.82.48 1.43 1.2 1.83 2.16.42.96.63 2.16.63 3.6v9.66h-3.69v-9.39c0-.8-.11-1.46-.33-1.98-.22-.54-.56-.93-1.02-1.17-.46-.26-1.02-.38-1.68-.36-.54 0-1.04.09-1.5.27-.44.16-.83.4-1.17.72-.32.3-.58.65-.78 1.05-.18.4-.27.84-.27 1.32v9.54h-3.69Z" fill="#212121"/></svg>