<svg width="368" height="168" viewBox="0 0 368 168" fill="none" xmlns="http://www.w3.org/2000/svg"><g filter="url(#a)" clip-path="url(#b)"><path d="M0 12.889C0 5.77 5.77 0 12.889 0H310.11C317.229 0 323 5.77 323 12.889V168H0V12.889Z" fill="#fff"/><rect x="34" y="51" width="264" height="40" rx="20" fill="#F5F5F5"/><path d="M277.509 26.636c0-1.073.139-2.06.417-2.961a9.258 9.258 0 0 1 1.202-2.493h.887a5.469 5.469 0 0 0-.576 1.04c-.176.409-.331.859-.464 1.35a12.77 12.77 0 0 0-.316 1.518c-.073.522-.11 1.038-.11 1.546 0 .677.065 1.363.196 2.059.13.696.306 1.342.528 1.939.222.596.469 1.082.742 1.457h-.887a9.274 9.274 0 0 1-1.202-2.489c-.278-.903-.417-1.892-.417-2.966Zm7.041-4.363V31h-1.057v-7.62h-.051l-2.131 1.416v-1.074l2.182-1.45h1.057ZM287.06 31v-.767l2.88-3.154c.338-.369.617-.69.836-.963a3.58 3.58 0 0 0 .485-.775c.108-.244.162-.5.162-.767a1.42 1.42 0 0 0-.221-.797 1.439 1.439 0 0 0-.597-.52 1.934 1.934 0 0 0-.852-.183c-.335 0-.628.07-.878.209a1.435 1.435 0 0 0-.575.575 1.796 1.796 0 0 0-.201.87h-1.005c0-.512.118-.961.353-1.347.236-.387.557-.688.964-.904a2.9 2.9 0 0 1 1.376-.324c.511 0 .964.108 1.359.324.395.216.705.507.929.874.225.366.337.774.337 1.223 0 .32-.058.635-.175.942-.113.304-.312.643-.596 1.018a18.39 18.39 0 0 1-1.172 1.364l-1.96 2.096v.069h4.056V31h-5.505Zm9.43-4.364c0 1.074-.141 2.063-.422 2.966-.278.9-.677 1.73-1.197 2.489h-.887c.205-.281.395-.628.571-1.04.179-.409.336-.858.469-1.346.134-.492.237-.999.311-1.522a10.66 10.66 0 0 0-.081-3.605 11.829 11.829 0 0 0-.528-1.939c-.222-.596-.469-1.082-.742-1.457h.887c.52.758.919 1.59 1.197 2.493.281.9.422 1.887.422 2.961Z" fill="#747474"/><path d="M25.278 21.364h2.131l3.705 9.045h.136l3.705-9.045h2.13V33h-1.67v-8.42h-.108l-3.432 8.403h-1.386l-3.432-8.41h-.108V33h-1.67V21.364Zm17.985 11.812c-.86 0-1.6-.184-2.222-.551a3.738 3.738 0 0 1-1.432-1.563c-.333-.674-.5-1.463-.5-2.369 0-.894.167-1.682.5-2.364a3.882 3.882 0 0 1 1.41-1.596c.605-.383 1.314-.574 2.125-.574.492 0 .97.082 1.431.244.462.163.877.419 1.245.768.367.348.657.8.869 1.357.212.553.318 1.226.318 2.018v.602H40.07v-1.273h5.272c0-.447-.09-.843-.272-1.188a2.062 2.062 0 0 0-.767-.823c-.326-.201-.709-.302-1.148-.302-.477 0-.894.118-1.25.353a2.365 2.365 0 0 0-.818.909c-.19.371-.284.774-.284 1.21v.994c0 .584.102 1.08.306 1.489.209.41.498.722.87.938.37.212.805.318 1.3.318.323 0 .616-.046.881-.137.266-.094.495-.235.688-.42a1.84 1.84 0 0 0 .443-.688l1.608.29c-.129.474-.36.888-.693 1.244a3.36 3.36 0 0 1-1.244.824c-.497.194-1.063.29-1.7.29ZM48.892 33v-8.727h1.63v1.42h.109c.181-.48.479-.856.892-1.125.413-.273.907-.409 1.483-.409.583 0 1.072.137 1.466.41.397.272.69.647.88 1.124h.091c.209-.466.54-.837.995-1.114.454-.28.996-.42 1.624-.42.792 0 1.438.248 1.938.744.504.497.756 1.245.756 2.245V33h-1.7v-5.693c0-.591-.16-1.02-.482-1.284a1.757 1.757 0 0 0-1.154-.398c-.553 0-.983.17-1.29.511-.306.338-.46.771-.46 1.302V33h-1.693v-5.801c0-.474-.147-.854-.443-1.142-.295-.288-.68-.432-1.153-.432-.322 0-.62.085-.892.256-.27.166-.487.4-.654.698a2.14 2.14 0 0 0-.244 1.04V33h-1.699Zm14.277 0V21.364h1.699v4.323h.102c.099-.181.24-.392.426-.63.186-.239.444-.447.773-.625.33-.182.765-.273 1.307-.273.704 0 1.333.178 1.886.534.553.356.987.87 1.301 1.54.319.67.478 1.477.478 2.42 0 .944-.158 1.752-.472 2.427-.314.67-.746 1.187-1.295 1.55-.55.36-1.177.54-1.881.54-.53 0-.964-.089-1.301-.267a2.462 2.462 0 0 1-.784-.625 4.715 4.715 0 0 1-.438-.636h-.142V33H63.17Zm1.665-4.364c0 .614.089 1.152.267 1.614.178.462.436.824.773 1.085.337.258.75.387 1.238.387.508 0 .932-.135 1.273-.404.34-.273.598-.642.773-1.108.178-.466.267-.99.267-1.574a4.34 4.34 0 0 0-.262-1.55c-.17-.46-.428-.82-.772-1.086-.341-.265-.767-.398-1.279-.398-.492 0-.909.127-1.25.381-.337.254-.593.608-.767 1.063-.174.454-.261.984-.261 1.59Zm11.976 4.54c-.86 0-1.6-.184-2.222-.551a3.738 3.738 0 0 1-1.432-1.563c-.333-.674-.5-1.463-.5-2.369 0-.894.167-1.682.5-2.364a3.883 3.883 0 0 1 1.41-1.596c.605-.383 1.314-.574 2.124-.574.493 0 .97.082 1.432.244.462.163.877.419 1.245.768.367.348.657.8.869 1.357.212.553.318 1.226.318 2.018v.602h-6.938v-1.273h5.273c0-.447-.09-.843-.272-1.188a2.062 2.062 0 0 0-.768-.823c-.325-.201-.708-.302-1.147-.302-.478 0-.894.118-1.25.353a2.364 2.364 0 0 0-.819.909 2.626 2.626 0 0 0-.284 1.21v.994c0 .584.103 1.08.307 1.489.209.41.498.722.87.938.37.212.805.318 1.3.318.323 0 .616-.046.881-.137.266-.094.495-.235.688-.42a1.84 1.84 0 0 0 .443-.688l1.608.29c-.129.474-.36.888-.693 1.244a3.36 3.36 0 0 1-1.245.824c-.496.194-1.062.29-1.698.29ZM82.439 33v-8.727h1.642v1.386h.09c.16-.47.44-.839.842-1.108a2.402 2.402 0 0 1 1.375-.409 7.242 7.242 0 0 1 .721.04v1.625a3.048 3.048 0 0 0-.363-.063 3.47 3.47 0 0 0-.523-.04c-.401 0-.76.086-1.074.256a1.9 1.9 0 0 0-1.011 1.71V33h-1.7Zm12.68-6.597-1.54.273a1.822 1.822 0 0 0-.306-.562 1.518 1.518 0 0 0-.557-.438c-.235-.113-.528-.17-.88-.17-.482 0-.883.108-1.205.323-.322.213-.483.487-.483.824 0 .292.108.527.324.705.216.178.564.324 1.045.438l1.386.318c.803.185 1.402.471 1.796.858.394.386.59.888.59 1.505 0 .523-.15.989-.454 1.398-.299.405-.718.724-1.255.955-.534.23-1.154.346-1.858.346-.978 0-1.775-.208-2.392-.625-.618-.42-.997-1.017-1.137-1.79l1.642-.25c.103.428.313.752.63.972.32.216.734.324 1.245.324.557 0 1.002-.116 1.336-.347.333-.235.5-.52.5-.858a.891.891 0 0 0-.307-.687c-.201-.186-.51-.326-.927-.42l-1.477-.325c-.814-.185-1.416-.48-1.807-.886-.386-.405-.58-.918-.58-1.54a2.2 2.2 0 0 1 .433-1.352c.288-.386.685-.688 1.193-.903.507-.22 1.089-.33 1.744-.33.943 0 1.686.205 2.228.614.541.405.9.949 1.073 1.63Z" fill="#000"/><g filter="url(#c)"><rect x="99" y="51" width="256" height="40" rx="20" fill="#fff"/><path d="M145.672 68.493a1.454 1.454 0 0 0-.656-1.094c-.385-.262-.869-.393-1.452-.393-.418 0-.779.067-1.084.2a1.662 1.662 0 0 0-.711.536 1.265 1.265 0 0 0-.248.77c0 .243.056.451.169.627.116.176.266.323.452.443.189.116.391.214.607.293.215.076.422.14.621.189l.994.258c.325.08.658.188 1 .324a4 4 0 0 1 .949.537c.292.222.527.497.706.825.182.328.274.72.274 1.178 0 .577-.15 1.089-.448 1.536-.295.448-.724.8-1.287 1.06-.561.258-1.238.387-2.034.387-.762 0-1.422-.12-1.979-.363-.556-.242-.992-.585-1.307-1.029-.315-.448-.489-.978-.522-1.59h1.541c.03.367.149.674.358.919.212.242.482.422.81.542.332.116.695.174 1.089.174a3.09 3.09 0 0 0 1.159-.204c.341-.14.609-.331.805-.577.196-.248.293-.538.293-.87 0-.301-.086-.548-.258-.74a1.916 1.916 0 0 0-.691-.478 6.776 6.776 0 0 0-.98-.333l-1.203-.328c-.815-.222-1.461-.549-1.939-.98-.474-.43-.711-1-.711-1.71 0-.586.159-1.098.478-1.536a3.135 3.135 0 0 1 1.292-1.02c.544-.244 1.157-.367 1.84-.367.689 0 1.297.121 1.824.363.531.242.948.575 1.253 1 .305.42.464.904.477 1.45h-1.481Zm6.628 7.661c-.752 0-1.4-.16-1.944-.482a3.265 3.265 0 0 1-1.252-1.367c-.292-.59-.438-1.281-.438-2.074 0-.782.146-1.471.438-2.068a3.389 3.389 0 0 1 1.232-1.397c.531-.334 1.151-.502 1.86-.502.431 0 .848.072 1.253.214a3.03 3.03 0 0 1 1.088.671c.322.305.576.701.761 1.188.186.484.279 1.073.279 1.765v.527h-6.071v-1.113h4.614c0-.392-.08-.738-.239-1.04a1.805 1.805 0 0 0-.671-.72 1.875 1.875 0 0 0-1.004-.264c-.418 0-.782.103-1.094.308a2.071 2.071 0 0 0-.716.796 2.292 2.292 0 0 0-.248 1.059v.87c0 .51.089.944.268 1.302.182.358.436.632.761.82.324.186.704.28 1.138.28.282 0 .539-.04.771-.12a1.593 1.593 0 0 0 .989-.97l1.407.254a2.557 2.557 0 0 1-.606 1.089 2.951 2.951 0 0 1-1.089.72c-.434.17-.93.254-1.487.254Zm8.217 0c-.752 0-1.4-.16-1.944-.482a3.273 3.273 0 0 1-1.253-1.367c-.291-.59-.437-1.281-.437-2.074 0-.782.146-1.471.437-2.068a3.398 3.398 0 0 1 1.233-1.397c.531-.334 1.15-.502 1.86-.502.431 0 .848.072 1.252.214a3.03 3.03 0 0 1 1.089.671c.322.305.575.701.761 1.188.186.484.278 1.073.278 1.765v.527h-6.07v-1.113h4.614c0-.392-.08-.738-.239-1.04a1.805 1.805 0 0 0-.671-.72 1.875 1.875 0 0 0-1.004-.264 1.94 1.94 0 0 0-1.094.308 2.071 2.071 0 0 0-.716.796 2.293 2.293 0 0 0-.249 1.059v.87c0 .51.09.944.269 1.302.182.358.436.632.76.82.325.186.705.28 1.139.28.282 0 .539-.04.771-.12a1.6 1.6 0 0 0 .989-.97l1.407.254a2.549 2.549 0 0 1-.607 1.089 2.939 2.939 0 0 1-1.088.72c-.435.17-.93.254-1.487.254Zm4.926-.154v-7.636h1.426v1.242h.095c.159-.42.419-.748.78-.984.362-.239.794-.358 1.298-.358.51 0 .938.12 1.283.358.348.239.605.567.77.984h.08c.182-.407.472-.732.87-.974.398-.245.872-.368 1.422-.368.693 0 1.258.217 1.695.651.441.435.661 1.09.661 1.964V76h-1.486v-4.981c0-.518-.141-.892-.423-1.124a1.535 1.535 0 0 0-1.009-.348c-.484 0-.86.149-1.129.447-.268.295-.402.675-.402 1.139V76h-1.482v-5.076c0-.414-.129-.747-.388-1-.258-.251-.594-.377-1.009-.377a1.44 1.44 0 0 0-.78.224c-.236.145-.426.35-.572.611a1.868 1.868 0 0 0-.214.91V76h-1.486Zm14.595.169c-.484 0-.921-.09-1.313-.268a2.212 2.212 0 0 1-.929-.79c-.226-.346-.338-.768-.338-1.269 0-.43.083-.785.248-1.064.166-.278.39-.498.671-.66a3.51 3.51 0 0 1 .945-.369 9.396 9.396 0 0 1 1.064-.189l1.114-.129c.285-.036.492-.094.621-.174.129-.08.194-.209.194-.388v-.034c0-.435-.123-.771-.368-1.01-.242-.238-.603-.358-1.084-.358-.5 0-.895.111-1.183.333-.285.22-.482.463-.592.731l-1.397-.318c.166-.464.408-.838.726-1.123a2.945 2.945 0 0 1 1.109-.627 4.33 4.33 0 0 1 1.317-.199c.305 0 .628.037.97.11.345.07.666.198.964.387.302.19.549.46.741.81.192.349.288.801.288 1.358V76h-1.451v-1.044h-.06c-.096.192-.24.381-.432.567-.193.185-.44.34-.741.462-.302.123-.663.184-1.084.184Zm.323-1.193c.411 0 .762-.081 1.054-.244.295-.162.519-.374.671-.636a1.65 1.65 0 0 0 .234-.85v-.985c-.053.053-.156.103-.308.15-.149.043-.32.08-.512.114-.193.03-.38.058-.562.084l-.458.06a3.692 3.692 0 0 0-.79.184c-.235.086-.424.21-.567.373-.139.159-.209.371-.209.636 0 .368.136.647.408.835.272.186.618.279 1.039.279Zm13.207-9.158h1.531v7.219c0 .653-.129 1.211-.387 1.675a2.593 2.593 0 0 1-1.079 1.064c-.464.242-1.008.363-1.631.363a3.681 3.681 0 0 1-1.546-.313 2.543 2.543 0 0 1-1.079-.91c-.262-.4-.393-.888-.393-1.462h1.527c0 .282.064.526.194.731.132.206.313.367.541.483.232.112.498.169.796.169.325 0 .6-.068.825-.204.229-.14.403-.343.522-.612.12-.268.179-.596.179-.984v-7.219Zm6.865 10.336c-.716 0-1.341-.164-1.875-.492a3.314 3.314 0 0 1-1.242-1.377c-.295-.59-.443-1.28-.443-2.068 0-.793.148-1.485.443-2.079a3.308 3.308 0 0 1 1.242-1.382c.534-.328 1.159-.492 1.875-.492s1.34.164 1.874.492a3.31 3.31 0 0 1 1.243 1.382c.295.594.442 1.286.442 2.079 0 .788-.147 1.478-.442 2.068a3.316 3.316 0 0 1-1.243 1.377c-.534.328-1.158.492-1.874.492Zm.005-1.248c.464 0 .848-.122 1.153-.368a2.15 2.15 0 0 0 .676-.98 3.89 3.89 0 0 0 .224-1.346c0-.488-.075-.935-.224-1.343a2.187 2.187 0 0 0-.676-.989c-.305-.249-.689-.373-1.153-.373-.468 0-.855.124-1.164.373a2.22 2.22 0 0 0-.681.99 3.956 3.956 0 0 0-.219 1.342c0 .49.073.94.219 1.347.149.408.376.734.681.98.309.245.696.367 1.164.367Zm10.936-4.678-1.347.239a1.605 1.605 0 0 0-.269-.493 1.33 1.33 0 0 0-.487-.382c-.206-.1-.462-.15-.771-.15-.421 0-.772.095-1.054.284-.281.186-.422.426-.422.72a.76.76 0 0 0 .283.617c.189.156.494.284.915.383l1.213.278c.703.163 1.226.413 1.571.751s.517.777.517 1.318c0 .457-.132.865-.398 1.223-.261.354-.628.633-1.098.835-.468.202-1.01.303-1.626.303-.855 0-1.553-.182-2.093-.547-.54-.368-.872-.89-.994-1.566l1.436-.219c.09.375.274.658.552.85.279.19.642.284 1.089.284.487 0 .877-.101 1.168-.303.292-.206.438-.456.438-.751a.78.78 0 0 0-.269-.602c-.175-.162-.445-.285-.81-.367l-1.293-.284c-.712-.162-1.239-.42-1.581-.775-.338-.355-.507-.804-.507-1.348 0-.45.126-.845.378-1.183.252-.338.6-.602 1.044-.79.444-.193.953-.289 1.526-.289.826 0 1.475.18 1.949.537.474.355.787.83.94 1.427Zm3.27 1.238V76h-1.487V65.818h1.467v3.788h.095c.179-.41.452-.737.82-.979.368-.242.848-.363 1.442-.363.523 0 .981.108 1.372.323.394.216.699.537.915.965.218.424.328.954.328 1.59V76h-1.487v-4.678c0-.56-.144-.995-.432-1.303-.289-.311-.69-.467-1.203-.467-.352 0-.667.074-.945.224a1.613 1.613 0 0 0-.651.656c-.156.285-.234.63-.234 1.034ZM221.579 76v-7.636h1.487V76h-1.487Zm.751-8.815a.944.944 0 0 1-.666-.258.842.842 0 0 1-.274-.627.83.83 0 0 1 .274-.626.935.935 0 0 1 .666-.264c.259 0 .479.088.661.264a.823.823 0 0 1 .279.626.835.835 0 0 1-.279.627.926.926 0 0 1-.661.258Z" fill="#000"/><rect x="105" y="57" width="28" height="28" rx="14" fill="#F7C06E"/><path d="M116.944 69.404a.974.974 0 0 0-.395-.72c-.233-.172-.549-.258-.948-.258-.271 0-.5.039-.686.115a.967.967 0 0 0-.43.311.75.75 0 0 0-.146.453.647.647 0 0 0 .089.368.915.915 0 0 0 .272.272c.115.074.248.14.399.196.151.053.312.1.483.138l.706.169c.342.076.657.179.943.306.287.128.535.285.744.472.21.187.372.407.487.66.118.253.178.543.181.87-.003.481-.126.898-.369 1.25-.24.351-.588.623-1.043.818-.452.191-.998.287-1.637.287-.634 0-1.187-.097-1.657-.291a2.424 2.424 0 0 1-1.097-.863c-.261-.384-.398-.858-.41-1.423h1.607c.017.263.093.483.226.66.135.174.316.305.541.395.227.087.484.13.77.13.282 0 .526-.04.733-.123a1.12 1.12 0 0 0 .487-.341.789.789 0 0 0 .173-.502.652.652 0 0 0-.158-.445 1.19 1.19 0 0 0-.452-.307 4.625 4.625 0 0 0-.725-.23l-.855-.215c-.663-.161-1.185-.413-1.569-.756-.383-.342-.574-.804-.571-1.384a2.06 2.06 0 0 1 .379-1.246 2.568 2.568 0 0 1 1.063-.833c.45-.2.961-.299 1.534-.299.583 0 1.092.1 1.526.3.437.199.777.476 1.02.832.243.355.369.766.376 1.234h-1.591Zm5.961-2.258h1.641v5.476c0 .506-.114.946-.341 1.32a2.26 2.26 0 0 1-.94.862c-.401.202-.868.303-1.4.303-.473 0-.902-.083-1.288-.249a2.058 2.058 0 0 1-.913-.767c-.225-.345-.336-.778-.334-1.3h1.653c.005.207.047.385.127.533a.862.862 0 0 0 .333.338c.143.076.312.115.507.115a.964.964 0 0 0 .517-.13.84.84 0 0 0 .326-.392c.074-.171.112-.382.112-.633v-5.477Z" fill="#fff"/><path d="M291.878 75.12c-.585 0-1.108-.102-1.568-.303a2.659 2.659 0 0 1-1.087-.84 2.23 2.23 0 0 1-.426-1.253h1.338c.017.259.104.483.26.674.159.187.366.332.622.434.256.103.54.154.852.154.344 0 .648-.06.912-.18.267-.118.476-.285.627-.498.15-.216.226-.464.226-.746 0-.292-.076-.55-.226-.77a1.472 1.472 0 0 0-.652-.53c-.284-.127-.628-.191-1.032-.191h-.737v-1.074h.737c.324 0 .608-.058.853-.175.247-.116.44-.278.579-.485.139-.21.209-.456.209-.738 0-.27-.061-.504-.183-.703a1.228 1.228 0 0 0-.512-.473 1.658 1.658 0 0 0-.775-.17c-.284 0-.55.052-.797.157a1.48 1.48 0 0 0-.597.444c-.153.19-.235.419-.247.686h-1.274c.014-.472.154-.887.418-1.245a2.697 2.697 0 0 1 1.057-.839 3.437 3.437 0 0 1 1.457-.303c.56 0 1.043.11 1.449.328.409.216.724.505.946.866.224.36.335.755.332 1.184.003.489-.133.904-.409 1.245-.273.34-.636.57-1.091.686v.068c.58.088 1.029.318 1.347.69.321.372.48.834.477 1.385.003.48-.131.91-.401 1.291-.267.381-.632.68-1.095.9-.463.215-.993.323-1.589.323Zm4.696-.12v-.954l2.953-3.06c.315-.333.575-.624.78-.874.207-.253.362-.493.464-.72.103-.227.154-.469.154-.724 0-.29-.068-.54-.205-.75a1.332 1.332 0 0 0-.558-.49 1.774 1.774 0 0 0-.797-.175c-.312 0-.585.064-.818.192a1.313 1.313 0 0 0-.537.54 1.705 1.705 0 0 0-.188.819h-1.257c0-.531.123-.996.367-1.394a2.482 2.482 0 0 1 1.006-.924c.426-.222.91-.333 1.453-.333.548 0 1.031.11 1.448.328.421.216.749.512.985.887.236.372.354.793.354 1.261 0 .324-.062.64-.184.95-.119.31-.328.655-.626 1.036a17.65 17.65 0 0 1-1.244 1.377l-1.735 1.815v.064h3.929V75h-5.744Zm10.654 0v-8.727h3.196c.62 0 1.132.102 1.539.306.406.202.71.476.912.823.201.344.302.731.302 1.163 0 .364-.067.67-.2.92a1.657 1.657 0 0 1-.537.597 2.37 2.37 0 0 1-.733.324v.085c.29.015.572.108.848.282.278.17.509.413.69.728.182.316.273.7.273 1.151 0 .446-.105.847-.315 1.202-.208.352-.529.632-.963.84-.435.204-.99.306-1.666.306h-3.346Zm1.317-1.13h1.901c.63 0 1.082-.121 1.355-.366.273-.244.409-.55.409-.916 0-.275-.07-.528-.209-.758a1.489 1.489 0 0 0-.597-.55 1.908 1.908 0 0 0-.911-.205h-1.948v2.796Zm0-3.822h1.764c.296 0 .561-.056.797-.17.239-.114.428-.273.567-.477.142-.208.213-.452.213-.733 0-.361-.126-.664-.379-.908s-.641-.367-1.164-.367h-1.798v2.655Zm12.147-3.775h1.321v5.74c0 .61-.143 1.152-.43 1.623a3.014 3.014 0 0 1-1.21 1.108c-.52.267-1.13.4-1.829.4-.696 0-1.304-.133-1.823-.4a3.01 3.01 0 0 1-1.211-1.108c-.287-.471-.43-1.012-.43-1.623v-5.74h1.317v5.633c0 .395.086.746.26 1.053.176.307.424.548.745.724.321.173.702.26 1.142.26.444 0 .826-.087 1.147-.26.324-.176.571-.417.741-.724.173-.307.26-.658.26-1.053v-5.633Zm9.142 2.757a2.66 2.66 0 0 0-.333-.695 2.105 2.105 0 0 0-1.142-.865 2.62 2.62 0 0 0-.797-.115c-.491 0-.934.126-1.329.38-.395.252-.707.623-.938 1.112-.227.485-.34 1.08-.34 1.785 0 .707.115 1.305.345 1.794.23.489.545.86.946 1.112.4.253.856.38 1.368.38.474 0 .887-.097 1.24-.29.355-.193.629-.466.822-.818.196-.356.294-.773.294-1.253l.341.064h-2.497v-1.087h3.43v.993c0 .733-.156 1.37-.468 1.91-.31.536-.739.95-1.287 1.243-.546.293-1.171.44-1.875.44-.79 0-1.483-.183-2.08-.546-.594-.364-1.057-.88-1.389-1.547-.332-.67-.499-1.466-.499-2.386 0-.696.097-1.321.29-1.875a4.076 4.076 0 0 1 .814-1.41c.352-.39.766-.687 1.24-.891a3.882 3.882 0 0 1 1.564-.312c.472 0 .91.07 1.317.21.409.138.772.336 1.091.591a3.368 3.368 0 0 1 1.223 2.076h-1.351Zm7.842-.465a1.246 1.246 0 0 0-.563-.937c-.329-.225-.744-.337-1.244-.337-.358 0-.668.057-.929.17a1.435 1.435 0 0 0-.609.46 1.087 1.087 0 0 0-.213.661c0 .208.048.387.144.537.1.15.229.277.388.38.162.099.335.183.52.251.185.065.362.12.533.162l.852.221c.278.069.564.161.857.278.292.116.563.27.813.46s.452.426.606.707c.156.281.234.618.234 1.01 0 .494-.128.933-.384 1.317-.252.383-.62.686-1.103.907-.48.222-1.061.333-1.743.333-.654 0-1.219-.104-1.696-.311-.477-.208-.851-.502-1.121-.882-.27-.384-.419-.838-.447-1.364h1.321c.025.315.128.578.307.788.181.208.413.363.694.465.284.1.595.15.933.15.373 0 .703-.06.993-.176.293-.119.523-.284.691-.494.167-.213.251-.462.251-.746a.914.914 0 0 0-.222-.635 1.63 1.63 0 0 0-.592-.409 5.804 5.804 0 0 0-.839-.285l-1.032-.281c-.699-.19-1.252-.47-1.662-.84-.406-.37-.609-.858-.609-1.466 0-.503.136-.942.409-1.317a2.687 2.687 0 0 1 1.108-.873 3.8 3.8 0 0 1 1.577-.316c.591 0 1.112.104 1.564.311.454.208.812.493 1.074.857.261.36.397.776.409 1.244h-1.27Z" fill="#747474"/></g><g filter="url(#d)"><rect x="34" y="99" width="256" height="40" rx="20" fill="#fff"/><path d="M79.076 113.818h1.531v7.219c0 .653-.129 1.211-.388 1.675a2.587 2.587 0 0 1-1.078 1.064c-.464.242-1.008.363-1.631.363a3.68 3.68 0 0 1-1.546-.313 2.544 2.544 0 0 1-1.08-.91c-.26-.401-.392-.888-.392-1.461h1.526c0 .281.065.525.194.73.133.206.314.367.542.483.232.112.497.169.796.169.325 0 .6-.068.825-.204.229-.139.403-.343.522-.612.12-.268.179-.596.179-.984v-7.219Zm6.865 10.336c-.716 0-1.341-.164-1.875-.492a3.318 3.318 0 0 1-1.243-1.377c-.295-.59-.442-1.28-.442-2.068 0-.793.147-1.485.442-2.079a3.32 3.32 0 0 1 1.243-1.382c.534-.328 1.159-.492 1.874-.492.716 0 1.341.164 1.875.492a3.32 3.32 0 0 1 1.243 1.382c.295.594.442 1.286.442 2.079 0 .788-.147 1.478-.442 2.068a3.318 3.318 0 0 1-1.243 1.377c-.534.328-1.159.492-1.874.492Zm.004-1.248c.465 0 .849-.122 1.154-.368.305-.245.53-.571.676-.979.15-.408.224-.857.224-1.347a3.88 3.88 0 0 0-.224-1.343 2.188 2.188 0 0 0-.676-.989c-.305-.249-.69-.373-1.154-.373-.467 0-.855.124-1.163.373a2.223 2.223 0 0 0-.681.989 3.963 3.963 0 0 0-.219 1.343c0 .49.073.939.219 1.347.15.408.376.734.681.979.308.246.696.368 1.163.368Zm10.937-4.678-1.348.239a1.594 1.594 0 0 0-.268-.493 1.33 1.33 0 0 0-.487-.382c-.206-.1-.463-.15-.77-.15-.422 0-.773.095-1.055.284-.281.185-.422.426-.422.721 0 .255.094.46.283.616.189.156.494.284.915.383l1.213.278c.703.163 1.226.413 1.57.751.346.338.518.777.518 1.318 0 .457-.133.865-.398 1.223-.262.354-.628.633-1.099.835-.467.202-1.009.303-1.625.303-.855 0-1.553-.182-2.093-.547-.54-.368-.872-.89-.995-1.566l1.437-.219c.09.375.274.658.552.851.278.189.641.283 1.089.283.487 0 .876-.101 1.168-.303.292-.206.438-.456.438-.751a.782.782 0 0 0-.269-.602c-.175-.162-.446-.285-.81-.367l-1.293-.284c-.712-.162-1.24-.421-1.58-.775-.339-.355-.508-.804-.508-1.348 0-.45.126-.845.378-1.183.252-.338.6-.602 1.044-.79.444-.193.953-.289 1.526-.289.826 0 1.475.179 1.95.537.473.355.786.83.939 1.427Zm5.074 5.926c-.752 0-1.4-.161-1.943-.482a3.274 3.274 0 0 1-1.253-1.367c-.292-.59-.438-1.281-.438-2.073 0-.783.146-1.472.438-2.069a3.402 3.402 0 0 1 1.233-1.397c.53-.334 1.15-.502 1.859-.502.431 0 .849.071 1.253.214.404.143.767.366 1.089.671.321.305.575.701.76 1.188.186.484.279 1.073.279 1.765v.527h-6.07v-1.113h4.613c0-.391-.079-.738-.239-1.039a1.794 1.794 0 0 0-.671-.721 1.87 1.87 0 0 0-1.004-.264c-.418 0-.782.103-1.094.308a2.079 2.079 0 0 0-.716.796 2.302 2.302 0 0 0-.248 1.059v.87c0 .51.09.944.268 1.302.183.358.436.632.761.821a2.26 2.26 0 0 0 1.138.278c.282 0 .539-.04.771-.119a1.587 1.587 0 0 0 .989-.97l1.407.254a2.552 2.552 0 0 1-.606 1.089 2.953 2.953 0 0 1-1.089.721c-.434.169-.93.253-1.487.253Zm4.926 2.71v-10.5h1.452v1.238h.124c.086-.16.211-.343.373-.552.162-.209.388-.391.676-.547.288-.159.67-.239 1.144-.239.616 0 1.166.156 1.65.468.484.311.864.76 1.139 1.347.278.586.417 1.292.417 2.118 0 .825-.137 1.533-.412 2.123-.275.586-.653 1.039-1.134 1.357a2.935 2.935 0 0 1-1.646.472c-.464 0-.843-.078-1.138-.234a2.152 2.152 0 0 1-.686-.546 4.204 4.204 0 0 1-.383-.557h-.089v4.052h-1.487Zm1.457-6.682c0 .537.078 1.007.233 1.412.156.404.382.721.677.949.295.226.656.338 1.083.338.445 0 .816-.117 1.114-.353.298-.238.524-.561.676-.969.156-.408.234-.867.234-1.377 0-.504-.076-.956-.229-1.357a2.075 2.075 0 0 0-.676-.95c-.298-.232-.671-.348-1.119-.348-.43 0-.795.111-1.093.333-.295.222-.519.532-.672.93-.152.397-.228.862-.228 1.392Zm8.67-.716V124h-1.486v-10.182h1.466v3.789h.095c.179-.411.452-.738.82-.98.368-.242.849-.363 1.442-.363.524 0 .981.108 1.372.323.394.216.699.537.915.965.219.424.328.954.328 1.591V124h-1.487v-4.678c0-.56-.144-.995-.432-1.303-.288-.311-.689-.467-1.203-.467a1.96 1.96 0 0 0-.945.224 1.607 1.607 0 0 0-.651.656c-.156.285-.234.63-.234 1.034Zm11.62 4.534h-1.631l3.664-10.182h1.775L136.101 124h-1.63l-2.879-8.332h-.079L128.629 124Zm.274-3.987h5.289v1.292h-5.289v-1.292Zm11.285 4.136a2.96 2.96 0 0 1-1.651-.472c-.48-.318-.858-.771-1.133-1.357-.272-.59-.408-1.298-.408-2.123 0-.826.138-1.532.413-2.118.278-.587.659-1.036 1.143-1.347a2.973 2.973 0 0 1 1.646-.468c.474 0 .855.08 1.143.239.292.156.517.338.677.547.162.209.288.392.377.552h.09v-3.784h1.486V124h-1.451v-1.188h-.125a3.917 3.917 0 0 1-.387.557 2.164 2.164 0 0 1-.686.546c-.292.156-.67.234-1.134.234Zm.328-1.268c.428 0 .789-.112 1.084-.338.298-.228.524-.545.676-.949.156-.405.234-.875.234-1.412 0-.53-.076-.995-.229-1.392-.152-.398-.376-.708-.671-.93-.295-.222-.66-.333-1.094-.333-.447 0-.82.116-1.118.348a2.129 2.129 0 0 0-.677.95 3.874 3.874 0 0 0-.223 1.357c0 .51.076.969.228 1.377.153.408.378.731.677.969.301.236.672.353 1.113.353Zm7.799 1.288c-.484 0-.921-.089-1.312-.268a2.218 2.218 0 0 1-.93-.791c-.225-.345-.338-.767-.338-1.268 0-.431.083-.785.249-1.064.165-.278.389-.498.671-.661.282-.162.596-.285.944-.368a9.352 9.352 0 0 1 1.064-.189l1.114-.129c.285-.036.492-.094.621-.174.13-.079.194-.209.194-.388v-.034c0-.435-.122-.771-.368-1.01-.242-.238-.603-.358-1.083-.358-.501 0-.895.111-1.184.333-.285.219-.482.463-.591.731l-1.397-.318c.165-.464.407-.838.726-1.124a2.943 2.943 0 0 1 1.108-.626 4.319 4.319 0 0 1 1.318-.199c.305 0 .628.037.969.11.345.069.666.198.965.387.301.189.548.459.74.811.193.348.289.8.289 1.357V124h-1.452v-1.044h-.06c-.096.192-.24.381-.432.567a2.308 2.308 0 0 1-.741.462c-.301.123-.663.184-1.084.184Zm.323-1.193c.411 0 .763-.081 1.054-.244.295-.162.519-.374.672-.636.155-.265.233-.549.233-.85v-.985c-.053.053-.155.103-.308.15-.149.043-.32.081-.512.114-.192.03-.38.058-.562.084l-.457.06a3.67 3.67 0 0 0-.791.184c-.235.086-.424.21-.566.373-.14.159-.209.371-.209.636 0 .368.136.647.407.835.272.186.619.279 1.039.279Zm5.426 1.024v-7.636h1.427v1.243h.094a1.97 1.97 0 0 1 .781-.985c.361-.238.793-.358 1.297-.358.511 0 .938.12 1.283.358.348.239.605.567.77.985h.08c.182-.408.472-.733.87-.975.398-.245.872-.368 1.422-.368.693 0 1.258.217 1.695.651.441.435.661 1.089.661 1.964V124h-1.486v-4.982c0-.517-.141-.891-.423-1.123a1.535 1.535 0 0 0-1.009-.348c-.484 0-.86.149-1.128.447-.269.295-.403.675-.403 1.139V124h-1.482v-5.076c0-.414-.129-.747-.387-.999-.259-.252-.595-.378-1.01-.378-.281 0-.542.074-.78.224a1.63 1.63 0 0 0-.572.611 1.88 1.88 0 0 0-.214.91V124h-1.486Z" fill="#000"/><path d="M224.151 114.273V123h-1.321v-7.406h-.052l-2.088 1.363v-1.261l2.178-1.423h1.283Zm5.241 8.846a3.279 3.279 0 0 1-1.44-.307 2.6 2.6 0 0 1-1.014-.852 2.247 2.247 0 0 1-.405-1.236h1.278c.031.375.198.684.499.925.301.242.662.362 1.082.362.335 0 .632-.076.891-.23.261-.156.466-.37.613-.643.151-.273.226-.584.226-.933 0-.356-.077-.672-.23-.951a1.697 1.697 0 0 0-.635-.656 1.796 1.796 0 0 0-.92-.243c-.265 0-.53.046-.797.136a1.869 1.869 0 0 0-.648.358l-1.206-.179.49-4.397h4.798v1.129h-3.703l-.277 2.442h.051c.171-.165.397-.303.678-.414.284-.11.588-.166.912-.166a2.68 2.68 0 0 1 1.419.379c.418.253.746.598.984 1.036.242.435.361.935.358 1.5a2.92 2.92 0 0 1-.383 1.513 2.781 2.781 0 0 1-1.066 1.048c-.451.253-.97.379-1.555.379Zm7.856-.119v-8.727h3.196c.619 0 1.132.102 1.538.307.406.201.71.475.912.822.202.344.303.732.303 1.163 0 .364-.067.671-.201.921a1.64 1.64 0 0 1-.536.596 2.36 2.36 0 0 1-.733.324v.085c.289.015.572.108.848.282.278.17.508.413.69.728.182.316.273.699.273 1.151 0 .446-.105.847-.316 1.202-.207.352-.528.632-.963.839-.434.205-.99.307-1.666.307h-3.345Zm1.317-1.129h1.9c.631 0 1.083-.122 1.355-.367.273-.244.409-.549.409-.916 0-.276-.069-.528-.208-.758a1.487 1.487 0 0 0-.597-.55 1.907 1.907 0 0 0-.912-.205h-1.947v2.796Zm0-3.823h1.764c.295 0 .561-.057.797-.17.238-.114.427-.273.566-.477a1.26 1.26 0 0 0 .214-.733c0-.361-.127-.664-.38-.908s-.64-.367-1.163-.367h-1.798v2.655Zm12.147-3.775h1.321v5.74c0 .611-.144 1.152-.431 1.623-.287.469-.69.838-1.21 1.108-.52.267-1.129.401-1.828.401-.696 0-1.304-.134-1.824-.401a3.007 3.007 0 0 1-1.21-1.108c-.287-.471-.431-1.012-.431-1.623v-5.74h1.317v5.633c0 .395.087.746.26 1.053.176.307.425.548.746.724.321.174.702.26 1.142.26.443 0 .825-.086 1.146-.26.324-.176.571-.417.742-.724.173-.307.26-.658.26-1.053v-5.633Zm9.141 2.757a2.66 2.66 0 0 0-.332-.695 2.13 2.13 0 0 0-1.142-.865 2.615 2.615 0 0 0-.797-.115c-.491 0-.935.127-1.33.379-.394.253-.707.624-.937 1.113-.227.485-.341 1.081-.341 1.785 0 .707.115 1.305.345 1.794.23.489.546.86.946 1.112.401.253.857.38 1.368.38.475 0 .888-.097 1.24-.29.355-.193.629-.466.823-.818.196-.355.294-.773.294-1.253l.341.064h-2.498v-1.087h3.431v.993c0 .733-.156 1.369-.469 1.909a3.19 3.19 0 0 1-1.287 1.244c-.545.293-1.17.439-1.875.439-.79 0-1.483-.181-2.079-.545-.594-.364-1.057-.879-1.39-1.547-.332-.67-.498-1.466-.498-2.386 0-.696.096-1.321.29-1.875a4.059 4.059 0 0 1 .814-1.411 3.555 3.555 0 0 1 1.24-.891 3.886 3.886 0 0 1 1.564-.311c.471 0 .91.07 1.316.209.409.139.773.337 1.091.593a3.34 3.34 0 0 1 1.223 2.075h-1.351Zm7.842-.465a1.243 1.243 0 0 0-.562-.937c-.33-.225-.745-.337-1.245-.337-.357 0-.667.057-.928.171-.262.11-.465.264-.61.46a1.085 1.085 0 0 0-.213.66c0 .208.048.387.145.537.099.151.229.277.388.38.162.099.335.183.52.251.184.065.362.119.532.162l.853.222c.278.068.563.16.856.277.293.116.564.269.814.46.25.19.452.426.605.707.156.281.235.618.235 1.01 0 .494-.128.933-.384 1.317-.253.383-.621.686-1.104.907-.48.222-1.061.333-1.743.333-.653 0-1.218-.104-1.696-.311a2.621 2.621 0 0 1-1.12-.882c-.27-.384-.419-.838-.448-1.364h1.321c.026.315.128.578.307.788.182.208.413.363.695.465.284.099.595.149.933.149.372 0 .703-.058.993-.175a1.66 1.66 0 0 0 .69-.494 1.17 1.17 0 0 0 .252-.746.916.916 0 0 0-.222-.635 1.647 1.647 0 0 0-.592-.409 5.76 5.76 0 0 0-.84-.285l-1.031-.282c-.699-.19-1.253-.47-1.662-.839-.406-.369-.609-.858-.609-1.466 0-.503.136-.942.409-1.317a2.677 2.677 0 0 1 1.108-.873c.466-.21.991-.316 1.576-.316.591 0 1.113.104 1.564.311.455.208.813.493 1.074.857.261.361.398.776.409 1.244h-1.27Z" fill="#747474"/><rect x="40" y="105" width="28" height="28" rx="14" fill="#AD6FFF"/><path d="M50.328 115.145h1.641v5.477c0 .506-.114.946-.341 1.319a2.251 2.251 0 0 1-.94.863c-.401.202-.868.303-1.4.303a3.23 3.23 0 0 1-1.288-.249 2.059 2.059 0 0 1-.913-.767c-.225-.345-.336-.778-.334-1.3h1.653c.005.207.047.385.127.533a.869.869 0 0 0 .333.338c.144.076.312.115.507.115a.966.966 0 0 0 .517-.131.837.837 0 0 0 .326-.391c.075-.171.112-.382.112-.633v-5.477ZM54.696 123h-1.78l2.712-7.855h2.14L60.476 123h-1.78l-1.967-6.06h-.062L54.696 123Zm-.111-3.087h4.203v1.296h-4.203v-1.296Z" fill="#fff"/></g><g filter="url(#e)"><rect x="34" y="147" width="256" height="40" rx="20" fill="#fff"/><path d="M75.979 172h-1.631l3.664-10.182h1.775L83.45 172h-1.63l-2.88-8.332h-.079L75.98 172Zm.273-3.987h5.29v1.292h-5.29v-1.292Zm8.55 3.987v-7.636h1.437v1.213h.08a1.85 1.85 0 0 1 .735-.97 2.11 2.11 0 0 1 1.203-.358 7.159 7.159 0 0 1 .632.035v1.422a2.584 2.584 0 0 0-.319-.055 3.063 3.063 0 0 0-.457-.035c-.351 0-.664.075-.94.224a1.663 1.663 0 0 0-.885 1.497V172h-1.486Zm5.373 0v-7.636h1.427v1.243h.094c.16-.421.42-.75.78-.985.362-.238.795-.358 1.299-.358.51 0 .938.12 1.282.358a2.1 2.1 0 0 1 .77.985h.08c.183-.408.473-.733.87-.975.398-.245.872-.368 1.422-.368.693 0 1.258.217 1.695.651.441.435.662 1.089.662 1.964V172h-1.487v-4.982c0-.517-.14-.891-.422-1.123a1.537 1.537 0 0 0-1.01-.348c-.484 0-.86.149-1.128.447-.269.295-.403.675-.403 1.139V172h-1.481v-5.076c0-.414-.13-.747-.388-.999-.259-.252-.595-.378-1.01-.378-.281 0-.541.074-.78.224a1.633 1.633 0 0 0-.572.611 1.873 1.873 0 0 0-.213.91V172h-1.487Zm14.595.169c-.483 0-.921-.089-1.312-.268a2.218 2.218 0 0 1-.93-.791c-.225-.345-.338-.767-.338-1.268 0-.431.083-.785.249-1.064.165-.278.389-.498.671-.661.282-.162.596-.285.945-.368a9.335 9.335 0 0 1 1.063-.189l1.114-.129c.285-.036.492-.094.622-.174.129-.079.193-.209.193-.388v-.034c0-.435-.122-.771-.367-1.01-.242-.238-.604-.358-1.084-.358-.501 0-.895.111-1.184.333-.285.219-.482.463-.591.731l-1.397-.318c.166-.464.407-.838.726-1.124a2.943 2.943 0 0 1 1.108-.626 4.319 4.319 0 0 1 1.318-.199c.305 0 .628.037.969.11.345.069.666.198.965.387.301.189.548.459.741.811.192.348.288.8.288 1.357V172h-1.452v-1.044h-.059a2.152 2.152 0 0 1-.433.567 2.308 2.308 0 0 1-.741.462c-.301.123-.663.184-1.084.184Zm.324-1.193c.411 0 .762-.081 1.054-.244.295-.162.518-.374.671-.636.155-.265.233-.549.233-.85v-.985c-.053.053-.155.103-.308.15-.149.043-.32.081-.512.114-.192.03-.379.058-.562.084l-.457.06a3.683 3.683 0 0 0-.791.184c-.235.086-.424.21-.566.373-.14.159-.209.371-.209.636 0 .368.136.647.408.835.271.186.618.279 1.039.279Zm7.647 1.193c-.484 0-.921-.089-1.312-.268a2.218 2.218 0 0 1-.93-.791c-.225-.345-.338-.767-.338-1.268 0-.431.083-.785.248-1.064.166-.278.39-.498.672-.661a3.51 3.51 0 0 1 .944-.368 9.352 9.352 0 0 1 1.064-.189l1.114-.129c.285-.036.492-.094.621-.174.129-.079.194-.209.194-.388v-.034c0-.435-.123-.771-.368-1.01-.242-.238-.603-.358-1.084-.358-.5 0-.894.111-1.183.333-.285.219-.482.463-.591.731l-1.397-.318c.165-.464.407-.838.725-1.124a2.947 2.947 0 0 1 1.109-.626 4.319 4.319 0 0 1 1.318-.199c.304 0 .628.037.969.11.345.069.666.198.964.387.302.189.549.459.741.811.192.348.289.8.289 1.357V172h-1.452v-1.044h-.06c-.096.192-.24.381-.432.567a2.32 2.32 0 0 1-.741.462c-.302.123-.663.184-1.084.184Zm.323-1.193c.411 0 .763-.081 1.054-.244.295-.162.519-.374.671-.636a1.65 1.65 0 0 0 .234-.85v-.985c-.053.053-.156.103-.308.15-.149.043-.32.081-.512.114-.192.03-.38.058-.562.084l-.457.06a3.67 3.67 0 0 0-.791.184c-.235.086-.424.21-.567.373-.139.159-.208.371-.208.636 0 .368.135.647.407.835.272.186.618.279 1.039.279Zm6.912-3.51V172h-1.486v-7.636h1.426v1.243h.095c.175-.405.451-.73.825-.975.378-.245.854-.368 1.427-.368.52 0 .976.11 1.367.328.391.216.695.537.91.965.215.427.323.956.323 1.586V172h-1.486v-4.678c0-.554-.145-.986-.433-1.298-.288-.315-.684-.472-1.188-.472-.345 0-.651.074-.92.224a1.599 1.599 0 0 0-.631.656c-.153.285-.229.63-.229 1.034Zm10.705-5.648h1.864l3.242 7.915h.119l3.242-7.915h1.864V172h-1.462v-7.368h-.094l-3.003 7.353h-1.213l-3.003-7.358h-.094V172h-1.462v-10.182Zm14.668 10.351a3.12 3.12 0 0 1-1.313-.268 2.218 2.218 0 0 1-.93-.791c-.225-.345-.338-.767-.338-1.268 0-.431.083-.785.249-1.064.166-.278.389-.498.671-.661a3.53 3.53 0 0 1 .945-.368 9.313 9.313 0 0 1 1.064-.189l1.113-.129c.285-.036.492-.094.622-.174.129-.079.194-.209.194-.388v-.034c0-.435-.123-.771-.368-1.01-.242-.238-.604-.358-1.084-.358-.501 0-.895.111-1.183.333-.285.219-.483.463-.592.731l-1.397-.318c.166-.464.408-.838.726-1.124a2.943 2.943 0 0 1 1.108-.626 4.319 4.319 0 0 1 1.318-.199c.305 0 .628.037.969.11.345.069.667.198.965.387.302.189.548.459.741.811.192.348.288.8.288 1.357V172h-1.452v-1.044h-.059a2.13 2.13 0 0 1-.433.567 2.308 2.308 0 0 1-.741.462c-.301.123-.663.184-1.083.184Zm.323-1.193c.411 0 .762-.081 1.054-.244.295-.162.518-.374.671-.636a1.65 1.65 0 0 0 .234-.85v-.985c-.054.053-.156.103-.309.15-.149.043-.32.081-.512.114-.192.03-.379.058-.562.084l-.457.06a3.66 3.66 0 0 0-.79.184c-.236.086-.425.21-.567.373-.139.159-.209.371-.209.636 0 .368.136.647.408.835.271.186.618.279 1.039.279Zm6.911-9.158V172h-1.486v-10.182h1.486Zm2 10.182v-7.636h1.487V172h-1.487Zm.751-8.815a.944.944 0 0 1-.666-.258.84.84 0 0 1-.274-.627c0-.245.091-.454.274-.626a.931.931 0 0 1 .666-.263c.259 0 .479.087.661.263a.822.822 0 0 1 .279.626.835.835 0 0 1-.279.627.927.927 0 0 1-.661.258Zm4.103 6.225-.01-1.815h.258l3.043-3.231h1.78l-3.47 3.679h-.234l-1.367 1.367ZM158.07 172v-10.182h1.486V172h-1.486Zm4.822 0-2.734-3.629 1.024-1.039 3.535 4.668h-1.825Z" fill="#000"/><path d="M224.151 162.273V171h-1.321v-7.406h-.052l-2.088 1.363v-1.261l2.178-1.423h1.283Zm2.36 8.727v-.955l2.953-3.059c.316-.333.576-.624.78-.874.208-.253.363-.493.465-.72.102-.227.153-.469.153-.724 0-.29-.068-.54-.204-.75a1.338 1.338 0 0 0-.559-.49 1.764 1.764 0 0 0-.796-.175c-.313 0-.586.064-.819.192a1.308 1.308 0 0 0-.537.541 1.703 1.703 0 0 0-.187.818h-1.257c0-.531.122-.996.366-1.393.245-.398.58-.706 1.006-.925a3.1 3.1 0 0 1 1.453-.333c.548 0 1.031.11 1.449.329.42.215.749.511.984.886.236.372.354.793.354 1.261 0 .324-.061.641-.183.951-.119.309-.328.654-.627 1.035-.298.378-.713.837-1.244 1.376l-1.734 1.816v.064h3.929V171h-5.745Zm10.655 0v-8.727h3.196c.619 0 1.132.102 1.538.307.406.201.71.475.912.822.202.344.303.732.303 1.163 0 .364-.067.671-.201.921a1.634 1.634 0 0 1-.537.596 2.345 2.345 0 0 1-.732.324v.085c.289.015.572.108.848.282.278.17.508.413.69.728.182.316.273.699.273 1.151 0 .446-.106.847-.316 1.202-.207.352-.528.632-.963.839-.434.205-.99.307-1.666.307h-3.345Zm1.317-1.129h1.9c.631 0 1.083-.122 1.355-.367.273-.244.409-.549.409-.916 0-.276-.069-.528-.208-.758a1.493 1.493 0 0 0-.597-.55 1.907 1.907 0 0 0-.912-.205h-1.947v2.796Zm0-3.823h1.764c.295 0 .561-.057.797-.17.238-.114.427-.273.566-.477.142-.208.214-.452.214-.733 0-.361-.127-.664-.38-.908s-.64-.367-1.163-.367h-1.798v2.655Zm12.147-3.775h1.321v5.74c0 .611-.144 1.152-.431 1.623-.287.469-.69.838-1.21 1.108-.52.267-1.129.401-1.828.401-.696 0-1.304-.134-1.824-.401a3.007 3.007 0 0 1-1.21-1.108c-.287-.471-.431-1.012-.431-1.623v-5.74h1.317v5.633c0 .395.087.746.26 1.053.176.307.425.548.746.724.321.174.702.26 1.142.26.443 0 .825-.086 1.146-.26.324-.176.571-.417.742-.724.173-.307.26-.658.26-1.053v-5.633Zm9.141 2.757a2.66 2.66 0 0 0-.332-.695 2.13 2.13 0 0 0-1.142-.865 2.615 2.615 0 0 0-.797-.115c-.491 0-.935.127-1.33.379-.394.253-.707.624-.937 1.113-.227.485-.341 1.081-.341 1.785 0 .707.115 1.305.345 1.794.23.489.546.86.946 1.112.401.253.857.38 1.368.38.475 0 .888-.097 1.24-.29.355-.193.629-.466.823-.818.196-.355.294-.773.294-1.253l.341.064h-2.498v-1.087h3.431v.993c0 .733-.156 1.369-.469 1.909a3.19 3.19 0 0 1-1.287 1.244c-.545.293-1.17.439-1.875.439-.79 0-1.483-.181-2.079-.545-.594-.364-1.057-.879-1.39-1.547-.332-.67-.498-1.466-.498-2.386 0-.696.096-1.321.29-1.875a4.059 4.059 0 0 1 .814-1.411 3.555 3.555 0 0 1 1.24-.891 3.884 3.884 0 0 1 1.563-.311c.472 0 .911.07 1.317.209.409.139.773.337 1.091.593a3.34 3.34 0 0 1 1.223 2.075h-1.351Zm7.842-.465a1.243 1.243 0 0 0-.562-.937c-.33-.225-.745-.337-1.245-.337-.357 0-.667.057-.929.171-.261.11-.464.264-.609.46a1.085 1.085 0 0 0-.213.66c0 .208.048.387.145.537.099.151.229.277.388.38.162.099.335.183.52.251.184.065.362.119.532.162l.853.222c.278.068.563.16.856.277.293.116.564.269.814.46.25.19.452.426.605.707.156.281.234.618.234 1.01 0 .494-.127.933-.383 1.317-.253.383-.621.686-1.104.907-.48.222-1.061.333-1.743.333-.653 0-1.218-.104-1.696-.311-.477-.208-.851-.502-1.12-.882-.27-.384-.419-.838-.448-1.364h1.321c.026.315.128.578.307.788.182.208.413.363.695.465.284.099.595.149.933.149.372 0 .703-.058.993-.175.292-.119.522-.284.69-.494a1.17 1.17 0 0 0 .252-.746.916.916 0 0 0-.222-.635 1.647 1.647 0 0 0-.592-.409 5.76 5.76 0 0 0-.84-.285l-1.031-.282c-.699-.19-1.253-.47-1.662-.839-.406-.369-.609-.858-.609-1.466 0-.503.136-.942.409-1.317a2.677 2.677 0 0 1 1.108-.873c.465-.21.991-.316 1.576-.316.591 0 1.113.104 1.564.311.455.208.813.493 1.074.857.261.361.398.776.409 1.244h-1.27Z" fill="#747474"/><rect x="40" y="153" width="28" height="28" rx="14" fill="#36D287"/><path d="M47.036 171h-1.779l2.712-7.855h2.14L52.816 171h-1.78l-1.967-6.06h-.061L47.036 171Zm-.11-3.087h4.203v1.296h-4.204v-1.296Zm6.836-4.768h2.048l2.163 5.278h.092l2.163-5.278h2.048V171h-1.611v-5.112H60.6l-2.033 5.074H57.47l-2.032-5.094h-.066V171h-1.61v-7.855Z" fill="#fff"/></g></g><defs><filter id="a" x="-23.361" y="-3.222" width="388.833" height="249.028" filterUnits="userSpaceOnUse" color-interpolation-filters="sRGB"><feFlood flood-opacity="0" result="BackgroundImageFix"/><feColorMatrix in="SourceAlpha" values="0 0 0 0 0 0 0 0 0 0 0 0 0 0 0 0 0 0 127 0" result="hardAlpha"/><feOffset/><feColorMatrix values="0 0 0 0 0 0 0 0 0 0 0 0 0 0 0 0 0 0 0.06 0"/><feBlend in2="BackgroundImageFix" result="effect1_dropShadow_1868_39550"/><feColorMatrix in="SourceAlpha" values="0 0 0 0 0 0 0 0 0 0 0 0 0 0 0 0 0 0 127 0" result="hardAlpha"/><feOffset dy="2.417"/><feGaussianBlur stdDeviation="2.819"/><feColorMatrix values="0 0 0 0 0 0 0 0 0 0 0 0 0 0 0 0 0 0 0.06 0"/><feBlend in2="effect1_dropShadow_1868_39550" result="effect2_dropShadow_1868_39550"/><feColorMatrix in="SourceAlpha" values="0 0 0 0 0 0 0 0 0 0 0 0 0 0 0 0 0 0 127 0" result="hardAlpha"/><feOffset dx="-1.611" dy="10.472"/><feGaussianBlur stdDeviation="5.236"/><feColorMatrix values="0 0 0 0 0 0 0 0 0 0 0 0 0 0 0 0 0 0 0.05 0"/><feBlend in2="effect2_dropShadow_1868_39550" result="effect3_dropShadow_1868_39550"/><feColorMatrix in="SourceAlpha" values="0 0 0 0 0 0 0 0 0 0 0 0 0 0 0 0 0 0 127 0" result="hardAlpha"/><feOffset dx="-6.444" dy="41.889"/><feGaussianBlur stdDeviation="8.458"/><feColorMatrix values="0 0 0 0 0 0 0 0 0 0 0 0 0 0 0 0 0 0 0.01 0"/><feBlend in2="effect3_dropShadow_1868_39550" result="effect4_dropShadow_1868_39550"/><feBlend in="SourceGraphic" in2="effect4_dropShadow_1868_39550" result="shape"/></filter><filter id="c" x="96" y="49.703" width="262" height="46" filterUnits="userSpaceOnUse" color-interpolation-filters="sRGB"><feFlood flood-opacity="0" result="BackgroundImageFix"/><feColorMatrix in="SourceAlpha" values="0 0 0 0 0 0 0 0 0 0 0 0 0 0 0 0 0 0 127 0" result="hardAlpha"/><feOffset dy="1.703"/><feGaussianBlur stdDeviation="1.5"/><feColorMatrix values="0 0 0 0 0 0 0 0 0 0 0 0 0 0 0 0 0 0 0.06 0"/><feBlend in2="BackgroundImageFix" result="effect1_dropShadow_1868_39550"/><feBlend in="SourceGraphic" in2="effect1_dropShadow_1868_39550" result="shape"/></filter><filter id="d" x="25.486" y="96.73" width="270.758" height="57.028" filterUnits="userSpaceOnUse" color-interpolation-filters="sRGB"><feFlood flood-opacity="0" result="BackgroundImageFix"/><feColorMatrix in="SourceAlpha" values="0 0 0 0 0 0 0 0 0 0 0 0 0 0 0 0 0 0 127 0" result="hardAlpha"/><feOffset/><feColorMatrix values="0 0 0 0 0 0 0 0 0 0 0 0 0 0 0 0 0 0 0.06 0"/><feBlend in2="BackgroundImageFix" result="effect1_dropShadow_1868_39550"/><feColorMatrix in="SourceAlpha" values="0 0 0 0 0 0 0 0 0 0 0 0 0 0 0 0 0 0 127 0" result="hardAlpha"/><feOffset dy="1.703"/><feGaussianBlur stdDeviation="1.987"/><feColorMatrix values="0 0 0 0 0 0 0 0 0 0 0 0 0 0 0 0 0 0 0.06 0"/><feBlend in2="effect1_dropShadow_1868_39550" result="effect2_dropShadow_1868_39550"/><feColorMatrix in="SourceAlpha" values="0 0 0 0 0 0 0 0 0 0 0 0 0 0 0 0 0 0 127 0" result="hardAlpha"/><feOffset dx="-1.135" dy="7.379"/><feGaussianBlur stdDeviation="3.689"/><feColorMatrix values="0 0 0 0 0 0 0 0 0 0 0 0 0 0 0 0 0 0 0.05 0"/><feBlend in2="effect2_dropShadow_1868_39550" result="effect3_dropShadow_1868_39550"/><feBlend in="SourceGraphic" in2="effect3_dropShadow_1868_39550" result="shape"/></filter><filter id="e" x="17.539" y="144.73" width="280.407" height="83.706" filterUnits="userSpaceOnUse" color-interpolation-filters="sRGB"><feFlood flood-opacity="0" result="BackgroundImageFix"/><feColorMatrix in="SourceAlpha" values="0 0 0 0 0 0 0 0 0 0 0 0 0 0 0 0 0 0 127 0" result="hardAlpha"/><feOffset/><feColorMatrix values="0 0 0 0 0 0 0 0 0 0 0 0 0 0 0 0 0 0 0.06 0"/><feBlend in2="BackgroundImageFix" result="effect1_dropShadow_1868_39550"/><feColorMatrix in="SourceAlpha" values="0 0 0 0 0 0 0 0 0 0 0 0 0 0 0 0 0 0 127 0" result="hardAlpha"/><feOffset dy="1.703"/><feGaussianBlur stdDeviation="1.987"/><feColorMatrix values="0 0 0 0 0 0 0 0 0 0 0 0 0 0 0 0 0 0 0.06 0"/><feBlend in2="effect1_dropShadow_1868_39550" result="effect2_dropShadow_1868_39550"/><feColorMatrix in="SourceAlpha" values="0 0 0 0 0 0 0 0 0 0 0 0 0 0 0 0 0 0 127 0" result="hardAlpha"/><feOffset dx="-1.135" dy="7.379"/><feGaussianBlur stdDeviation="3.689"/><feColorMatrix values="0 0 0 0 0 0 0 0 0 0 0 0 0 0 0 0 0 0 0.05 0"/><feBlend in2="effect2_dropShadow_1868_39550" result="effect3_dropShadow_1868_39550"/><feColorMatrix in="SourceAlpha" values="0 0 0 0 0 0 0 0 0 0 0 0 0 0 0 0 0 0 127 0" result="hardAlpha"/><feOffset dx="-2.27" dy="17.028"/><feGaussianBlur stdDeviation="5.108"/><feColorMatrix values="0 0 0 0 0 0 0 0 0 0 0 0 0 0 0 0 0 0 0.03 0"/><feBlend in2="effect3_dropShadow_1868_39550" result="effect4_dropShadow_1868_39550"/><feColorMatrix in="SourceAlpha" values="0 0 0 0 0 0 0 0 0 0 0 0 0 0 0 0 0 0 127 0" result="hardAlpha"/><feOffset dx="-4.541" dy="29.516"/><feGaussianBlur stdDeviation="5.96"/><feColorMatrix values="0 0 0 0 0 0 0 0 0 0 0 0 0 0 0 0 0 0 0.01 0"/><feBlend in2="effect4_dropShadow_1868_39550" result="effect5_dropShadow_1868_39550"/><feBlend in="SourceGraphic" in2="effect5_dropShadow_1868_39550" result="shape"/></filter><clipPath id="b"><path fill="#fff" d="M0 0h368v168H0z"/></clipPath></defs></svg>