<svg width="564" height="433" viewBox="0 0 564 433" fill="none" xmlns="http://www.w3.org/2000/svg">
<g opacity="0.2" clip-path="url(#clip0_644_44500)">
<path d="M547.329 144.822C613.47 186.333 620.054 273.083 562.071 338.594C504.058 404.14 403.456 423.616 337.316 382.105C271.177 340.593 264.592 253.844 322.605 188.298C380.588 122.786 481.189 103.31 547.329 144.822Z" fill="#B0C3FF"/>
<path d="M417.414 404.853C388.454 404.853 360.409 397.78 336.784 382.952C307.088 364.315 288.082 335.62 283.267 302.155C277.69 263.386 291.754 221.645 321.856 187.634C380.058 121.875 481.442 102.288 547.862 143.975C577.561 162.614 596.569 191.312 601.384 224.782C606.96 263.543 592.904 305.268 562.821 339.257C525.31 381.637 469.868 404.853 417.414 404.853ZM467.185 124.048C415.312 124.048 360.476 147.019 323.356 188.96C293.644 222.53 279.754 263.683 285.247 301.869C289.978 334.744 308.658 362.937 337.847 381.257C403.472 422.445 503.721 403.01 561.321 337.931C591.015 304.382 604.895 263.245 599.402 225.066C594.671 192.188 575.99 163.991 546.798 145.67C523.478 131.034 495.779 124.048 467.185 124.048Z" fill="#111111"/>
<path d="M496.092 199.62C476.775 187.496 447.332 193.168 430.356 212.346C413.413 231.49 415.372 256.871 434.689 268.994C454.042 281.141 483.451 275.447 500.395 256.304C517.37 237.126 515.445 211.766 496.092 199.62Z" fill="white"/>
<path d="M458.123 276.354C449.518 276.354 441.181 274.25 434.158 269.842C425.296 264.28 419.624 255.707 418.183 245.701C416.523 234.161 420.687 221.762 429.607 211.683C446.856 192.196 476.917 186.405 496.624 198.771C505.493 204.338 511.169 212.908 512.608 222.903C514.268 234.444 510.089 246.861 501.145 256.967C490.055 269.497 473.656 276.354 458.123 276.354ZM472.647 194.246C457.676 194.246 441.834 200.888 431.106 213.01C422.576 222.648 418.587 234.459 420.163 245.416C421.518 254.83 426.865 262.903 435.22 268.147C454.136 280.017 483.037 274.408 499.645 255.641C508.2 245.975 512.203 234.147 510.627 223.188C509.273 213.784 503.924 205.715 495.561 200.466C488.849 196.256 480.879 194.246 472.647 194.246Z" fill="#111111"/>
<path d="M590.737 192.804L604.086 220.88C624.931 264.72 615.947 320.882 575.421 366.669C517.407 432.215 416.805 451.691 350.666 410.18C330.754 397.683 316.241 381.086 307.262 362.202L293.913 334.127C302.891 353.011 317.405 369.608 337.316 382.105C403.457 423.616 504.058 404.14 562.072 338.594C602.596 292.806 611.582 236.644 590.737 192.804Z" fill="#3658C1"/>
<path d="M430.763 432.928C401.802 432.929 373.758 425.856 350.133 411.028C330.768 398.874 315.632 382.139 306.358 362.632L293.008 334.557C292.771 334.057 292.984 333.461 293.483 333.223C293.983 332.985 294.579 333.198 294.816 333.697C303.926 352.86 318.807 369.306 337.848 381.257C403.473 422.445 503.722 403.01 561.322 337.931C600.369 293.815 611.294 238.37 589.834 193.235C589.596 192.736 589.81 192.139 590.308 191.901C590.808 191.663 591.405 191.876 591.642 192.375L604.991 220.451C626.802 266.323 615.759 322.605 576.17 367.333C538.659 409.713 483.217 432.925 430.763 432.928ZM303.761 352.512L308.165 361.772C317.274 380.935 332.155 397.381 351.196 409.333C416.822 450.52 517.07 431.086 574.67 366.006C613.717 321.89 624.642 266.445 603.182 221.309L598.922 212.35C609.769 253.899 596.824 300.838 562.82 339.257C525.31 381.638 469.867 404.85 417.414 404.852C388.454 404.853 360.409 397.779 336.784 382.951C323.668 374.719 312.491 364.386 303.761 352.512Z" fill="#111111"/>
<path d="M416.036 290.07C378.2 266.324 323.006 273.328 284.638 304.433C289.778 335.46 307.488 363.383 337.315 382.104C365.735 399.941 400.516 406.487 435.548 402.989C462.036 362.528 454.746 314.367 416.036 290.07Z" fill="white"/>
<path d="M417.182 404.917C387.381 404.917 359.875 397.445 336.784 382.951C307.887 364.815 289.018 336.988 283.652 304.597C283.592 304.242 283.729 303.883 284.008 303.657C323.34 271.77 379.09 265.7 416.567 289.224C434.454 300.45 446.191 316.826 450.513 336.582C455.311 358.515 450.293 382.294 436.386 403.538C436.22 403.791 435.949 403.955 435.649 403.986C429.41 404.608 423.247 404.917 417.182 404.917ZM285.722 304.844C291.121 336.416 309.615 363.536 337.848 381.256C365.142 398.388 398.72 405.57 434.971 402.04C448.385 381.351 453.21 358.275 448.557 337.008C444.353 317.788 432.923 301.851 415.503 290.918C378.871 267.926 324.383 273.8 285.722 304.844Z" fill="#111111"/>
</g>
<g clip-path="url(#clip1_644_44500)">
<path d="M332.731 235.349L319.099 260.837C309.452 278.874 295.26 294.853 276.635 307.379C206.982 354.226 101.747 335.019 41.5986 264.555C-2.4828 212.912 -10.1577 148.079 16.2662 98.6757L29.8982 73.1882C3.47441 122.592 11.1493 187.425 55.2306 239.068C115.379 309.532 220.614 328.738 290.267 281.892C308.892 269.365 323.084 253.386 332.731 235.349Z" fill="#CDD5EF"/>
<path d="M188.903 333.932C135.057 333.932 78.8915 309.786 40.8374 265.205C-2.02656 214.988 -12.0173 149.437 15.3839 98.2046L28.98 72.7821C28.992 72.7601 29.003 72.7391 29.015 72.7171C29.2761 72.2299 29.8803 72.0458 30.3695 72.3069C30.8566 72.567 31.0407 73.1733 30.7796 73.6615C3.76959 124.162 13.6663 188.833 55.992 238.42C115.745 308.421 220.59 327.551 289.709 281.063C307.779 268.91 321.958 253.371 331.848 234.879C332.109 234.392 332.714 234.208 333.203 234.469C333.69 234.729 333.874 235.335 333.613 235.824L319.981 261.311C309.934 280.094 295.538 295.874 277.193 308.212C251.325 325.607 220.511 333.932 188.903 333.932ZM20.1677 93.5028L17.1486 99.1479C-9.86247 149.648 0.0342033 214.32 42.3599 263.905C102.112 333.906 206.956 353.037 276.077 306.549C294.147 294.395 308.326 278.857 318.216 260.365L321.211 254.766C312.786 265.43 302.623 274.788 290.824 282.722C220.89 329.758 114.862 310.467 54.4694 239.717C17.2146 196.072 4.78997 140.846 20.1677 93.5028Z" fill="#111111"/>
<path d="M332.735 235.238C371.159 163.392 334.516 68.8934 250.891 24.1692C167.265 -20.5549 68.3247 1.43153 29.9005 73.2773C-8.52365 145.123 28.1192 239.622 111.745 284.346C195.37 329.07 294.311 307.083 332.735 235.238Z" fill="white"/>
<path d="M202.536 308.445C148.69 308.445 92.5237 284.299 54.4696 239.717C23.5701 203.518 9.16075 158.571 14.9339 116.401C20.0238 79.2255 40.2253 47.0495 71.819 25.8016C141.756 -21.2348 247.784 -1.94167 308.175 68.8076C339.066 104.998 353.472 149.946 347.696 192.126C342.606 229.305 322.409 261.479 290.823 282.722C264.958 300.119 234.143 308.445 202.536 308.445ZM72.9364 27.4612C41.8229 48.387 21.9285 80.0698 16.9176 116.672C11.2215 158.278 25.4628 202.652 55.9931 238.418C93.6591 282.544 149.257 306.456 202.516 306.46C233.744 306.462 264.161 298.244 289.71 281.061C320.814 260.142 340.705 228.461 345.716 191.854C351.413 150.238 337.177 105.862 306.654 70.1051C246.901 0.104097 142.055 -19.026 72.9364 27.4612Z" fill="#111111"/>
<path d="M121.866 88.0246C101.524 101.707 99.2441 129.528 116.854 150.158C134.43 170.748 165.221 176.327 185.563 162.645C205.944 148.937 208.188 121.141 190.612 100.55C173.001 79.9206 142.247 74.3175 121.866 88.0246Z" fill="#EBF0FF"/>
<path d="M159.894 171.12C143.952 171.12 127.34 163.986 116.091 150.808C106.927 140.071 102.655 126.723 104.372 114.186C105.889 103.106 111.903 93.5207 121.308 87.1954C142.053 73.2432 173.483 78.9443 191.371 99.9021C200.524 110.625 204.79 123.956 203.076 136.477C201.558 147.555 195.537 157.143 186.119 163.477C178.434 168.645 169.279 171.12 159.894 171.12ZM122.424 88.855C113.499 94.8572 107.792 103.95 106.355 114.458C104.715 126.43 108.819 139.205 117.614 149.509C134.848 169.697 165.078 175.217 185.004 161.815C193.941 155.804 199.655 146.708 201.094 136.204C202.731 124.248 198.633 111.489 189.85 101.2C172.599 80.9901 142.352 75.453 122.424 88.855Z" fill="#111111"/>
<path d="M290.267 281.892C320.192 261.765 338.659 232.724 345.234 200.559C305.228 165.309 245.689 157.89 204.913 185.315C165.067 212.115 156.478 263.227 181.72 306.322C220.205 310.706 258.854 303.019 290.267 281.892Z" fill="#EBF0FF"/>
<path d="M202.298 308.499C195.463 308.499 188.555 308.107 181.605 307.315C181.293 307.279 181.013 307.098 180.854 306.827C154.916 262.54 164.798 211.088 204.354 184.485C224.133 171.181 249.392 165.482 275.474 168.44C301.244 171.362 326.253 182.502 345.896 199.807C346.165 200.044 346.287 200.406 346.214 200.758C339.381 234.185 319.711 263.293 290.824 282.72C265.725 299.603 234.869 308.499 202.298 308.499ZM182.33 305.383C221.744 309.764 259.862 301.135 289.709 281.061C318.404 261.761 337.215 234.062 344.137 200.927C324.866 184.107 300.426 173.283 275.249 170.428C249.639 167.524 224.859 173.106 205.47 186.145C166.947 212.055 157.256 262.134 182.33 305.383Z" fill="#111111"/>
</g>
<defs>
<clipPath id="clip0_644_44500">
<rect width="334" height="311" fill="white" transform="translate(282 122)"/>
</clipPath>
<clipPath id="clip1_644_44500">
<rect width="349" height="334" fill="white"/>
</clipPath>
</defs>
</svg>
