<svg width="187" height="36" viewBox="0 0 187 36" fill="none" xmlns="http://www.w3.org/2000/svg">
<path fill-rule="evenodd" clip-rule="evenodd" d="M27.0567 4.02662C24.6745 4.02662 22.7434 5.95774 22.7434 8.33989C22.7434 10.722 24.6745 12.6532 27.0567 12.6532C29.4388 12.6532 31.37 10.722 31.37 8.33989C31.37 5.95774 29.4388 4.02662 27.0567 4.02662ZM18.8223 8.33989C18.8223 3.79215 22.5089 0.105469 27.0567 0.105469C31.6044 0.105469 35.2911 3.79215 35.2911 8.33989C35.2911 12.8876 31.6044 16.5743 27.0567 16.5743C22.5089 16.5743 18.8223 12.8876 18.8223 8.33989Z" fill="black"/>
<path fill-rule="evenodd" clip-rule="evenodd" d="M8.23443 4.02662C5.85227 4.02662 3.92115 5.95774 3.92115 8.33989C3.92115 10.722 5.85227 12.6532 8.23443 12.6532C10.6166 12.6532 12.5477 10.722 12.5477 8.33989C12.5477 5.95774 10.6166 4.02662 8.23443 4.02662ZM0 8.33989C0 3.79215 3.68668 0.105469 8.23443 0.105469C12.7822 0.105469 16.4689 3.79215 16.4689 8.33989C16.4689 12.8876 12.7822 16.5743 8.23443 16.5743C3.68668 16.5743 0 12.8876 0 8.33989Z" fill="black"/>
<path fill-rule="evenodd" clip-rule="evenodd" d="M27.0567 22.8508C24.6745 22.8508 22.7434 24.782 22.7434 27.1641C22.7434 29.5463 24.6745 31.4774 27.0567 31.4774C29.4388 31.4774 31.37 29.5463 31.37 27.1641C31.37 24.782 29.4388 22.8508 27.0567 22.8508ZM18.8223 27.1641C18.8223 22.6164 22.5089 18.9297 27.0567 18.9297C31.6044 18.9297 35.2911 22.6164 35.2911 27.1641C35.2911 31.7119 31.6044 35.3985 27.0567 35.3985C22.5089 35.3985 18.8223 31.7119 18.8223 27.1641Z" fill="black"/>
<path d="M54.5454 32.1295V20.5495L55.3821 20.6499C55.3598 21.1854 55.159 21.7209 54.7797 22.2564C54.4227 22.7696 53.943 23.2493 53.3406 23.6955C52.7604 24.1195 52.1022 24.4653 51.3659 24.733C50.6519 24.9785 49.9045 25.1012 49.1236 25.1012C47.5617 25.1012 46.156 24.7107 44.9066 23.9298C43.6794 23.1266 42.7088 22.0333 41.9948 20.6499C41.2808 19.2666 40.9238 17.6936 40.9238 15.9309C40.9238 14.1459 41.2697 12.5729 41.9613 11.2119C42.6753 9.82851 43.6348 8.74637 44.8396 7.96545C46.0668 7.16221 47.4613 6.76059 49.0231 6.76059C49.871 6.76059 50.6854 6.89446 51.4663 7.16221C52.2473 7.42995 52.9501 7.78695 53.5748 8.23319C54.1996 8.67943 54.6904 9.18146 55.0474 9.73926C55.4267 10.2971 55.6275 10.866 55.6499 11.4461L54.5789 11.5465L54.6458 7.09527H58.662V32.1295H54.5454ZM49.7929 21.4532C50.7523 21.4532 51.6002 21.2189 52.3365 20.7503C53.0728 20.2818 53.6418 19.6347 54.0434 18.8092C54.4673 17.9836 54.6793 17.0242 54.6793 15.9309C54.6793 14.8376 54.4673 13.8782 54.0434 13.0526C53.6418 12.2048 53.0728 11.5465 52.3365 11.078C51.6002 10.6094 50.7523 10.3752 49.7929 10.3752C48.8335 10.3752 47.9856 10.6206 47.2493 11.1115C46.513 11.58 45.9329 12.2382 45.509 13.0861C45.1074 13.9116 44.9066 14.8599 44.9066 15.9309C44.9066 17.0019 45.1074 17.9613 45.509 18.8092C45.9329 19.6347 46.513 20.2818 47.2493 20.7503C47.9856 21.2189 48.8335 21.4532 49.7929 21.4532Z" fill="black"/>
<path d="M67.9209 25.1012C66.6492 25.1012 65.5447 24.8223 64.6076 24.2645C63.6705 23.6844 62.9565 22.87 62.4656 21.8213C61.9748 20.7503 61.7293 19.4785 61.7293 18.0059V7.12874H65.8459V17.1357C65.8459 18.0729 65.9909 18.8761 66.281 19.5455C66.5711 20.1925 66.995 20.6945 67.5528 21.0515C68.1106 21.4085 68.78 21.587 69.5609 21.587C70.141 21.587 70.6653 21.4978 71.1339 21.3193C71.6248 21.1185 72.0487 20.8507 72.4057 20.516C72.7627 20.159 73.0416 19.7463 73.2424 19.2777C73.4432 18.7869 73.5436 18.2625 73.5436 17.7047V7.12874H77.6602V24.7665H73.644L73.5771 21.085L74.3134 20.6834C74.0456 21.5312 73.5882 22.2899 72.9412 22.9592C72.3164 23.6063 71.569 24.1306 70.6988 24.5322C69.8286 24.9115 68.9027 25.1012 67.9209 25.1012Z" fill="black"/>
<path d="M87.4719 25.1012C86.0216 25.1012 84.7052 24.6996 83.5226 23.8963C82.3401 23.0931 81.3918 21.9998 80.6778 20.6164C79.9639 19.2331 79.6069 17.6601 79.6069 15.8974C79.6069 14.1348 79.9639 12.5618 80.6778 11.1784C81.3918 9.79504 82.3624 8.7129 83.5896 7.93198C84.8167 7.15105 86.2001 6.76059 87.7396 6.76059C88.6321 6.76059 89.4465 6.89446 90.1828 7.16221C90.9191 7.40764 91.5662 7.76464 92.124 8.23319C92.6818 8.70175 93.1392 9.23724 93.4962 9.83967C93.8755 10.4421 94.1321 11.0892 94.266 11.7808L93.3623 11.5465V7.12874H97.5124V24.7665H93.3288V20.5495L94.2994 20.3822C94.1432 20.9846 93.8532 21.5759 93.4292 22.156C93.0276 22.7138 92.5144 23.2158 91.8897 23.6621C91.2873 24.086 90.6068 24.4318 89.8481 24.6996C89.1118 24.9673 88.3198 25.1012 87.4719 25.1012ZM88.6098 21.4532C89.5692 21.4532 90.4171 21.2189 91.1534 20.7503C91.8897 20.2818 92.4587 19.6347 92.8603 18.8092C93.2842 17.9613 93.4962 16.9907 93.4962 15.8974C93.4962 14.8264 93.2842 13.8782 92.8603 13.0526C92.4587 12.2271 91.8897 11.58 91.1534 11.1115C90.4171 10.6429 89.5692 10.4086 88.6098 10.4086C87.6504 10.4086 86.8025 10.6429 86.0662 11.1115C85.3522 11.58 84.7944 12.2271 84.3928 13.0526C83.9912 13.8782 83.7904 14.8264 83.7904 15.8974C83.7904 16.9907 83.9912 17.9613 84.3928 18.8092C84.7944 19.6347 85.3522 20.2818 86.0662 20.7503C86.8025 21.2189 87.6504 21.4532 88.6098 21.4532Z" fill="black"/>
<path d="M106.502 25.1012C104.94 25.1012 103.534 24.8446 102.285 24.3314C101.058 23.7959 100.054 23.0373 99.2729 22.0556L101.95 19.7463C102.62 20.5049 103.367 21.0515 104.193 21.3862C105.018 21.7209 105.888 21.8882 106.803 21.8882C107.183 21.8882 107.517 21.8436 107.807 21.7544C108.12 21.6651 108.387 21.5312 108.61 21.3528C108.834 21.1743 109.001 20.9734 109.113 20.7503C109.246 20.5049 109.313 20.2371 109.313 19.9471C109.313 19.4116 109.113 18.9877 108.711 18.6753C108.488 18.5191 108.131 18.3518 107.64 18.1733C107.171 17.9948 106.558 17.8163 105.799 17.6378C104.594 17.3254 103.59 16.9684 102.787 16.5668C101.984 16.1429 101.359 15.6743 100.913 15.1611C100.533 14.7372 100.243 14.2575 100.043 13.722C99.8641 13.1865 99.7749 12.6064 99.7749 11.9816C99.7749 11.2007 99.9422 10.4979 100.277 9.87314C100.634 9.22608 101.114 8.66828 101.716 8.19972C102.318 7.73117 103.021 7.37417 103.825 7.12874C104.628 6.8833 105.464 6.76059 106.335 6.76059C107.227 6.76059 108.086 6.87215 108.912 7.09527C109.76 7.31839 110.54 7.64192 111.254 8.06585C111.991 8.46747 112.616 8.95834 113.129 9.53845L110.853 12.0486C110.429 11.647 109.96 11.29 109.447 10.9776C108.956 10.6652 108.454 10.4198 107.941 10.2413C107.428 10.0405 106.948 9.94007 106.502 9.94007C106.078 9.94007 105.699 9.9847 105.364 10.0739C105.029 10.1409 104.75 10.2524 104.527 10.4086C104.304 10.5648 104.126 10.7656 103.992 11.0111C103.88 11.2342 103.825 11.5019 103.825 11.8143C103.847 12.082 103.914 12.3386 104.025 12.5841C104.159 12.8072 104.338 12.9968 104.561 13.153C104.806 13.3092 105.174 13.4877 105.665 13.6885C106.156 13.8893 106.792 14.079 107.573 14.2575C108.666 14.5475 109.581 14.8711 110.317 15.2281C111.054 15.5851 111.634 15.9978 112.058 16.4664C112.482 16.868 112.783 17.3366 112.961 17.8721C113.14 18.4075 113.229 18.9988 113.229 19.6459C113.229 20.6945 112.928 21.6317 112.325 22.4572C111.745 23.2828 110.942 23.9298 109.916 24.3984C108.912 24.8669 107.774 25.1012 106.502 25.1012Z" fill="black"/>
<path d="M115.182 24.7665V0H119.265V10.7433L118.495 11.1449C118.719 10.3417 119.154 9.61655 119.801 8.96949C120.448 8.30013 121.217 7.76464 122.11 7.36302C123.002 6.9614 123.917 6.76059 124.854 6.76059C126.193 6.76059 127.309 7.02833 128.201 7.56383C129.116 8.09932 129.797 8.90256 130.243 9.97354C130.711 11.0445 130.946 12.3833 130.946 13.9897V24.7665H126.829V14.2909C126.829 13.3985 126.706 12.6622 126.461 12.082C126.215 11.4796 125.836 11.0445 125.323 10.7768C124.81 10.4867 124.185 10.3528 123.449 10.3752C122.846 10.3752 122.288 10.4756 121.775 10.6764C121.284 10.8549 120.849 11.1226 120.47 11.4796C120.113 11.8143 119.823 12.2048 119.6 12.651C119.399 13.0972 119.299 13.5881 119.299 14.1236V24.7665H117.257C116.855 24.7665 116.476 24.7665 116.119 24.7665C115.784 24.7665 115.472 24.7665 115.182 24.7665Z" fill="black"/>
<path d="M139.805 24.7382V6.95517H146.842C147.773 6.95517 148.612 7.18381 149.357 7.64109C150.102 8.09837 150.695 8.73348 151.135 9.54642C151.575 10.3424 151.796 11.24 151.796 12.2393C151.796 13.2893 151.575 14.2293 151.135 15.0592C150.695 15.8721 150.102 16.5242 149.357 17.0153C148.612 17.4895 147.773 17.7266 146.842 17.7266H141.786V24.7382H139.805ZM141.786 15.7959H146.943C147.468 15.7959 147.934 15.6435 148.341 15.3386C148.764 15.0168 149.103 14.5934 149.357 14.0684C149.611 13.5264 149.738 12.9083 149.738 12.2139C149.738 11.5872 149.611 11.0283 149.357 10.5372C149.103 10.0291 148.764 9.6311 148.341 9.34318C147.934 9.03833 147.468 8.88591 146.943 8.88591H141.786V15.7959Z" fill="black"/>
<path d="M154.592 24.7382V6.95517H161.553C162.586 6.95517 163.517 7.20075 164.347 7.6919C165.194 8.16612 165.863 8.81816 166.354 9.64804C166.845 10.4779 167.091 11.4179 167.091 12.4679C167.091 13.4502 166.854 14.3394 166.379 15.1354C165.905 15.9314 165.262 16.5665 164.449 17.0407C163.636 17.498 162.721 17.7266 161.705 17.7266H156.573V24.7382H154.592ZM165.439 24.7382L160.968 16.9137L162.874 16.2532L167.802 24.7382H165.439ZM156.573 15.7959H161.883C162.51 15.7959 163.06 15.6519 163.534 15.364C164.008 15.0761 164.381 14.6866 164.652 14.1954C164.923 13.6873 165.058 13.1115 165.058 12.4679C165.058 11.7735 164.898 11.1554 164.576 10.6134C164.254 10.0714 163.805 9.64804 163.229 9.34318C162.67 9.03833 162.027 8.88591 161.299 8.88591H156.573V15.7959Z" fill="black"/>
<path d="M177.44 24.9923C176.187 24.9923 175.027 24.7721 173.96 24.3318C172.91 23.8745 171.987 23.2394 171.191 22.4264C170.412 21.6135 169.802 20.6566 169.362 19.5557C168.938 18.4379 168.727 17.2185 168.727 15.8975C168.727 14.5765 168.938 13.3655 169.362 12.2647C169.802 11.1469 170.412 10.1815 171.191 9.36859C171.987 8.53871 172.91 7.9036 173.96 7.46326C175.027 7.00598 176.187 6.77734 177.44 6.77734C178.71 6.77734 179.871 7.00598 180.921 7.46326C181.988 7.9036 182.911 8.53871 183.69 9.36859C184.486 10.1815 185.095 11.1469 185.519 12.2647C185.959 13.3655 186.179 14.5765 186.179 15.8975C186.179 17.2016 185.959 18.4125 185.519 19.5303C185.095 20.6312 184.486 21.5966 183.69 22.4264C182.911 23.2394 181.988 23.8745 180.921 24.3318C179.871 24.7721 178.71 24.9923 177.44 24.9923ZM177.44 23.0361C178.406 23.0361 179.295 22.8668 180.108 22.5281C180.938 22.1724 181.649 21.6728 182.242 21.0292C182.834 20.3856 183.292 19.632 183.614 18.7682C183.952 17.8875 184.122 16.9306 184.122 15.8975C184.122 14.8475 183.952 13.8906 183.614 13.0268C183.292 12.1461 182.834 11.384 182.242 10.7404C181.649 10.0968 180.938 9.59723 180.108 9.24157C179.295 8.88591 178.406 8.70807 177.44 8.70807C176.475 8.70807 175.577 8.88591 174.747 9.24157C173.934 9.59723 173.232 10.0968 172.639 10.7404C172.046 11.384 171.589 12.1461 171.267 13.0268C170.945 13.8906 170.784 14.8475 170.784 15.8975C170.784 16.9306 170.945 17.8875 171.267 18.7682C171.589 19.632 172.046 20.3856 172.639 21.0292C173.232 21.6728 173.934 22.1724 174.747 22.5281C175.577 22.8668 176.475 23.0361 177.44 23.0361Z" fill="black"/>
</svg>
