<svg width="888" height="230" viewBox="0 0 888 230" fill="none" xmlns="http://www.w3.org/2000/svg">
<path fill-rule="evenodd" clip-rule="evenodd" d="M175.09 26.055C159.674 26.055 147.177 38.5521 147.177 53.9681C147.177 69.384 159.674 81.8811 175.09 81.8811C190.506 81.8811 203.003 69.384 203.003 53.9681C203.003 38.5521 190.506 26.055 175.09 26.055ZM121.801 53.9681C121.801 24.5376 145.659 0.679504 175.09 0.679504C204.52 0.679504 228.378 24.5376 228.378 53.9681C228.378 83.3985 204.52 107.257 175.09 107.257C145.659 107.257 121.801 83.3985 121.801 53.9681Z" fill="white"/>
<path fill-rule="evenodd" clip-rule="evenodd" d="M53.2886 26.0552C37.8726 26.0552 25.3755 38.5523 25.3755 53.9682C25.3755 69.3842 37.8726 81.8813 53.2886 81.8813C68.7045 81.8813 81.2016 69.3842 81.2016 53.9682C81.2016 38.5523 68.7045 26.0552 53.2886 26.0552ZM0 53.9682C0 24.5378 23.8581 0.679688 53.2886 0.679688C82.719 0.679688 106.577 24.5378 106.577 53.9682C106.577 83.3987 82.719 107.257 53.2886 107.257C23.8581 107.257 0 83.3987 0 53.9682Z" fill="white"/>
<path fill-rule="evenodd" clip-rule="evenodd" d="M175.09 147.856C159.674 147.856 147.177 160.353 147.177 175.769C147.177 191.185 159.674 203.682 175.09 203.682C190.506 203.682 203.003 191.185 203.003 175.769C203.003 160.353 190.506 147.856 175.09 147.856ZM121.801 175.769C121.801 146.339 145.659 122.481 175.09 122.481C204.52 122.481 228.378 146.339 228.378 175.769C228.378 205.2 204.52 229.058 175.09 229.058C145.659 229.058 121.801 205.2 121.801 175.769Z" fill="white"/>
<path d="M393.522 207.924V132.985L398.936 133.635C398.792 137.1 397.492 140.565 395.038 144.031C392.728 147.352 389.623 150.456 385.725 153.344C381.97 156.088 377.711 158.326 372.946 160.058C368.325 161.647 363.488 162.441 358.434 162.441C348.327 162.441 339.23 159.914 331.144 154.86C323.203 149.662 316.922 142.587 312.301 133.635C307.681 124.682 305.37 114.503 305.37 103.096C305.37 91.5444 307.609 81.3648 312.085 72.5569C316.705 63.6046 322.914 56.6016 330.711 51.5479C338.653 46.3498 347.677 43.7507 357.785 43.7507C363.272 43.7507 368.542 44.6171 373.596 46.3498C378.649 48.0825 383.198 50.3928 387.241 53.2806C391.284 56.1684 394.46 59.4172 396.77 63.027C399.225 66.6368 400.525 70.3188 400.669 74.073L393.738 74.7228L394.171 45.9166H420.162V207.924H393.522ZM362.766 138.833C368.975 138.833 374.462 137.317 379.227 134.284C383.992 131.252 387.674 127.065 390.273 121.722C393.016 116.38 394.388 110.171 394.388 103.096C394.388 96.0206 393.016 89.8117 390.273 84.4692C387.674 78.9823 383.992 74.7228 379.227 71.6905C374.462 68.6583 368.975 67.1422 362.766 67.1422C356.557 67.1422 351.07 68.7305 346.306 71.9071C341.541 74.9394 337.786 79.1989 335.043 84.6858C332.444 90.0283 331.144 96.165 331.144 103.096C331.144 110.027 332.444 116.235 335.043 121.722C337.786 127.065 341.541 131.252 346.306 134.284C351.07 137.317 356.557 138.833 362.766 138.833Z" fill="white"/>
<path d="M480.081 162.441C471.85 162.441 464.703 160.636 458.638 157.026C452.574 153.272 447.953 148.002 444.777 141.215C441.6 134.284 440.012 126.054 440.012 116.524V46.1332H466.652V110.893C466.652 116.957 467.591 122.155 469.468 126.487C471.345 130.675 474.088 133.923 477.698 136.234C481.308 138.544 485.64 139.699 490.693 139.699C494.448 139.699 497.841 139.122 500.873 137.966C504.05 136.667 506.793 134.934 509.103 132.768C511.414 130.458 513.219 127.787 514.518 124.755C515.818 121.578 516.467 118.185 516.467 114.575V46.1332H543.108V160.275H517.117L516.684 136.45L521.449 133.851C519.716 139.338 516.756 144.247 512.569 148.579C508.526 152.767 503.689 156.16 498.057 158.759C492.426 161.213 486.434 162.441 480.081 162.441Z" fill="white"/>
<path d="M606.603 162.441C597.218 162.441 588.699 159.842 581.046 154.644C573.393 149.446 567.257 142.37 562.636 133.418C558.016 124.466 555.705 114.286 555.705 102.879C555.705 91.4722 558.016 81.2926 562.636 72.3403C567.257 63.388 573.538 56.385 581.479 51.3313C589.421 46.2776 598.373 43.7507 608.336 43.7507C614.112 43.7507 619.382 44.6171 624.147 46.3498C628.912 47.9381 633.099 50.2484 636.709 53.2806C640.319 56.3128 643.279 59.7782 645.589 63.6768C648.044 67.5754 649.704 71.7627 650.571 76.2389L644.723 74.7228V46.1332H671.58V160.275H644.506V132.985L650.787 131.902C649.777 135.801 647.899 139.627 645.156 143.381C642.557 146.991 639.236 150.24 635.193 153.128C631.294 155.871 626.89 158.109 621.981 159.842C617.216 161.574 612.09 162.441 606.603 162.441ZM613.967 138.833C620.176 138.833 625.663 137.317 630.428 134.284C635.193 131.252 638.875 127.065 641.474 121.722C644.217 116.235 645.589 109.954 645.589 102.879C645.589 95.9484 644.217 89.8117 641.474 84.4692C638.875 79.1267 635.193 74.9394 630.428 71.9071C625.663 68.8749 620.176 67.3588 613.967 67.3588C607.759 67.3588 602.272 68.8749 597.507 71.9071C592.886 74.9394 589.276 79.1267 586.677 84.4692C584.078 89.8117 582.779 95.9484 582.779 102.879C582.779 109.954 584.078 116.235 586.677 121.722C589.276 127.065 592.886 131.252 597.507 134.284C602.272 137.317 607.759 138.833 613.967 138.833Z" fill="white"/>
<path d="M729.756 162.441C719.648 162.441 710.551 160.78 702.465 157.459C694.524 153.994 688.026 149.085 682.973 142.731L700.3 127.787C704.631 132.696 709.469 136.234 714.811 138.4C720.154 140.565 725.785 141.648 731.705 141.648C734.159 141.648 736.325 141.36 738.202 140.782C740.224 140.204 741.957 139.338 743.401 138.183C744.845 137.028 745.927 135.728 746.649 134.284C747.516 132.696 747.949 130.963 747.949 129.086C747.949 125.621 746.649 122.877 744.05 120.856C742.606 119.845 740.296 118.762 737.12 117.607C734.087 116.452 730.117 115.297 725.207 114.142C717.41 112.12 710.912 109.81 705.714 107.211C700.516 104.467 696.473 101.435 693.585 98.1143C691.131 95.3708 689.254 92.2664 687.954 88.801C686.799 85.3356 686.221 81.5814 686.221 77.5384C686.221 72.4847 687.304 67.9364 689.47 63.8934C691.78 59.706 694.885 56.0962 698.783 53.064C702.682 50.0318 707.23 47.7215 712.429 46.1332C717.627 44.5449 723.041 43.7507 728.673 43.7507C734.448 43.7507 740.007 44.4727 745.35 45.9166C750.837 47.3605 755.89 49.4542 760.511 52.1977C765.276 54.7967 769.319 57.9733 772.64 61.7275L757.912 77.9716C755.169 75.3725 752.136 73.0623 748.815 71.0408C745.639 69.0193 742.39 67.431 739.069 66.2759C735.748 64.9763 732.643 64.3266 729.756 64.3266C727.012 64.3266 724.557 64.6153 722.392 65.1929C720.226 65.6261 718.421 66.348 716.977 67.3588C715.533 68.3695 714.378 69.6691 713.511 71.2574C712.79 72.7013 712.429 74.434 712.429 76.4555C712.573 78.1882 713.006 79.8487 713.728 81.437C714.594 82.8809 715.75 84.1082 717.193 85.119C718.782 86.1297 721.164 87.2849 724.341 88.5844C727.517 89.8839 731.633 91.1112 736.686 92.2664C743.762 94.1435 749.682 96.2372 754.447 98.5474C759.212 100.858 762.966 103.529 765.709 106.561C768.453 109.16 770.402 112.192 771.557 115.658C772.712 119.123 773.29 122.95 773.29 127.137C773.29 133.923 771.34 139.988 767.442 145.33C763.688 150.673 758.49 154.86 751.847 157.892C745.35 160.925 737.986 162.441 729.756 162.441Z" fill="white"/>
<path d="M785.928 160.275V0H812.352V69.5247L807.37 72.1237C808.814 66.9256 811.63 62.2329 815.817 58.0455C820.004 53.7138 824.986 50.2484 830.762 47.6493C836.537 45.0502 842.457 43.7507 848.522 43.7507C857.185 43.7507 864.405 45.4834 870.181 48.9488C876.101 52.4142 880.505 57.6123 883.392 64.5431C886.425 71.474 887.941 80.1375 887.941 90.5337V160.275H861.3V92.483C861.3 86.7073 860.506 81.9424 858.918 78.1882C857.33 74.2896 854.875 71.474 851.554 69.7413C848.233 67.8642 844.19 66.9978 839.425 67.1422C835.527 67.1422 831.917 67.792 828.596 69.0915C825.419 70.2466 822.603 71.9793 820.149 74.2896C817.839 76.4555 815.961 78.9823 814.518 81.8702C813.218 84.758 812.568 87.9346 812.568 91.4V160.275H799.356C796.757 160.275 794.303 160.275 791.992 160.275C789.826 160.275 787.805 160.275 785.928 160.275Z" fill="white"/>
</svg>
