 <svg
                width="22"
                height="22"
                viewBox="0 0 22 22"
                fill="none"
                xmlns="http://www.w3.org/2000/svg"
                className="justify-center pl-[4px]"
              >
                <path
                  d="M17.8746 12.375C17.8763 12.6553 17.7912 12.9293 17.6308 13.1592C17.4704 13.3891 17.2428 13.5637 16.9791 13.6589L12.5404 15.2917L10.9076 19.727C10.8109 19.9896 10.636 20.2163 10.4064 20.3765C10.1768 20.5366 9.90365 20.6225 9.62373 20.6225C9.34381 20.6225 9.07063 20.5366 8.84104 20.3765C8.61146 20.2163 8.43652 19.9896 8.33982 19.727L6.70271 15.2969L2.26662 13.6641C2.00393 13.5674 1.77723 13.3924 1.61709 13.1628C1.45695 12.9333 1.37109 12.6601 1.37109 12.3802C1.37109 12.1002 1.45695 11.8271 1.61709 11.5975C1.77723 11.3679 2.00393 11.1929 2.26662 11.0962L6.70529 9.46344L8.3381 5.0282C8.4348 4.76552 8.60974 4.53881 8.83933 4.37868C9.06891 4.21854 9.34209 4.13268 9.62201 4.13268C9.90193 4.13268 10.1751 4.21854 10.4047 4.37868C10.6343 4.53881 10.8092 4.76552 10.9059 5.0282L12.5387 9.46688L16.974 11.0997C17.2372 11.1936 17.465 11.3665 17.6262 11.5947C17.7874 11.823 17.8742 12.0955 17.8746 12.375ZM13.0621 4.125H14.4371V5.5C14.4371 5.68234 14.5095 5.8572 14.6385 5.98614C14.7674 6.11507 14.9423 6.1875 15.1246 6.1875C15.3069 6.1875 15.4818 6.11507 15.6107 5.98614C15.7397 5.8572 15.8121 5.68234 15.8121 5.5V4.125H17.1871C17.3694 4.125 17.5443 4.05257 17.6732 3.92364C17.8022 3.7947 17.8746 3.61984 17.8746 3.4375C17.8746 3.25516 17.8022 3.0803 17.6732 2.95136C17.5443 2.82243 17.3694 2.75 17.1871 2.75H15.8121V1.375C15.8121 1.19266 15.7397 1.0178 15.6107 0.888864C15.4818 0.759933 15.3069 0.6875 15.1246 0.6875C14.9423 0.6875 14.7674 0.759933 14.6385 0.888864C14.5095 1.0178 14.4371 1.19266 14.4371 1.375V2.75H13.0621C12.8798 2.75 12.7049 2.82243 12.576 2.95136C12.447 3.0803 12.3746 3.25516 12.3746 3.4375C12.3746 3.61984 12.447 3.7947 12.576 3.92364C12.7049 4.05257 12.8798 4.125 13.0621 4.125ZM20.6246 6.875H19.9371V6.1875C19.9371 6.00516 19.8647 5.8303 19.7357 5.70136C19.6068 5.57243 19.4319 5.5 19.2496 5.5C19.0673 5.5 18.8924 5.57243 18.7635 5.70136C18.6345 5.8303 18.5621 6.00516 18.5621 6.1875V6.875H17.8746C17.6923 6.875 17.5174 6.94743 17.3885 7.07636C17.2595 7.2053 17.1871 7.38016 17.1871 7.5625C17.1871 7.74484 17.2595 7.9197 17.3885 8.04864C17.5174 8.17757 17.6923 8.25 17.8746 8.25H18.5621V8.9375C18.5621 9.11984 18.6345 9.2947 18.7635 9.42364C18.8924 9.55257 19.0673 9.625 19.2496 9.625C19.4319 9.625 19.6068 9.55257 19.7357 9.42364C19.8647 9.2947 19.9371 9.11984 19.9371 8.9375V8.25H20.6246C20.8069 8.25 20.9818 8.17757 21.1107 8.04864C21.2397 7.9197 21.3121 7.74484 21.3121 7.5625C21.3121 7.38016 21.2397 7.2053 21.1107 7.07636C20.9818 6.94743 20.8069 6.875 20.6246 6.875Z"
                  fill="url(#paint0_linear_3989_60842)"
                />
                <defs>
                  <linearGradient
                    id="paint0_linear_3989_60842"
                    x1="11.3416"
                    y1="0.6875"
                    x2="11.3416"
                    y2="20.6225"
                    gradientUnits="userSpaceOnUse"
                  >
                    <stop stop-color="#B694FF" />
                    <stop offset="1" stop-color="#3097DF" />
                  </linearGradient>
                </defs>
              </svg>