<svg width="212" height="243" viewBox="0 0 212 243" fill="none" xmlns="http://www.w3.org/2000/svg">
<g id="triangle with an error" clip-path="url(#clip0_1344_39153)">
<path id="Vector" d="M210.543 214.444C212.675 219.576 211.835 226.52 208.481 229.046C206.049 230.878 187.612 240.829 187.612 240.829L21.6702 120.726L85.8444 12.376C85.8444 12.376 104.487 2.17016 106.897 1.02412C108.217 0.396255 109.833 0.0816037 111.803 0.436846C115.96 1.18619 123.606 6.01968 126.826 13.2682L210.543 214.444L210.543 214.444Z" fill="white"/>
<path id="Vector_2" d="M187.612 241.117C187.552 241.117 187.493 241.099 187.443 241.062L21.5015 120.959C21.3809 120.872 21.3467 120.707 21.4226 120.579L85.5969 12.2296C85.6233 12.1852 85.661 12.1487 85.7062 12.1239C86.4675 11.7071 104.383 1.90104 106.773 0.764499C108.318 0.029832 110.027 -0.175714 111.854 0.153908C116.166 0.931181 123.859 5.88068 127.088 13.1516L210.808 214.334C213.053 219.739 212.047 226.721 208.654 229.277C206.232 231.101 188.502 240.676 187.748 241.083C187.705 241.106 187.658 241.117 187.611 241.117L187.612 241.117ZM22.0516 120.647L187.634 240.49C189.445 239.511 206.04 230.525 208.308 228.817C211.455 226.447 212.393 219.649 210.277 214.555L126.56 13.3791C123.414 6.29638 115.938 1.47527 111.752 0.720453C110.046 0.412711 108.454 0.602711 107.02 1.28441C104.719 2.37892 87.2991 11.9086 86.0515 12.5911L22.0516 120.647Z" fill="black"/>
<path id="Vector_3" d="M130.3 21.6162L210.543 214.443C212.675 219.576 211.835 226.52 208.481 229.046C206.049 230.878 187.611 240.829 187.611 240.829L39.7053 133.779L107.565 33.9656L130.3 21.6165L130.3 21.6162Z" fill="#474747"/>
<path id="Vector_4" d="M187.612 241.117C187.552 241.117 187.493 241.098 187.443 241.062L39.5366 134.012C39.4106 133.921 39.3798 133.746 39.4672 133.617L107.327 33.8037C107.353 33.7657 107.387 33.7346 107.428 33.7127L130.163 21.3636C130.234 21.3247 130.319 21.3178 130.396 21.3451C130.473 21.3722 130.534 21.4306 130.566 21.5061L210.808 214.333C213.054 219.739 212.047 226.721 208.654 229.276C206.232 231.1 188.502 240.676 187.748 241.082C187.706 241.105 187.658 241.117 187.612 241.117V241.117ZM40.1003 133.71L187.634 240.49C189.445 239.51 206.04 230.524 208.308 228.816C211.455 226.446 212.393 219.648 210.277 214.554L130.157 22.0217L107.764 34.1851L40.1003 133.709V133.71Z" fill="black"/>
<path id="Vector_5" d="M189.736 226.398C192.329 231.742 191.616 237.877 188.262 240.403C185.83 242.235 181.433 242.504 178.521 240.905L13.8485 150.187C6.99295 146.424 2.80497 139.598 0.863919 132.68C-1.52226 124.177 4.15474 118.762 6.10327 116.178L81.5 16.6274C82.7499 14.977 85.4831 10.6338 91.0508 11.6376C95.2074 12.3869 99.252 14.6425 101.653 20.1196L189.737 226.398H189.736Z" fill="#F8D148"/>
<path id="Vector_6" d="M182.987 242.248C181.354 242.248 179.716 241.89 178.382 241.158L13.7094 150.439C7.48858 147.025 2.82815 140.745 0.586414 132.758C-1.55922 125.112 2.74385 119.853 5.0555 117.027C5.37287 116.639 5.6468 116.304 5.87296 116.004L81.2705 16.4538C81.3557 16.3412 81.4478 16.2163 81.5473 16.081C82.908 14.2331 85.7402 10.3879 91.1013 11.3546C96.1614 12.2669 99.8 15.177 101.916 20.0045L189.998 226.279C192.622 231.693 191.936 237.997 188.435 240.634C187.019 241.7 185.007 242.248 182.987 242.248L182.987 242.248ZM89.4258 11.7755C85.4335 11.7755 83.2481 14.7426 82.0109 16.4224C81.9096 16.5597 81.8161 16.687 81.7292 16.8015L6.33218 116.352C6.09969 116.66 5.82231 116.999 5.50092 117.392C3.09776 120.329 -0.923903 125.245 1.14059 132.603C2.41439 137.142 5.77685 145.429 13.9868 149.935L178.659 240.653C181.416 242.166 185.735 241.947 188.089 240.174C191.38 237.696 191.99 231.7 189.478 226.524C189.476 226.52 189.474 226.516 189.472 226.511L101.388 20.2331C99.3552 15.5948 95.8595 12.7974 90.9997 11.9211C90.4461 11.8212 89.9219 11.7755 89.4258 11.7755Z" fill="black"/>
<path id="Vector_7" d="M105.095 147.505L85.5786 136.737L85.4868 57.6562L105.095 68.3843V147.505Z" fill="white"/>
<path id="Vector_8" d="M105.095 147.793C105.048 147.793 104.999 147.781 104.956 147.757L85.4393 136.99C85.3478 136.939 85.2905 136.843 85.2905 136.738L85.1987 57.6568C85.1987 57.5549 85.2523 57.4608 85.3397 57.409C85.4269 57.3572 85.5354 57.3551 85.6246 57.4038L105.233 68.1319C105.325 68.1825 105.383 68.2793 105.383 68.3843V147.505C105.383 147.607 105.329 147.701 105.241 147.753C105.196 147.779 105.145 147.793 105.095 147.793L105.095 147.793ZM85.866 136.568L104.808 147.018V68.5553L85.7751 58.1425L85.866 136.568Z" fill="black"/>
<path id="Vector_9" d="M105.095 155.985V177.441L85.5785 166.674L85.5535 145.219L105.095 155.985Z" fill="white"/>
<path id="Vector_10" d="M105.095 177.729C105.048 177.729 105 177.717 104.956 177.693L85.4394 166.926C85.3476 166.875 85.2906 166.779 85.2906 166.674L85.2659 145.219C85.2659 145.117 85.3194 145.023 85.4071 144.971C85.4949 144.919 85.6034 144.917 85.6926 144.966L105.234 155.733C105.326 155.783 105.383 155.88 105.383 155.985V177.441C105.383 177.543 105.33 177.637 105.242 177.689C105.197 177.716 105.146 177.729 105.096 177.729H105.095ZM85.8661 166.504L104.808 176.954V156.155L85.8419 145.706L85.8661 166.504Z" fill="black"/>
</g>
<defs>
<clipPath id="clip0_1344_39153">
<rect width="212" height="242.245" fill="white"/>
</clipPath>
</defs>
</svg>
