<svg
                      width="18"
                      height="18"
                      viewBox="0 0 18 18"
                      fill="none"
                      xmlns="http://www.w3.org/2000/svg"
                      className="clicked-thumbs-up"
                    >
                      <path d="M16.4531 5.63344C16.2947 5.45395 16.1 5.31021 15.8818 5.21177C15.6635 5.11334 15.4269 5.06245 15.1875 5.0625H11.25V3.9375C11.25 3.19158 10.9537 2.47621 10.4262 1.94876C9.89879 1.42132 9.18342 1.125 8.4375 1.125C8.333 1.12493 8.23054 1.15396 8.14162 1.20886C8.0527 1.26375 7.98083 1.34233 7.93406 1.43578L5.27766 6.75H2.25C1.95163 6.75 1.66548 6.86853 1.4545 7.0795C1.24353 7.29048 1.125 7.57663 1.125 7.875V14.0625C1.125 14.3609 1.24353 14.647 1.4545 14.858C1.66548 15.069 1.95163 15.1875 2.25 15.1875H14.3438C14.7549 15.1876 15.1519 15.0377 15.4603 14.7658C15.7687 14.4939 15.9672 14.1188 16.0186 13.7109L16.8623 6.96094C16.8923 6.7233 16.8712 6.48201 16.8007 6.25313C16.7301 6.02424 16.6116 5.813 16.4531 5.63344ZM2.25 7.875H5.0625V14.0625H2.25V7.875Z" />
                    </svg>