 <svg
        xmlns="http://www.w3.org/2000/svg"
        width="22"
        height="22"
        viewBox="0 0 22 22"
        fill="none"
      >
        <path
          d="M11 2.0625C9.23233 2.0625 7.50436 2.58668 6.0346 3.56874C4.56483 4.55081 3.41929 5.94665 2.74283 7.57977C2.06637 9.21288 1.88938 11.0099 2.23424 12.7436C2.57909 14.4773 3.43031 16.0698 4.68024 17.3198C5.93017 18.5697 7.52268 19.4209 9.25638 19.7658C10.9901 20.1106 12.7871 19.9336 14.4202 19.2572C16.0534 18.5807 17.4492 17.4352 18.4313 15.9654C19.4133 14.4956 19.9375 12.7677 19.9375 11C19.933 8.63102 18.9899 6.36037 17.3148 4.68525C15.6396 3.01013 13.369 2.06704 11 2.0625ZM10.3125 6.875C10.3125 6.69266 10.3849 6.5178 10.5139 6.38886C10.6428 6.25993 10.8177 6.1875 11 6.1875C11.1823 6.1875 11.3572 6.25993 11.4861 6.38886C11.6151 6.5178 11.6875 6.69266 11.6875 6.875V11.6875C11.6875 11.8698 11.6151 12.0447 11.4861 12.1736C11.3572 12.3026 11.1823 12.375 11 12.375C10.8177 12.375 10.6428 12.3026 10.5139 12.1736C10.3849 12.0447 10.3125 11.8698 10.3125 11.6875V6.875ZM11 15.8125C10.796 15.8125 10.5967 15.752 10.4271 15.6387C10.2575 15.5254 10.1253 15.3643 10.0473 15.1759C9.9692 14.9875 9.94878 14.7801 9.98857 14.5801C10.0284 14.38 10.1266 14.1963 10.2708 14.052C10.415 13.9078 10.5988 13.8096 10.7988 13.7698C10.9989 13.73 11.2062 13.7504 11.3946 13.8285C11.5831 13.9066 11.7441 14.0387 11.8575 14.2083C11.9708 14.3779 12.0313 14.5773 12.0313 14.7812C12.0313 15.0548 11.9226 15.3171 11.7292 15.5105C11.5358 15.7038 11.2735 15.8125 11 15.8125Z"
          fill="#DD6054"
        />
      </svg>