<svg
        xmlns="http://www.w3.org/2000/svg"
        width="22"
        height="22"
        viewBox="0 0 22 22"
        fill="none"
      >
        <path
          d="M11 2.0625C9.23233 2.0625 7.50436 2.58668 6.0346 3.56874C4.56483 4.55081 3.41929 5.94665 2.74283 7.57977C2.06637 9.21288 1.88938 11.0099 2.23424 12.7436C2.57909 14.4773 3.43031 16.0698 4.68024 17.3198C5.93017 18.5697 7.52268 19.4209 9.25638 19.7658C10.9901 20.1106 12.7871 19.9336 14.4202 19.2572C16.0534 18.5807 17.4492 17.4352 18.4313 15.9654C19.4133 14.4956 19.9375 12.7677 19.9375 11C19.933 8.63102 18.9899 6.36037 17.3148 4.68525C15.6396 3.01013 13.369 2.06704 11 2.0625ZM15.2539 9.43594L10.218 14.2484C10.0878 14.3709 9.91546 14.4386 9.73672 14.4375C9.64936 14.4388 9.56261 14.4227 9.48149 14.3902C9.40036 14.3578 9.32647 14.3096 9.26407 14.2484L6.7461 11.8422C6.67626 11.7813 6.61946 11.7068 6.57912 11.6234C6.53877 11.5399 6.51572 11.4492 6.51134 11.3566C6.50696 11.264 6.52134 11.1715 6.55363 11.0847C6.58591 10.9978 6.63543 10.9183 6.69921 10.8511C6.76298 10.7838 6.83969 10.7302 6.92474 10.6933C7.00978 10.6565 7.1014 10.6372 7.19408 10.6366C7.28676 10.6361 7.37859 10.6543 7.46406 10.6902C7.54953 10.726 7.62686 10.7788 7.69141 10.8453L9.73672 12.7961L14.3086 8.43906C14.4423 8.32244 14.6159 8.262 14.7931 8.27038C14.9703 8.27876 15.1374 8.35532 15.2594 8.48405C15.3815 8.61278 15.4491 8.78371 15.4481 8.9611C15.447 9.1385 15.3775 9.30864 15.2539 9.43594Z"
          fill="#7AB971"
        />
      </svg>